<svg width="20" height="20" viewBox="0 0 20 20" fill="none" xmlns="http://www.w3.org/2000/svg">
<path d="M19.0801 13.3338C19.1614 12.8932 19.1614 12.4431 19.0801 12.0025L19.8865 11.5368C19.9802 11.4837 20.0209 11.3743 19.9896 11.2711C19.7802 10.5961 19.4208 9.98349 18.952 9.47719C18.8801 9.39906 18.7645 9.38031 18.6707 9.43344L17.8644 9.89911C17.5237 9.60845 17.1331 9.38343 16.7111 9.23342V8.30207C16.7111 8.19581 16.6361 8.10205 16.533 8.08017C15.836 7.9239 15.1266 7.93015 14.464 8.08017C14.3609 8.10205 14.2859 8.19581 14.2859 8.30207V9.23342C13.864 9.38343 13.4733 9.60845 13.1326 9.89911L12.3263 9.43344C12.2357 9.38031 12.1169 9.39906 12.045 9.47719C11.5762 9.98349 11.2168 10.5961 11.0074 11.2711C10.9762 11.3743 11.0199 11.4837 11.1105 11.5368L11.9169 12.0025C11.8356 12.4431 11.8356 12.8932 11.9169 13.3338L11.1105 13.7995C11.0168 13.8527 10.9762 13.962 11.0074 14.0652C11.2168 14.7402 11.5762 15.3497 12.045 15.8591C12.1169 15.9372 12.2325 15.956 12.3263 15.9029L13.1326 15.4372C13.4733 15.7279 13.864 15.9529 14.2859 16.1029V17.0342C14.2859 17.1405 14.3609 17.2343 14.464 17.2561C15.161 17.4124 15.8704 17.4062 16.533 17.2561C16.6361 17.2343 16.7111 17.1405 16.7111 17.0342V16.1029C17.1331 15.9529 17.5237 15.7279 17.8644 15.4372L18.6707 15.9029C18.7614 15.956 18.8801 15.9372 18.952 15.8591C19.4208 15.3528 19.7802 14.7402 19.9896 14.0652C20.0209 13.962 19.9771 13.8527 19.8865 13.7995L19.0801 13.3338ZM15.5016 14.1839C14.664 14.1839 13.9859 13.5026 13.9859 12.6682C13.9859 11.8337 14.6672 11.1524 15.5016 11.1524C16.3361 11.1524 17.0174 11.8337 17.0174 12.6682C17.0174 13.5026 16.3392 14.1839 15.5016 14.1839ZM7.00074 9.66784C9.21035 9.66784 11.0012 7.87702 11.0012 5.66741C11.0012 3.45781 9.21035 1.66699 7.00074 1.66699C4.79113 1.66699 3.00032 3.45781 3.00032 5.66741C3.00032 7.87702 4.79113 9.66784 7.00074 9.66784ZM13.2889 16.7467C13.217 16.7092 13.1451 16.6654 13.0764 16.6248L12.8295 16.7686C12.642 16.8748 12.4294 16.9342 12.2169 16.9342C11.8763 16.9342 11.5481 16.7905 11.3137 16.5404C10.7418 15.9216 10.3042 15.1684 10.0573 14.3652C9.88542 13.812 10.1167 13.2276 10.6167 12.9369L10.8636 12.7932C10.8605 12.7119 10.8605 12.6306 10.8636 12.5494L10.6167 12.4056C10.1167 12.1181 9.88542 11.5305 10.0573 10.9773C10.0854 10.8867 10.1261 10.7961 10.1573 10.7054C10.0386 10.6961 9.92292 10.6679 9.80103 10.6679H9.2791C8.58528 10.9867 7.81332 11.168 7.00074 11.168C6.18815 11.168 5.41932 10.9867 4.72237 10.6679H4.20044C1.88145 10.6679 0 12.5494 0 14.8684V16.1685C0 16.9967 0.671946 17.6687 1.50016 17.6687H12.5013C12.817 17.6687 13.1108 17.5687 13.3514 17.403C13.3139 17.2843 13.2889 17.1624 13.2889 17.0342V16.7467Z" fill="#02353C"/>
</svg>
