<svg width="20" height="20" viewBox="0 0 20 20" fill="none" xmlns="http://www.w3.org/2000/svg">
<path d="M15.8293 12.0434L16.7629 9.59806C16.9192 9.1879 16.6184 8.75041 16.177 8.75041H13.8918C14.3215 8.01212 14.5872 7.16447 14.5872 6.25041V6.23869C16.1184 5.934 17.0872 5.49259 17.0872 5.00041C17.0872 4.48087 16.0208 4.01994 14.3489 3.71134C13.9895 2.43009 13.2942 1.14103 12.7629 0.47697C12.3918 0.0121259 11.7512 -0.132405 11.22 0.13322L10.1418 0.672282C9.79028 0.848063 9.37622 0.848063 9.02466 0.672282L7.94653 0.13322C7.41528 -0.132405 6.77466 0.0121259 6.40356 0.47697C5.87622 1.14103 5.177 2.43009 4.81763 3.71134C3.14966 4.01994 2.08325 4.48087 2.08325 5.00041C2.08325 5.49259 3.052 5.934 4.58325 6.23869V6.25041C4.58325 7.16447 4.84888 8.01212 5.27856 8.75041H3.03247C2.58325 8.75041 2.28247 9.20744 2.45825 9.6215L3.46606 11.9731C1.89966 12.8832 0.833252 14.559 0.833252 16.5004V18.2504C0.833252 19.2152 1.61841 20.0004 2.58325 20.0004H16.5833C17.5481 20.0004 18.3333 19.2152 18.3333 18.2504V16.5004C18.3333 14.6098 17.3254 12.9692 15.8293 12.0434ZM7.70825 18.7504L6.08325 11.2504L8.02075 12.5004L8.95825 14.0629L7.70825 18.7504ZM11.4583 18.7504L10.2083 14.0629L11.1458 12.5004L13.0833 11.2504L11.4583 18.7504ZM13.0872 7.09025C12.9348 7.55509 12.8137 8.05119 12.4426 8.39494C12.0481 8.75822 10.5676 9.26994 9.94263 7.41837C9.83325 7.09025 9.34106 7.09025 9.22778 7.41837C8.56372 9.37931 7.04028 8.684 6.72778 8.39494C6.35669 8.05119 6.23169 7.55509 6.08325 7.09025C6.052 6.99259 5.83716 6.86759 5.83716 6.86369V6.44181C6.94263 6.58244 8.21997 6.66837 9.58716 6.66837C10.9543 6.66837 12.2317 6.58634 13.3372 6.44181V6.86369C13.3333 6.86759 13.1184 6.98869 13.0872 7.09025Z" fill="#02353C"/>
</svg>
