<svg width="20" height="20" viewBox="0 0 20 20" fill="none" xmlns="http://www.w3.org/2000/svg">
<path d="M16.5003 12.1672C14.9815 12.1672 13.7502 13.3984 13.7502 14.9172C13.7502 16.436 14.9815 17.6672 16.5003 17.6672C18.019 17.6672 19.2503 16.436 19.2503 14.9172C19.2503 13.3984 18.019 12.1672 16.5003 12.1672ZM16.5003 15.6672C16.0868 15.6672 15.7502 15.3306 15.7502 14.9172C15.7502 14.5038 16.0868 14.1672 16.5003 14.1672C16.9137 14.1672 17.2503 14.5038 17.2503 14.9172C17.2503 15.3306 16.9137 15.6672 16.5003 15.6672ZM19.0003 6.66707H17.0003V5.4108C17.0003 4.96955 17.1471 4.54329 17.4112 4.19703C17.5493 4.01578 17.5222 3.75765 17.37 3.58796L16.694 2.83264C16.4859 2.59982 16.1215 2.61638 15.9221 2.85701C15.3309 3.57015 15.0002 4.4736 15.0002 5.4108V6.66707H11.8024L10.0495 2.57763C9.93439 2.30726 9.74223 2.07675 9.497 1.91482C9.25177 1.75289 8.96432 1.6667 8.67045 1.66699H4.50007C3.67287 1.66699 3.00005 2.33982 3.00005 3.16702V7.74584C2.73036 7.53552 2.34504 7.54396 2.09722 7.79178L1.12502 8.76398C0.856576 9.03242 0.856576 9.46774 1.12502 9.73618L1.28315 9.89431C1.12721 10.1837 1.00314 10.4824 0.910952 10.7918H0.687511C0.307817 10.7918 0 11.0996 0 11.4793V12.8544C0 13.2341 0.307817 13.5419 0.687511 13.5419H0.910639C1.00314 13.8516 1.12689 14.15 1.28283 14.4397L1.12471 14.5978C0.856263 14.8663 0.856263 15.3016 1.12471 15.57L2.09691 16.5422C2.36535 16.8107 2.80067 16.8107 3.06911 16.5422L3.22724 16.3841C3.51662 16.54 3.81537 16.6641 4.12475 16.7563V16.9797C4.12475 17.3594 4.43257 17.6672 4.81226 17.6672H6.18728C6.56698 17.6672 6.87479 17.3594 6.87479 16.9797V16.7566C7.18418 16.6644 7.48293 16.5404 7.77231 16.3844L7.93044 16.5425C8.19888 16.811 8.6342 16.811 8.90264 16.5425L9.87484 15.5703C10.1433 15.3019 10.1433 14.8666 9.87484 14.5981L9.71671 14.44C9.87265 14.1506 9.99672 13.8519 10.0889 13.5425H10.3127C10.6924 13.5425 11.0002 13.2347 11.0002 12.855V12.6675H13.5171C14.2018 11.7615 15.2771 11.1675 16.5003 11.1675C17.0828 11.1675 17.6275 11.3115 18.119 11.5487L19.7072 9.96056C19.8947 9.77306 20 9.51868 20 9.25336V7.66709C20.0003 7.11489 19.5525 6.66707 19.0003 6.66707ZM5.50009 14.6672C4.11944 14.6672 3.00005 13.5478 3.00005 12.1672C3.00005 10.7865 4.11944 9.66712 5.50009 9.66712C6.88073 9.66712 8.00012 10.7865 8.00012 12.1672C8.00012 13.5478 6.88073 14.6672 5.50009 14.6672ZM6.1876 6.66707H5.00008V3.66702H8.34044L9.6264 6.66707H6.1876Z" fill="#02353C"/>
</svg>
