<svg width="20" height="20" viewBox="0 0 20 20" fill="none" xmlns="http://www.w3.org/2000/svg">
<path d="M0 5.47431V17.4993C0 17.8924 0.396875 18.1611 0.761806 18.0153L5.55556 15.8333V2.5L0.698611 4.44271C0.492423 4.52518 0.31567 4.66753 0.191149 4.8514C0.066628 5.03527 4.93822e-05 5.25224 0 5.47431H0ZM6.66667 15.8333L13.3333 18.0556V4.72222L6.66667 2.5V15.8333ZM19.2382 2.54028L14.4444 4.72222V18.0556L19.3014 16.1128C19.5076 16.0304 19.6844 15.8881 19.8089 15.7042C19.9334 15.5203 20 15.3033 20 15.0812V3.05625C20 2.66319 19.6031 2.39444 19.2382 2.54028Z" fill="#02353C"/>
</svg>
