<svg width="53" height="53" viewBox="0 0 53 53" fill="none" xmlns="http://www.w3.org/2000/svg">
<rect x="0.5" y="0.5" width="52" height="52" rx="4.5" fill="#F5F5F5" stroke="#666666" stroke-dasharray="2 2"/>
<path d="M40.7188 40.5H12.2812C10.469 40.5 9 38.989 9 37.125V16.875C9 15.011 10.469 13.5 12.2812 13.5H40.7188C42.531 13.5 44 15.011 44 16.875V37.125C44 38.989 42.531 40.5 40.7188 40.5ZM16.6562 17.4375C14.542 17.4375 12.8281 19.2004 12.8281 21.375C12.8281 23.5496 14.542 25.3125 16.6562 25.3125C18.7705 25.3125 20.4844 23.5496 20.4844 21.375C20.4844 19.2004 18.7705 17.4375 16.6562 17.4375ZM13.375 36H39.625V28.125L33.6425 21.9716C33.3222 21.6421 32.8028 21.6421 32.4824 21.9716L23.2188 31.5L19.4238 27.5966C19.1034 27.2671 18.5841 27.2671 18.2637 27.5966L13.375 32.625V36Z" fill="#666666"/>
</svg>
