<svg width="60" height="60" viewBox="0 0 60 60" fill="none" xmlns="http://www.w3.org/2000/svg">
<g clip-path="url(#clip0_3748_15897)">
<g clip-path="url(#clip1_3748_15897)">
<g clip-path="url(#clip2_3748_15897)">
<g clip-path="url(#clip3_3748_15897)">
<path d="M61.1 0H0V60.1H61.1V0Z" fill="#901939"/>
<path d="M4.7998 14.5998C4.7998 13.9998 4.8998 13.4998 5.0998 12.8998C5.2998 12.4998 5.5998 12.0998 6.0998 11.8998C5.6998 11.5998 5.3998 11.2998 5.1998 10.8998C4.9998 10.3998 4.79981 9.8998 4.89981 9.2998C4.89981 8.4998 5.0998 7.6998 5.6998 7.0998C6.2998 6.5998 7.09981 6.2998 7.89981 6.2998C8.69981 6.2998 9.4998 6.5998 10.0998 7.0998C10.5998 7.6998 10.8998 8.4998 10.8998 9.2998C10.8998 9.8998 10.7998 10.3998 10.5998 10.8998C10.3998 11.2998 10.0998 11.6998 9.7998 11.8998C10.1998 12.0998 10.5998 12.4998 10.7998 12.9998C10.9998 13.4998 11.1998 14.0998 11.0998 14.6998C11.1998 15.5998 10.8998 16.4998 10.3998 17.1998C9.79981 17.7998 8.8998 18.1998 7.9998 18.0998C5.7998 18.0998 4.7998 16.9998 4.7998 14.5998ZM8.69981 15.9998C8.79981 15.5998 8.89981 15.1998 8.89981 14.6998C8.89981 14.1998 8.79981 13.7998 8.69981 13.3998C8.59981 13.0998 8.2998 12.8998 7.9998 12.8998C7.6998 12.8998 7.3998 13.0998 7.1998 13.3998C7.0998 13.7998 6.9998 14.2998 6.9998 14.6998C6.9998 15.0998 7.0998 15.5998 7.1998 15.9998C7.3998 16.3998 7.7998 16.5998 8.2998 16.3998C8.4998 16.3998 8.69981 16.1998 8.69981 15.9998ZM8.7998 9.2998C8.7998 8.9998 8.6998 8.5998 8.5998 8.2998C8.4998 8.0998 8.1998 7.9998 7.9998 7.9998C7.6998 7.9998 7.4998 8.09981 7.39981 8.39981C7.19981 8.69981 7.1998 8.9998 7.1998 9.39981C7.1998 10.5998 7.4998 11.1998 7.9998 11.1998C8.4998 11.1998 8.7998 10.4998 8.7998 9.2998Z" fill="white"/>
<path d="M15.3999 6.5H16.4999C16.7999 6.5 17.0999 6.5 17.2999 6.6C17.4999 6.7 17.6999 6.8 17.6999 7C17.7999 7.2 17.7999 7.5 17.7999 7.8V9.4C17.7999 9.7 17.7999 9.9 17.6999 10.2C17.5999 10.4 17.4999 10.6 17.2999 10.7C16.9999 10.8 16.7999 10.9 16.4999 10.9H15.3999V6.5ZM16.4999 10.3C16.5999 10.3 16.7999 10.3 16.8999 10.2C16.9999 10.1 16.9999 10 16.9999 9.9C16.9999 9.7 16.9999 9.6 16.9999 9.4V7.8C16.9999 7.7 16.9999 7.5 16.9999 7.4C16.9999 7.3 16.8999 7.2 16.7999 7.2C16.7999 7.1 16.5999 7 16.4999 7H16.1999V10.3H16.4999Z" fill="white"/>
<path d="M18.3999 6.5H20.2999V7.1H19.1999V8.4H19.9999V9H19.1999V10.4H20.2999V11H18.3999V6.5Z" fill="white"/>
<path d="M20.8 10.5998C20.6 10.2998 20.5 9.8998 20.5 9.4998V7.89981C20.5 7.49981 20.6 7.0998 20.8 6.7998C21.3 6.2998 22.2 6.2998 22.7 6.7998C22.9 7.0998 23 7.3998 23 7.7998V8.0998H22.2V7.6998C22.2 7.5998 22.2 7.4998 22.2 7.2998C22.2 7.1998 22.2 7.0998 22.1 7.0998C22 7.0998 21.9 6.9998 21.8 7.0998C21.7 7.0998 21.6 7.0998 21.5 7.1998C21.4 7.2998 21.4 7.29981 21.4 7.39981C21.4 7.49981 21.4 7.6998 21.4 7.7998V9.69981C21.4 9.89981 21.4 10.0998 21.5 10.1998C21.6 10.2998 21.7 10.3998 21.9 10.3998C22 10.3998 22.1 10.3998 22.2 10.2998C22.3 10.1998 22.3 10.1998 22.3 10.0998C22.3 9.9998 22.3 9.79981 22.3 9.69981V9.2998H23.1V9.5998C23.1 9.8998 23 10.2998 22.8 10.5998C22.5 10.8998 22.2 10.9998 21.8 10.8998C21.4 10.9998 21 10.7998 20.8 10.5998Z" fill="white"/>
<path d="M23.3999 6.5H25.2999V7.1H24.1999V8.4H25.0999V9H24.2999V10.4H25.3999V11H23.4999L23.3999 6.5Z" fill="white"/>
<path d="M25.6001 6.5H26.2001L27.3001 9V6.5H28.0001V10.9H27.5001L26.4001 8.3V10.9H25.6001V6.5Z" fill="white"/>
<path d="M28.9002 7.1H28.2002V6.5H30.5002V7.1H29.8002V10.9H29.0002V7.1H28.9002Z" fill="white"/>
<path d="M31.7002 6.5H32.4002L32.8002 9.3L33.3002 6.5H33.9002L34.4002 9.3L34.6002 6.5H35.3002L34.6002 10.9H33.9002L33.4002 8L32.9002 10.9H32.2002L31.7002 6.5Z" fill="white"/>
<path d="M35.9 10.6004C35.6 10.2004 35.5 9.90039 35.6 9.50039V7.80039C35.6 7.40039 35.7 7.10039 35.9 6.80039C36.2 6.50039 36.5 6.40039 36.9 6.40039C37.3 6.40039 37.6 6.50039 37.9 6.80039C38.1 7.10039 38.2 7.50039 38.2 7.90039V9.60039C38.2 10.0004 38.1 10.4004 37.9 10.7004C37.3 11.1004 36.4 11.1004 35.9 10.6004ZM37.2 10.2004C37.3 10.0004 37.3 9.90039 37.3 9.70039V7.70039C37.3 7.50039 37.3 7.40039 37.2 7.20039C37.1 7.10039 37 7.00039 36.8 7.00039C36.6 7.00039 36.5 7.00039 36.4 7.20039C36.3 7.30039 36.3 7.50039 36.3 7.70039V9.70039C36.3 9.90039 36.3 10.0004 36.4 10.2004C36.5 10.3004 36.6 10.4004 36.8 10.4004C37 10.4004 37.1 10.3004 37.2 10.2004Z" fill="white"/>
<path d="M38.5 6.5H39.6C40 6.5 40.3 6.6 40.7 6.8C41 7 41.1 7.4 41.1 7.7C41.1 7.9 41.1 8.2 41 8.4C40.9 8.6 40.8 8.7 40.6 8.8L41.2 11H40.4L39.9 9H39.5V11H38.7L38.5 6.5ZM39.6 8.4C39.8 8.4 40 8.4 40.1 8.2C40.2 8.1 40.3 7.9 40.2 7.7C40.2 7.5 40.2 7.3 40.1 7.2C40 7.1 39.8 7.1 39.7 7.1H39.4V8.4H39.6Z" fill="white"/>
<path d="M41.5 6.5H42.3V8.4L43.2 6.5H44L43.1 8.4L44.1 10.8H43.3L42.6 8.8L42.4 9.1V10.8H41.6L41.5 6.5Z" fill="white"/>
<path d="M46.1001 6.5H47.0001L47.9001 10.9H47.1001L46.9001 9.9H46.1001L45.9001 10.9H45.1001L46.1001 6.5ZM46.9001 9.4L46.6001 7.5L46.3001 9.3H46.9001V9.4Z" fill="white"/>
<path d="M48.2002 6.5H48.8002L49.9002 9V6.5H50.6002V10.9H50.1002L49.0002 8.3V10.9H48.3002V6.5H48.2002Z" fill="white"/>
<path d="M51 6.5H52.1C52.4 6.5 52.7 6.5 52.9 6.6C53.1 6.7 53.3 6.8 53.3 7C53.4 7.2 53.4 7.5 53.4 7.8V9.4C53.4 9.7 53.4 9.9 53.3 10.2C53.2 10.4 53.1 10.6 52.9 10.7C52.6 10.8 52.4 10.9 52.1 10.9H51V6.5ZM52.1 10.3C52.2 10.3 52.4 10.3 52.5 10.2C52.6 10.2 52.6 10.1 52.7 10C52.7 9.8 52.7 9.7 52.7 9.5V7.8C52.7 7.7 52.7 7.5 52.7 7.4C52.6 7.2 52.6 7.2 52.5 7.1C52.4 7 52.2 7 52.1 7H51.9V10.3H52.1Z" fill="white"/>
<path d="M15.3999 13.5996H17.2999V14.1996H16.1999V15.4996H16.9999V16.0996H16.1999V17.4996H17.2999V18.0996H15.4999V13.5996H15.3999Z" fill="white"/>
<path d="M17.9001 17.6996C17.7001 17.3996 17.6001 16.9996 17.6001 16.5996V15.0996C17.6001 14.6996 17.7001 14.2996 17.9001 13.9996C18.1001 13.6996 18.5001 13.5996 18.9001 13.5996C19.3001 13.5996 19.6001 13.6996 19.9001 13.8996C20.1001 14.1996 20.2001 14.4996 20.2001 14.8996V15.2996H19.4001V14.8996C19.4001 14.7996 19.4001 14.6996 19.4001 14.4996C19.4001 14.3996 19.4001 14.2996 19.3001 14.2996C19.2001 14.1996 19.1001 14.1996 19.0001 14.1996C18.8001 14.1996 18.6001 14.2996 18.6001 14.4996C18.6001 14.5996 18.6001 14.7996 18.6001 14.8996V16.7996C18.6001 16.9996 18.6001 17.1996 18.7001 17.2996C18.8001 17.3996 18.9001 17.4996 19.1001 17.4996C19.2001 17.4996 19.2001 17.3996 19.3001 17.3996C19.4001 17.2996 19.4001 17.2996 19.4001 17.1996C19.4001 17.0996 19.4001 16.8996 19.4001 16.7996V16.3996H20.2001V16.6996C20.2001 16.9996 20.1001 17.3996 19.9001 17.6996C19.7001 17.9996 19.3001 18.0996 18.9001 17.9996C18.5001 18.0996 18.1001 17.9996 17.9001 17.6996Z" fill="white"/>
<path d="M20.8 17.7004C20.6 17.4004 20.5 17.0004 20.5 16.6004V14.9004C20.5 14.5004 20.6 14.2004 20.8 13.8004C21.1 13.5004 21.4 13.4004 21.8 13.4004C22.2 13.4004 22.5 13.5004 22.8 13.8004C23 14.1004 23.1 14.5004 23.1 14.9004V16.6004C23.1 17.0004 23 17.4004 22.8 17.7004C22.2 18.2004 21.3 18.2004 20.8 17.7004ZM22.1 17.3004C22.2 17.1004 22.2 17.0004 22.2 16.8004V14.8004C22.2 14.6004 22.2 14.5004 22.1 14.3004C22 14.2004 21.9 14.1004 21.7 14.1004C21.6 14.1004 21.4 14.1004 21.3 14.3004C21.2 14.4004 21.2 14.6004 21.2 14.8004V16.8004C21.2 17.0004 21.2 17.1004 21.3 17.3004C21.4 17.4004 21.5 17.5004 21.7 17.5004C21.9 17.5004 22 17.5004 22.1 17.3004Z" fill="white"/>
<path d="M23.5 13.5996H24L25.1 16.0996V13.5996H25.8V17.9996H25.3L24.2 15.3996V17.9996H23.5V13.5996Z" fill="white"/>
<path d="M26.5998 17.7004C26.3998 17.4004 26.2998 17.0004 26.2998 16.6004V14.9004C26.2998 14.5004 26.3998 14.2004 26.5998 13.8004C26.8998 13.5004 27.1998 13.4004 27.5998 13.4004C27.9998 13.4004 28.2998 13.5004 28.5998 13.8004C28.7998 14.1004 28.8998 14.5004 28.8998 14.9004V16.6004C28.8998 17.0004 28.7998 17.4004 28.5998 17.7004C28.2998 18.0004 27.9998 18.1004 27.5998 18.1004C27.1998 18.1004 26.8998 18.0004 26.5998 17.7004ZM27.9998 17.3004C28.0998 17.1004 28.0998 17.0004 28.0998 16.8004V14.8004C28.0998 14.6004 28.0998 14.5004 27.9998 14.3004C27.7998 14.1004 27.4998 14.1004 27.2998 14.3004C27.1998 14.4004 27.1998 14.6004 27.1998 14.8004V16.8004C27.1998 17.0004 27.1998 17.1004 27.2998 17.3004C27.3998 17.4004 27.4998 17.5004 27.6998 17.5004C27.7998 17.5004 27.8998 17.5004 27.9998 17.3004Z" fill="white"/>
<path d="M29.4998 13.5996H30.2998L30.8998 16.5996L31.4998 13.5996H32.2998L32.3998 17.9996H31.7998L31.6998 14.9996L31.0998 17.9996H30.5998L29.9998 14.8996L29.8998 17.9996H29.2998L29.4998 13.5996Z" fill="white"/>
<path d="M33.1001 13.5996H33.9001V17.9996H33.1001V13.5996Z" fill="white"/>
<path d="M34.6999 17.6996C34.4999 17.3996 34.3999 16.9996 34.3999 16.5996V15.0996C34.3999 14.6996 34.4999 14.2996 34.6999 13.9996C34.8999 13.6996 35.2999 13.5996 35.6999 13.5996C35.9999 13.5996 36.3999 13.6996 36.5999 13.8996C36.7999 14.1996 36.8999 14.4996 36.8999 14.8996V15.2996H36.0999V14.8996C36.0999 14.7996 36.0999 14.6996 36.0999 14.4996C36.0999 14.3996 35.9999 14.2996 35.9999 14.2996C35.8999 14.1996 35.7999 14.1996 35.6999 14.1996C35.4999 14.1996 35.2999 14.2996 35.2999 14.4996C35.2999 14.5996 35.2999 14.7996 35.2999 14.8996V16.7996C35.2999 16.9996 35.2999 17.1996 35.3999 17.2996C35.4999 17.3996 35.5999 17.4996 35.7999 17.4996C35.8999 17.4996 35.9999 17.4996 36.0999 17.3996C36.1999 17.2996 36.1999 17.2996 36.1999 17.1996C36.1999 17.0996 36.1999 16.8996 36.1999 16.7996V16.3996H36.9999V16.6996C36.9999 16.9996 36.8999 17.3996 36.6999 17.6996C36.4999 17.9996 36.0999 18.0996 35.7999 17.9996C35.2999 18.1996 34.8999 17.9996 34.6999 17.6996Z" fill="white"/>
<path d="M38.6999 17.6996C38.4999 17.3996 38.3999 16.9996 38.3999 16.5996V15.0996C38.3999 14.6996 38.4999 14.2996 38.6999 13.9996C38.8999 13.6996 39.2999 13.5996 39.6999 13.5996C40.0999 13.5996 40.3999 13.6996 40.6999 13.8996C40.8999 14.1996 40.9999 14.4996 40.9999 14.8996V15.0996H40.1999V14.7996C40.1999 14.6996 40.1999 14.4996 40.1999 14.3996C40.1999 14.2996 40.0999 14.1996 40.0999 14.1996C39.9999 14.0996 39.8999 14.0996 39.7999 14.0996C39.6999 14.0996 39.5999 14.0996 39.4999 14.1996C39.3999 14.2996 39.3999 14.3996 39.3999 14.4996C39.3999 14.5996 39.3999 14.7996 39.3999 14.8996V16.6996C39.3999 16.8996 39.3999 17.0996 39.4999 17.2996C39.5999 17.3996 39.6999 17.4996 39.8999 17.4996C40.0999 17.4996 40.1999 17.3996 40.2999 17.2996C40.3999 17.0996 40.3999 16.8996 40.3999 16.6996V16.2996H39.7999V15.7996H40.9999V18.0996H40.4999L40.3999 17.6996C40.2999 17.9996 39.9999 18.1996 39.6999 18.1996C39.2999 18.0996 38.9999 17.9996 38.6999 17.6996Z" fill="white"/>
<path d="M41.5 13.5996H42.6C43 13.5996 43.3 13.6996 43.7 13.8996C44 14.0996 44.1 14.4996 44 14.7996C44 14.9996 44 15.2996 43.9 15.4996C43.8 15.6996 43.7 15.7996 43.5 15.8996L44.1 18.0996H43.3L42.8 16.0996H42.4V18.0996H41.6L41.5 13.5996ZM42.6 15.5996C42.8 15.5996 43 15.5996 43.1 15.3996C43.2 15.2996 43.3 15.0996 43.2 14.8996C43.2 14.6996 43.2 14.4996 43.1 14.3996C43 14.2996 42.8 14.1996 42.6 14.1996H42.3V15.4996L42.6 15.5996Z" fill="white"/>
<path d="M44.6999 17.6998C44.4999 17.3998 44.3999 16.9998 44.3999 16.5998V14.8998C44.3999 14.4998 44.4999 14.1998 44.6999 13.7998C45.2999 13.2998 46.0999 13.2998 46.6999 13.7998C46.8999 14.0998 46.9999 14.4998 46.9999 14.8998V16.5998C46.9999 16.9998 46.8999 17.3998 46.6999 17.6998C46.3999 17.9998 46.0999 18.0998 45.6999 18.0998C45.2999 18.0998 44.8999 17.9998 44.6999 17.6998ZM46.0999 17.2998C46.1999 17.0998 46.1999 16.9998 46.1999 16.7998V14.7998C46.1999 14.5998 46.1999 14.4998 46.0999 14.2998C45.9999 14.1998 45.8999 14.0998 45.6999 14.0998C45.5999 14.0998 45.3999 14.0998 45.2999 14.2998C45.1999 14.3998 45.1999 14.5998 45.1999 14.7998V16.7998C45.1999 16.9998 45.1999 17.0998 45.2999 17.2998C45.3999 17.3998 45.4999 17.4998 45.6999 17.4998C45.7999 17.4998 45.9999 17.4998 46.0999 17.2998Z" fill="white"/>
<path d="M47.2998 13.5996H47.9998L48.3998 16.3996L48.8998 13.5996H49.4998L49.9998 16.3996L50.3998 13.5996H51.0998L50.4998 17.9996H49.5998L49.0998 15.0996L48.5998 17.9996H47.8998L47.2998 13.5996Z" fill="white"/>
<path d="M51.7 14.1996H51V13.5996H53.3V14.1996H52.6V17.9996H51.8L51.7 14.1996Z" fill="white"/>
<path d="M53.5 13.5996H54.3V15.4996H55.2V13.6996H56V18.0996H55.2V16.0996H54.3V18.0996H53.5V13.5996Z" fill="white"/>
<path d="M42.2001 30.8001L36.0001 36.6001C35.7001 36.8001 35.6001 37.1001 35.6001 37.5001V53.9001C35.6001 54.1001 35.8001 54.3001 36.0001 54.3001H42.5001C42.7001 54.3001 42.9001 54.1001 42.9001 53.9001V31.0001C42.8001 30.8001 42.6001 30.4001 42.2001 30.8001Z" fill="white"/>
<path d="M24.3002 38.4999L18.1002 44.2999C17.8002 44.4999 17.7002 44.7999 17.7002 45.1999V53.9999C17.7002 54.1999 17.9002 54.3999 18.1002 54.3999H24.5002C24.7002 54.3999 24.9002 54.1999 24.9002 53.9999V38.5999C24.8002 38.3999 24.7002 38.0999 24.3002 38.4999Z" fill="white"/>
<path d="M45.1001 23.8002V23.7002H45.0001H44.9001L40.1001 24.8002H40.0001H39.9001C39.8001 24.9002 39.8001 25.0002 39.9001 25.1002L41.0001 26.2002L30.2001 36.7002L25.2001 31.8002C25.1001 31.8002 25.1001 31.8002 25.0001 31.8002L23.6001 33.1002L15.6001 41.0002C15.6001 41.1002 15.6001 41.1002 15.6001 41.2002L16.9001 42.6002C16.9001 42.7002 17.0001 42.7002 17.1001 42.6002L25.0001 34.9002L28.6001 38.5002L30.0001 39.8002C30.1001 39.9002 30.1001 39.9002 30.2001 39.8002L42.5001 27.7002L43.7001 28.8002C43.8001 28.9002 43.9001 28.9002 44.0001 28.8002V28.7002L45.1001 23.8002Z" fill="white"/>
<path d="M33.2998 39.4999L30.2998 42.4999C30.1998 42.4999 30.1998 42.4999 30.0998 42.4999L27.3998 39.7999C26.8998 39.2999 26.7998 39.6999 26.7998 39.8999V53.9999C26.7998 54.1999 26.9998 54.3999 27.1998 54.3999H33.6998C33.8998 54.3999 34.0998 54.1999 34.0998 53.9999V39.5999C33.8998 39.3999 33.6998 39.0999 33.2998 39.4999Z" fill="white"/>
</g>
</g>
</g>
</g>
<defs>
<clipPath id="clip0_3748_15897">
<rect width="60" height="60" fill="white"/>
</clipPath>
<clipPath id="clip1_3748_15897">
<rect width="60" height="60" fill="white"/>
</clipPath>
<clipPath id="clip2_3748_15897">
<rect width="60" height="60" fill="white"/>
</clipPath>
<clipPath id="clip3_3748_15897">
<rect width="60" height="60" fill="white"/>
</clipPath>
</defs>
</svg>
