<svg width="60" height="60" viewBox="0 0 60 60" fill="none" xmlns="http://www.w3.org/2000/svg">
<g clip-path="url(#clip0_3748_15912)">
<g clip-path="url(#clip1_3748_15912)">
<g clip-path="url(#clip2_3748_15912)">
<path d="M60.9 0H0V60H60.9V0Z" fill="#F59C2A"/>
<path d="M4.8002 7.5002C4.7002 7.5002 4.4002 7.7002 3.9002 7.8002C3.4002 8.0002 3.3002 8.1002 3.2002 8.1002V6.5002C3.6002 6.3002 4.0002 6.1002 4.3002 5.9002C4.7002 5.7002 5.0002 5.5002 5.3002 5.2002H7.0002V16.6002H4.8002V7.5002Z" fill="white"/>
<path d="M9.8001 7.5002C9.6001 7.5002 9.3001 7.7002 8.8001 7.8002C8.3001 8.0002 8.2001 8.1002 8.1001 8.1002V6.5002C8.5001 6.3002 8.9001 6.1002 9.3001 5.9002C9.7001 5.7002 10.0001 5.5002 10.3001 5.2002H12.0001V16.6002H9.8001V7.5002Z" fill="white"/>
<path d="M17.0999 9.59961C16.8999 9.59961 16.5999 9.59961 16.3999 9.39961C16.1999 9.39961 16.0999 9.19961 15.9999 8.99961C15.8999 8.79961 15.8999 8.49961 15.8999 8.29961L16.5999 8.19961C16.5999 8.39961 16.5999 8.49961 16.6999 8.69961C16.6999 8.79961 16.7999 8.89961 16.8999 8.99961C16.8999 8.99961 16.9999 8.99961 17.0999 8.99961C17.1999 8.99961 17.2999 8.99961 17.3999 8.89961C17.4999 8.79961 17.4999 8.69961 17.4999 8.59961C17.4999 8.39961 17.4999 8.29961 17.3999 8.09961C17.2999 7.99961 17.1999 7.79961 17.0999 7.69961L16.4999 7.19961C16.1999 7.09961 16.0999 6.99961 15.9999 6.79961C15.8999 6.59961 15.8999 6.39961 15.8999 6.19961C15.8999 5.89961 15.9999 5.59961 16.1999 5.39961C16.3999 5.19961 16.6999 5.09961 16.9999 5.09961C17.1999 5.09961 17.3999 5.09961 17.4999 5.19961C17.5999 5.29961 17.6999 5.39961 17.7999 5.49961C17.8999 5.59961 17.9999 5.69961 17.9999 5.89961C17.9999 5.99961 18.0999 6.19961 18.0999 6.29961L17.3999 6.39961C17.3999 6.29961 17.3999 6.19961 17.3999 5.99961C17.3999 5.89961 17.2999 5.79961 17.2999 5.69961C17.1999 5.59961 17.0999 5.59961 16.9999 5.59961C16.8999 5.59961 16.7999 5.59961 16.6999 5.69961C16.5999 5.79961 16.5999 5.89961 16.5999 5.99961C16.5999 6.09961 16.5999 6.29961 16.6999 6.39961C16.7999 6.49961 16.8999 6.59961 16.9999 6.69961L17.5999 7.19961C17.7999 7.29961 17.8999 7.49961 18.0999 7.69961C18.1999 7.89961 18.2999 8.19961 18.2999 8.39961C18.2999 8.59961 18.2999 8.79961 18.1999 8.99961C18.0999 9.19961 17.9999 9.29961 17.7999 9.39961C17.4999 9.59961 17.2999 9.59961 17.0999 9.59961Z" fill="white"/>
<path d="M19.6999 9.59961C19.3999 9.59961 19.1999 9.59961 18.8999 9.39961C18.6999 9.29961 18.5999 9.09961 18.4999 8.89961C18.3999 8.59961 18.3999 8.39961 18.3999 8.09961V5.09961H19.1999V8.09961C19.1999 8.19961 19.1999 8.39961 19.1999 8.49961C19.1999 8.59961 19.2999 8.69961 19.2999 8.79961C19.3999 8.99961 19.4999 8.99961 19.5999 8.99961C19.6999 8.99961 19.7999 8.99961 19.8999 8.89961C19.9999 8.79961 19.9999 8.69961 19.9999 8.59961C19.9999 8.49961 19.9999 8.29961 19.9999 8.19961V5.19961H20.7999V8.19961C20.7999 8.49961 20.7999 8.69961 20.6999 8.99961C20.5999 9.19961 20.4999 9.39961 20.2999 9.49961C20.1999 9.59961 19.8999 9.59961 19.6999 9.59961Z" fill="white"/>
<path d="M22.5001 9.59961C22.3001 9.59961 22.0001 9.59961 21.8001 9.39961C21.6001 9.29961 21.5001 9.09961 21.4001 8.99961C21.3001 8.79961 21.3001 8.49961 21.3001 8.29961L22.0001 8.19961C22.0001 8.39961 22.0001 8.49961 22.1001 8.69961C22.1001 8.79961 22.2001 8.89961 22.3001 8.99961C22.2001 8.99961 22.3001 8.99961 22.4001 8.99961C22.5001 8.99961 22.6001 8.99961 22.7001 8.89961C22.8001 8.79961 22.8001 8.69961 22.8001 8.59961C22.8001 8.39961 22.8001 8.29961 22.7001 8.09961C22.6001 7.99961 22.5001 7.79961 22.3001 7.69961L21.7001 7.19961C21.5001 7.09961 21.4001 6.89961 21.3001 6.79961C21.2001 6.59961 21.1001 6.39961 21.2001 6.19961C21.2001 5.89961 21.3001 5.59961 21.5001 5.39961C21.7001 5.19961 22.0001 5.09961 22.3001 5.09961C22.5001 5.09961 22.7001 5.09961 22.8001 5.19961C22.9001 5.29961 23.0001 5.29961 23.1001 5.49961C23.2001 5.59961 23.2001 5.79961 23.3001 5.89961C23.3001 5.99961 23.4001 6.19961 23.4001 6.29961L22.7001 6.39961C22.7001 6.29961 22.7001 6.19961 22.7001 5.99961C22.7001 5.89961 22.6001 5.79961 22.6001 5.69961C22.5001 5.59961 22.4001 5.59961 22.3001 5.59961C22.2001 5.59961 22.1001 5.59961 22.0001 5.69961C22.1001 5.89961 22.0001 5.99961 22.0001 6.09961C22.0001 6.19961 22.0001 6.39961 22.1001 6.49961C22.2001 6.59961 22.3001 6.69961 22.4001 6.79961L23.0001 7.29961C23.2001 7.49961 23.3001 7.59961 23.5001 7.79961C23.6001 7.99961 23.7001 8.29961 23.7001 8.49961C23.7001 8.69961 23.7001 8.89961 23.6001 9.09961C23.5001 9.29961 23.4001 9.39961 23.2001 9.49961C22.9001 9.59961 22.7001 9.59961 22.5001 9.59961Z" fill="white"/>
<path d="M24.3001 9.6002V5.8002H23.6001V5.2002H25.8001V5.8002H25.1001V9.6002H24.3001Z" fill="white"/>
<path d="M25.6001 9.6002L26.5001 5.2002H27.4001L28.3001 9.6002H27.6001L27.4001 8.6002H26.6001L26.4001 9.6002H25.6001ZM26.6001 8.1002H27.2001L26.9001 6.3002L26.6001 8.1002Z" fill="white"/>
<path d="M28.5 9.6002V5.2002H29.3V9.6002H28.5Z" fill="white"/>
<path d="M29.7002 9.6002V5.2002H30.3002L31.4002 7.6002V5.2002H32.0002V9.6002H31.5002L30.4002 7.0002V9.6002H29.7002Z" fill="white"/>
<path d="M32.2998 9.6002L33.1998 5.2002H33.9998L34.8998 9.6002H34.0998L33.8998 8.6002H33.0998L32.8998 9.6002H32.2998ZM33.2998 8.1002H33.8998L33.5998 6.3002L33.2998 8.1002Z" fill="white"/>
<path d="M35.1001 9.6002V5.2002H36.2001C36.4001 5.2002 36.6001 5.2002 36.7001 5.2002C36.8001 5.2002 37.0001 5.3002 37.1001 5.4002C37.2001 5.5002 37.3001 5.6002 37.4001 5.7002C37.5001 5.9002 37.5001 6.1002 37.5001 6.3002C37.5001 6.5002 37.5001 6.6002 37.4001 6.8002C37.4001 6.9002 37.3001 7.0002 37.2001 7.1002C37.1001 7.2002 37.0001 7.2002 36.8001 7.2002C37.1001 7.2002 37.4001 7.4002 37.5001 7.7002C37.6001 7.9002 37.6001 8.1002 37.6001 8.2002C37.6001 8.4002 37.6001 8.6002 37.5001 8.8002C37.4001 9.1002 37.2001 9.3002 36.9001 9.4002C36.7001 9.5002 36.5001 9.5002 36.3001 9.5002L35.1001 9.6002ZM35.9001 7.0002H36.2001C36.3001 7.0002 36.5001 7.0002 36.6001 6.9002C36.7001 6.9002 36.7001 6.8002 36.8001 6.7002C36.8001 6.6002 36.9001 6.5002 36.9001 6.3002C36.9001 6.2002 36.9001 6.0002 36.8001 5.9002C36.7001 5.8002 36.7001 5.7002 36.6001 5.7002C36.5001 5.7002 36.3001 5.6002 36.2001 5.7002H36.0001V7.0002H35.9001ZM35.9001 9.1002H36.2001C36.4001 9.1002 36.6001 9.1002 36.7001 8.9002C36.8001 8.7002 36.8001 8.5002 36.8001 8.4002C36.8001 8.3002 36.8001 8.1002 36.7001 8.0002C36.7001 7.9002 36.6001 7.8002 36.5001 7.8002C36.4001 7.7002 36.2001 7.7002 36.1001 7.7002H36.0001L35.9001 9.1002Z" fill="white"/>
<path d="M38 9.6002V5.2002H38.8V9.0002H39.9V9.6002H38Z" fill="white"/>
<path d="M40 9.6002V5.2002H41.9V5.7002H40.8V7.0002H41.6V7.6002H40.8V9.0002H41.9V9.6002H40Z" fill="white"/>
<path d="M44.4001 9.59961C44.1001 9.59961 43.9001 9.59961 43.6001 9.39961C43.4001 9.29961 43.3001 9.09961 43.2001 8.89961C43.1001 8.69961 43.1001 8.39961 43.1001 8.09961V6.59961C43.1001 6.29961 43.1001 6.09961 43.2001 5.79961C43.3001 5.59961 43.4001 5.39961 43.6001 5.29961C43.8001 5.19961 44.1001 5.09961 44.4001 5.09961C44.6001 5.09961 44.9001 5.09961 45.1001 5.19961C45.3001 5.29961 45.4001 5.49961 45.5001 5.59961C45.6001 5.79961 45.6001 5.99961 45.6001 6.29961V6.69961H44.8001V6.39961C44.8001 6.29961 44.8001 6.19961 44.8001 6.09961C44.8001 5.99961 44.8001 5.89961 44.7001 5.89961C44.6001 5.79961 44.5001 5.79961 44.4001 5.79961C44.3001 5.79961 44.2001 5.79961 44.1001 5.89961C44.1001 5.89961 44.1001 5.99961 44.0001 6.09961C44.0001 6.19961 44.0001 6.29961 44.0001 6.49961V8.39961C44.0001 8.49961 44.0001 8.69961 44.0001 8.79961C44.0001 8.89961 44.1001 8.99961 44.1001 8.99961C44.2001 9.09961 44.3001 9.09961 44.4001 9.09961C44.5001 9.09961 44.6001 9.09961 44.7001 8.99961C44.8001 8.89961 44.8001 8.79961 44.8001 8.79961C44.8001 8.69961 44.8001 8.59961 44.8001 8.39961V7.99961H45.6001V8.39961C45.6001 8.59961 45.6001 8.89961 45.5001 9.09961C45.4001 9.29961 45.3001 9.49961 45.1001 9.59961C44.9001 9.59961 44.7001 9.59961 44.4001 9.59961Z" fill="white"/>
<path d="M46 9.6002V5.2002H46.8V9.6002H46Z" fill="white"/>
<path d="M47.7 9.6002V5.8002H47V5.2002H49.2V5.8002H48.5V9.6002H47.7Z" fill="white"/>
<path d="M49.3999 9.6002V5.2002H50.1999V9.6002H49.3999Z" fill="white"/>
<path d="M50.7002 9.6002V5.2002H52.6002V5.7002H51.5002V7.0002H52.3002V7.6002H51.5002V9.0002H52.6002V9.6002H50.7002Z" fill="white"/>
<path d="M54.0002 9.59961C53.8002 9.59961 53.5002 9.59961 53.3002 9.39961C53.1002 9.39961 53.0002 9.19961 52.9002 8.99961C52.8002 8.79961 52.8002 8.49961 52.7002 8.29961L53.4002 8.19961C53.4002 8.39961 53.4002 8.49961 53.5002 8.69961C53.5002 8.79961 53.6002 8.89961 53.7002 8.99961C53.7002 8.99961 53.8002 8.99961 53.9002 8.99961C54.0002 8.99961 54.1002 8.99961 54.2002 8.89961C54.3002 8.79961 54.3002 8.69961 54.3002 8.59961C54.3002 8.39961 54.3002 8.29961 54.2002 8.09961C54.0002 7.99961 53.9002 7.89961 53.8002 7.69961L53.2002 7.19961C53.1002 7.09961 53.0002 6.99961 52.9002 6.79961C52.8002 6.59961 52.8002 6.39961 52.8002 6.19961C52.8002 5.89961 52.9002 5.59961 53.1002 5.39961C53.3002 5.19961 53.6002 5.09961 53.9002 5.09961C54.1002 5.09961 54.3002 5.09961 54.4002 5.19961C54.5002 5.29961 54.6002 5.39961 54.7002 5.49961C54.8002 5.59961 54.8002 5.69961 54.9002 5.89961C54.9002 5.99961 55.0002 6.19961 55.0002 6.29961L54.3002 6.39961C54.3002 6.29961 54.3002 6.19961 54.3002 5.99961C54.3002 5.89961 54.2002 5.79961 54.2002 5.69961C54.1002 5.59961 54.0002 5.59961 53.9002 5.59961C53.8002 5.59961 53.7002 5.59961 53.6002 5.69961C53.5002 5.79961 53.5002 5.89961 53.5002 5.99961C53.5002 6.09961 53.5002 6.29961 53.6002 6.39961C53.7002 6.49961 53.8002 6.59961 53.9002 6.69961L54.5002 7.19961C54.7002 7.29961 54.8002 7.49961 55.0002 7.69961C55.0002 7.99961 55.1002 8.29961 55.1002 8.49961C55.1002 8.69961 55.1002 8.89961 55.0002 9.09961C54.9002 9.29961 54.8002 9.39961 54.6002 9.49961C54.4002 9.59961 54.2002 9.59961 54.0002 9.59961Z" fill="white"/>
<path d="M15.7002 16.6998L16.6002 12.2998H17.5002L18.4002 16.6998H17.6002L17.4002 15.6998H16.6002L16.4002 16.6998H15.7002ZM16.7002 15.1998H17.3002L17.0002 13.3998L16.7002 15.1998Z" fill="white"/>
<path d="M18.6001 16.6998V12.2998H19.2001L20.3001 14.7998V12.2998H21.0001V16.6998H20.5001L19.4001 14.0998V16.6998H18.6001Z" fill="white"/>
<path d="M21.3999 16.6998V12.2998H22.3999C22.6999 12.2998 22.9999 12.2998 23.2999 12.3998C23.4999 12.4998 23.5999 12.5998 23.6999 12.7998C23.7999 12.9998 23.7999 13.2998 23.7999 13.5998V15.1998C23.7999 15.4998 23.7999 15.6998 23.6999 15.9998C23.5999 16.1998 23.4999 16.3998 23.2999 16.4998C22.9999 16.5998 22.7999 16.6998 22.4999 16.6998H21.3999ZM22.1999 16.1998H22.3999C22.4999 16.1998 22.6999 16.1998 22.7999 16.0998C22.8999 15.9998 22.8999 15.8998 22.8999 15.7998C22.8999 15.5998 22.8999 15.4998 22.8999 15.2998V13.5998C22.8999 13.4998 22.8999 13.2998 22.8999 13.1998C22.8999 13.0998 22.7999 12.9998 22.6999 12.9998C22.5999 12.8998 22.3999 12.8998 22.2999 12.8998H22.0999L22.1999 16.1998Z" fill="white"/>
<path d="M26.4001 16.8002C26.1001 16.8002 25.9001 16.8002 25.6001 16.6002C25.4001 16.5002 25.3001 16.3002 25.2001 16.1002C25.1001 15.9002 25.1001 15.6002 25.1001 15.3002V13.7002C25.1001 13.4002 25.1001 13.2002 25.2001 12.9002C25.3001 12.7002 25.4001 12.5002 25.6001 12.4002C25.8001 12.3002 26.1001 12.2002 26.4001 12.2002C26.7001 12.2002 26.9001 12.2002 27.1001 12.3002C27.3001 12.4002 27.4001 12.6002 27.5001 12.7002C27.6001 12.9002 27.6001 13.1002 27.6001 13.4002V13.8002H26.8001V13.4002C26.8001 13.3002 26.8001 13.2002 26.8001 13.1002C26.8001 13.0002 26.8001 12.9002 26.7001 12.9002C26.6001 12.8002 26.5001 12.8002 26.4001 12.8002C26.3001 12.8002 26.2001 12.8002 26.1001 12.9002C26.0001 13.0002 26.0001 13.1002 26.0001 13.2002C26.0001 13.3002 26.0001 13.4002 26.0001 13.6002V15.5002C26.0001 15.6002 26.0001 15.8002 26.0001 15.9002C26.0001 16.0002 26.1001 16.1002 26.1001 16.1002C26.2001 16.2002 26.3001 16.2002 26.4001 16.2002C26.5001 16.2002 26.6001 16.2002 26.7001 16.1002C26.8001 16.0002 26.8001 15.9002 26.8001 15.8002C26.8001 15.7002 26.8001 15.6002 26.8001 15.5002V15.1002H27.6001V15.5002C27.6001 15.7002 27.6001 16.0002 27.5001 16.2002C27.4001 16.4002 27.3001 16.6002 27.1001 16.7002C27.0001 16.8002 26.7001 16.8002 26.4001 16.8002Z" fill="white"/>
<path d="M29.2 16.7998C28.9 16.7998 28.7 16.7998 28.5 16.5998C28.3 16.4998 28.2 16.2998 28.1 16.0998C28 15.8998 28 15.5998 28 15.3998V13.7998C28 13.4998 28 13.2998 28.1 12.9998C28.2 12.7998 28.3 12.5998 28.5 12.4998C28.7 12.3998 29 12.2998 29.2 12.2998C29.5 12.2998 29.7 12.2998 30 12.4998C30.2 12.5998 30.3 12.7998 30.4 12.9998C30.5 13.1998 30.5 13.4998 30.5 13.7998V15.4998C30.5 15.7998 30.5 15.9998 30.4 16.2998C30.3 16.4998 30.2 16.6998 30 16.7998C29.8 16.7998 29.5 16.7998 29.2 16.7998ZM29.2 16.1998C29.3 16.1998 29.4 16.1998 29.5 16.0998C29.6 15.9998 29.6 15.9998 29.6 15.8998C29.6 15.7998 29.6 15.6998 29.6 15.5998V13.5998C29.6 13.4998 29.6 13.3998 29.6 13.2998C29.6 13.1998 29.5 13.0998 29.5 13.0998C29.4 12.9998 29.3 12.9998 29.2 12.9998C29.1 12.9998 29 12.9998 28.9 13.0998C28.8 13.1998 28.8 13.1998 28.8 13.2998C28.8 13.3998 28.8 13.4998 28.8 13.5998V15.5998C28.8 15.6998 28.8 15.7998 28.8 15.8998C28.8 15.9998 28.9 16.0998 28.9 16.0998C29 16.1998 29.1 16.1998 29.2 16.1998Z" fill="white"/>
<path d="M30.8999 16.6998L30.9999 12.2998H31.7999L32.3999 15.2998L33.0999 12.2998H33.8999L33.9999 16.6998H33.3999L33.2999 13.6998L32.6999 16.6998H32.1999L31.5999 13.5998L31.4999 16.6998H30.8999Z" fill="white"/>
<path d="M34.3999 16.6998L34.4999 12.2998H35.2999L35.8999 15.2998L36.5999 12.2998H37.3999L37.4999 16.6998H36.8999L36.7999 13.6998L36.1999 16.6998H35.6999L34.9999 13.6998V16.6998H34.3999Z" fill="white"/>
<path d="M39.0998 16.7998C38.7998 16.7998 38.5998 16.7998 38.2998 16.5998C38.0998 16.4998 37.9998 16.2998 37.8998 16.0998C37.7998 15.7998 37.7998 15.5998 37.7998 15.2998V12.2998H38.5998V15.2998C38.5998 15.3998 38.5998 15.5998 38.5998 15.6998C38.5998 15.7998 38.6998 15.8998 38.6998 15.9998C38.7998 16.0998 38.8998 16.0998 38.9998 16.0998C39.0998 16.0998 39.1998 16.0998 39.2998 15.9998C39.3998 15.8998 39.3998 15.7998 39.3998 15.6998C39.3998 15.5998 39.3998 15.3998 39.3998 15.2998V12.2998H40.1998V15.2998C40.1998 15.5998 40.1998 15.7998 40.0998 16.0998C39.9998 16.2998 39.8998 16.4998 39.6998 16.5998C39.5998 16.6998 39.3998 16.7998 39.0998 16.7998Z" fill="white"/>
<path d="M40.7998 16.6998V12.2998H41.3998L42.4998 14.7998V12.2998H43.1998V16.6998H42.6998L41.5998 14.0998V16.6998H40.7998Z" fill="white"/>
<path d="M43.6001 16.6998V12.2998H44.4001V16.6998H43.6001Z" fill="white"/>
<path d="M45.3001 16.6998V12.8998H44.6001V12.2998H46.8001V12.8998H46.1001V16.6998H45.3001Z" fill="white"/>
<path d="M47 16.6998V12.2998H47.8V16.6998H47Z" fill="white"/>
<path d="M48.2998 16.6998V12.2998H50.1998V12.8998H49.0998V14.1998H49.8998V14.7998H49.0998V16.1998H50.1998V16.7998L48.2998 16.6998Z" fill="white"/>
<path d="M51.5002 16.8004C51.3002 16.8004 51.0002 16.8004 50.8002 16.6004C50.6002 16.5004 50.5002 16.3004 50.4002 16.2004C50.3002 16.0004 50.2002 15.7004 50.2002 15.5004L50.9002 15.4004C50.9002 15.6004 50.9002 15.7004 51.0002 15.9004C51.0002 16.0004 51.1002 16.1004 51.2002 16.2004C51.3002 16.3004 51.4002 16.3004 51.5002 16.3004C51.6002 16.3004 51.7002 16.3004 51.8002 16.2004C51.9002 16.1004 51.9002 16.0004 51.9002 15.9004C51.9002 15.7004 51.9002 15.6004 51.8002 15.4004C51.7002 15.3004 51.6002 15.1004 51.4002 15.0004L50.8002 14.5004C50.7002 14.4004 50.5002 14.2004 50.4002 14.1004C50.3002 13.9004 50.3002 13.7004 50.3002 13.5004C50.3002 13.2004 50.4002 12.9004 50.6002 12.7004C50.8002 12.5004 51.1002 12.4004 51.4002 12.4004C51.6002 12.4004 51.8002 12.4004 51.9002 12.5004C52.0002 12.6004 52.1002 12.6004 52.2002 12.8004C52.3002 12.9004 52.4002 13.0004 52.4002 13.2004C52.4002 13.3004 52.5002 13.5004 52.5002 13.6004L51.8002 13.7004C51.8002 13.6004 51.8002 13.5004 51.8002 13.3004C51.8002 13.2004 51.7002 13.1004 51.7002 13.0004C51.6002 12.9004 51.5002 12.9004 51.4002 12.9004C51.3002 12.9004 51.2002 12.9004 51.1002 13.0004C51.0002 13.1004 51.0002 13.2004 51.0002 13.3004C51.0002 13.4004 51.0002 13.6004 51.1002 13.7004C51.2002 13.8004 51.3002 13.9004 51.4002 14.0004L52.0002 14.5004C52.2002 14.6004 52.3002 14.8004 52.5002 15.0004C52.6002 15.2004 52.7002 15.5004 52.7002 15.7004C52.7002 15.9004 52.7002 16.1004 52.6002 16.3004C52.5002 16.5004 52.4002 16.6004 52.2002 16.7004C51.9002 16.7004 51.7002 16.8004 51.5002 16.8004Z" fill="white"/>
<path d="M9.9001 45.7H19.1001C19.2001 45.7 19.3001 45.6 19.3001 45.5C19.3001 45.4 19.3001 45.4 19.2001 45.4L14.6001 39.6C14.6001 39.6 14.5001 39.5 14.4001 39.5C14.3001 39.5 14.3001 39.5 14.2001 39.5L9.7001 45.3H9.6001V45.4C9.7001 45.6 9.8001 45.7 9.9001 45.7Z" fill="white"/>
<path d="M19.1002 46.5996H9.9002C9.8002 46.5996 9.7002 46.6996 9.7002 46.7996V53.8996C9.7002 53.9996 9.8002 54.0996 9.9002 54.0996H12.8002V49.5996C12.8002 49.4996 12.9002 49.3996 13.0002 49.3996H15.8002C15.9002 49.3996 16.0002 49.4996 16.0002 49.5996V54.0996H19.0002C19.1002 54.0996 19.2002 53.9996 19.2002 53.8996V46.7996C19.3002 46.6996 19.2002 46.5996 19.1002 46.5996Z" fill="white"/>
<path d="M51.0002 44.7002H41.9002C41.8002 44.7002 41.7002 44.8002 41.7002 44.9002V54.0002C41.7002 54.1002 41.8002 54.2002 41.9002 54.2002H51.0002C51.1002 54.2002 51.2002 54.1002 51.2002 54.0002V44.9002C51.2002 44.8002 51.1002 44.7002 51.0002 44.7002ZM46.0002 50.6002C46.0002 50.7002 45.9002 50.8002 45.8002 50.8002H43.0002C42.9002 50.8002 42.8002 50.7002 42.8002 50.6002V49.0002C42.8002 48.9002 42.9002 48.8002 43.0002 48.8002H45.7002C45.8002 48.8002 45.9002 48.9002 45.9002 49.0002L46.0002 50.6002ZM46.0002 47.6002C46.0002 47.7002 45.9002 47.8002 45.8002 47.8002H43.0002C42.9002 47.8002 42.8002 47.7002 42.8002 47.6002V46.0002C42.8002 45.9002 42.9002 45.8002 43.0002 45.8002H45.7002C45.8002 45.8002 45.9002 45.9002 45.9002 46.0002L46.0002 47.6002ZM50.2002 50.6002C50.2002 50.7002 50.1002 50.8002 50.0002 50.8002H47.3002C47.2002 50.8002 47.1002 50.7002 47.1002 50.6002V49.0002C47.1002 48.9002 47.2002 48.8002 47.3002 48.8002H50.0002C50.1002 48.8002 50.2002 48.9002 50.2002 49.0002V50.6002ZM50.2002 47.6002C50.2002 47.7002 50.1002 47.8002 50.0002 47.8002H47.3002C47.2002 47.8002 47.1002 47.7002 47.1002 47.6002V46.0002C47.1002 45.9002 47.2002 45.8002 47.3002 45.8002H50.0002C50.1002 45.8002 50.2002 45.9002 50.2002 46.0002V47.6002Z" fill="white"/>
<path d="M29.8002 23.5996H20.9002C20.8002 23.5996 20.7002 23.6996 20.7002 23.7996V53.8996C20.7002 53.9996 20.8002 54.0996 20.9002 54.0996H29.8002C29.9002 54.0996 30.0002 53.9996 30.0002 53.8996V23.8996C30.0002 23.6996 29.9002 23.5996 29.8002 23.5996ZM24.4002 50.6996C24.4002 50.7996 24.3002 50.7996 24.3002 50.7996H22.3002C22.2002 50.7996 22.2002 50.6996 22.2002 50.6996V48.3996C22.2002 48.2996 22.2002 48.2996 22.3002 48.2996H24.3002C24.4002 48.2996 24.4002 48.2996 24.4002 48.3996V50.6996ZM24.4002 45.4996C24.4002 45.5996 24.3002 45.5996 24.3002 45.5996H22.3002C22.2002 45.5996 22.2002 45.4996 22.2002 45.4996V43.2996C22.2002 43.1996 22.3002 43.1996 22.3002 43.1996H24.3002C24.4002 43.1996 24.4002 43.2996 24.4002 43.2996V45.4996ZM24.4002 40.3996C24.4002 40.4996 24.3002 40.4996 24.3002 40.4996H22.3002C22.2002 40.4996 22.2002 40.3996 22.2002 40.3996V38.1996C22.2002 38.0996 22.3002 38.0996 22.3002 38.0996H24.3002C24.4002 38.0996 24.4002 38.1996 24.4002 38.1996V40.3996ZM24.4002 35.1996C24.4002 35.2996 24.3002 35.2996 24.3002 35.2996H22.3002C22.2002 35.2996 22.2002 35.1996 22.2002 35.1996V32.9996C22.2002 32.8996 22.3002 32.8996 22.3002 32.8996H24.3002C24.4002 32.8996 24.4002 32.9996 24.4002 32.9996V35.1996ZM24.4002 30.0996C24.4002 30.1996 24.3002 30.1996 24.3002 30.1996H22.3002C22.2002 30.1996 22.2002 30.0996 22.2002 30.0996V27.7996C22.2002 27.6996 22.3002 27.6996 22.3002 27.6996H24.3002C24.4002 27.6996 24.4002 27.7996 24.4002 27.7996V30.0996ZM28.5002 50.6996C28.5002 50.7996 28.4002 50.7996 28.4002 50.7996H26.4002C26.3002 50.7996 26.3002 50.6996 26.3002 50.6996V48.3996C26.3002 48.2996 26.3002 48.2996 26.4002 48.2996H28.4002C28.5002 48.2996 28.5002 48.2996 28.5002 48.3996V50.6996ZM28.5002 45.4996C28.5002 45.5996 28.4002 45.5996 28.4002 45.5996H26.4002C26.3002 45.5996 26.3002 45.4996 26.3002 45.4996V43.2996C26.3002 43.1996 26.4002 43.1996 26.4002 43.1996H28.4002C28.5002 43.1996 28.5002 43.2996 28.5002 43.2996V45.4996ZM28.5002 40.3996C28.5002 40.4996 28.4002 40.4996 28.4002 40.4996H26.4002C26.3002 40.4996 26.3002 40.3996 26.3002 40.3996V38.1996C26.3002 38.0996 26.4002 38.0996 26.4002 38.0996H28.4002C28.5002 38.0996 28.5002 38.1996 28.5002 38.1996V40.3996ZM28.5002 35.1996C28.5002 35.2996 28.4002 35.2996 28.4002 35.2996H26.4002C26.3002 35.2996 26.3002 35.1996 26.3002 35.1996V32.9996C26.3002 32.8996 26.4002 32.8996 26.4002 32.8996H28.4002C28.5002 32.8996 28.5002 32.9996 28.5002 32.9996V35.1996ZM28.5002 30.0996C28.5002 30.1996 28.4002 30.1996 28.4002 30.1996H26.4002C26.3002 30.1996 26.3002 30.0996 26.3002 30.0996V27.7996C26.3002 27.6996 26.4002 27.6996 26.4002 27.6996H28.4002C28.5002 27.6996 28.5002 27.7996 28.5002 27.7996V30.0996Z" fill="white"/>
<path d="M41.8001 41.7998H51.0001C51.1001 41.7998 51.2001 41.8998 51.2001 41.9998V43.7998C51.2001 43.8998 51.1001 43.9998 51.0001 43.9998H41.8001C41.7001 43.9998 41.6001 43.8998 41.6001 43.7998V41.9998C41.7001 41.8998 41.7001 41.7998 41.8001 41.7998Z" fill="white"/>
<path d="M40.5998 29.2996C40.5998 29.1996 40.4998 29.0996 40.3998 29.0996H40.2998L40.1998 29.1996L31.3998 40.1996C31.3998 40.1996 31.2998 40.2996 31.2998 40.3996V53.8996C31.2998 53.9996 31.3998 54.0996 31.4998 54.0996H40.3998C40.4998 54.0996 40.5998 53.9996 40.5998 53.8996V29.2996ZM36.8998 35.2996C37.5998 34.4996 38.5998 33.1996 39.0998 32.5996L39.1998 32.4996C39.1998 32.3996 39.2998 32.3996 39.3998 32.3996C39.4998 32.3996 39.5998 32.4996 39.5998 32.5996V35.3996C39.5998 35.4996 39.4998 35.5996 39.3998 35.6996H37.1998C37.0998 35.6996 36.9998 35.5996 36.9998 35.3996C36.7998 35.3996 36.7998 35.2996 36.8998 35.2996ZM35.4998 50.5996C35.4998 50.6996 35.3998 50.7996 35.2998 50.7996H32.5998C32.4998 50.7996 32.3998 50.6996 32.3998 50.5996V48.9996C32.3998 48.8996 32.4998 48.7996 32.5998 48.7996H35.2998C35.3998 48.7996 35.4998 48.8996 35.4998 48.9996V50.5996ZM35.4998 47.5996C35.4998 47.6996 35.3998 47.7996 35.2998 47.7996H32.5998C32.4998 47.7996 32.3998 47.6996 32.3998 47.5996V45.9996C32.3998 45.8996 32.4998 45.7996 32.5998 45.7996H35.2998C35.3998 45.7996 35.4998 45.8996 35.4998 45.9996V47.5996ZM35.4998 44.5996C35.4998 44.6996 35.3998 44.7996 35.2998 44.7996H32.5998C32.4998 44.7996 32.3998 44.6996 32.3998 44.5996V42.9996C32.3998 42.8996 32.4998 42.7996 32.5998 42.7996H35.2998C35.3998 42.7996 35.4998 42.8996 35.4998 42.9996V44.5996ZM35.4998 37.8996V41.4996C35.4998 41.5996 35.3998 41.6996 35.2998 41.6996H32.5998C32.4998 41.6996 32.3998 41.5996 32.2998 41.4996V40.9996V40.8996C32.5998 40.3996 34.1998 38.5996 34.7998 37.7996L34.8998 37.6996C34.9998 37.5996 35.0998 37.5996 35.1998 37.6996L35.2998 37.7996L35.4998 37.8996ZM39.4998 50.5996C39.4998 50.6996 39.3998 50.7996 39.2998 50.7996H36.5998C36.4998 50.7996 36.3998 50.6996 36.3998 50.5996V48.9996C36.3998 48.8996 36.4998 48.7996 36.5998 48.7996H39.2998C39.3998 48.7996 39.4998 48.8996 39.4998 48.9996V50.5996ZM39.4998 47.5996C39.4998 47.6996 39.3998 47.7996 39.2998 47.7996H36.5998C36.4998 47.7996 36.3998 47.6996 36.3998 47.5996V45.9996C36.3998 45.8996 36.4998 45.7996 36.5998 45.7996H39.2998C39.3998 45.7996 39.4998 45.8996 39.4998 45.9996V47.5996ZM39.4998 44.5996C39.4998 44.6996 39.3998 44.7996 39.2998 44.7996H36.5998C36.4998 44.7996 36.3998 44.6996 36.3998 44.5996V42.9996C36.3998 42.8996 36.4998 42.7996 36.5998 42.7996H39.2998C39.3998 42.7996 39.4998 42.8996 39.4998 42.9996V44.5996ZM39.4998 41.4996C39.4998 41.5996 39.3998 41.6996 39.2998 41.6996H36.5998C36.4998 41.6996 36.3998 41.5996 36.3998 41.4996V39.8996C36.3998 39.7996 36.4998 39.6996 36.5998 39.6996H39.2998C39.3998 39.6996 39.4998 39.7996 39.4998 39.8996V41.4996ZM39.4998 38.4996C39.4998 38.5996 39.3998 38.6996 39.2998 38.6996H36.5998C36.4998 38.6996 36.3998 38.5996 36.3998 38.4996V36.8996C36.3998 36.7996 36.4998 36.6996 36.5998 36.6996H39.2998C39.3998 36.6996 39.4998 36.7996 39.4998 36.8996V38.4996Z" fill="white"/>
</g>
</g>
</g>
<defs>
<clipPath id="clip0_3748_15912">
<rect width="60" height="60" fill="white"/>
</clipPath>
<clipPath id="clip1_3748_15912">
<rect width="60" height="60" fill="white"/>
</clipPath>
<clipPath id="clip2_3748_15912">
<rect width="60" height="60" fill="white"/>
</clipPath>
</defs>
</svg>
