<svg width="60" height="60" viewBox="0 0 60 60" fill="none" xmlns="http://www.w3.org/2000/svg">
<g clip-path="url(#clip0_3750_17501)">
<g clip-path="url(#clip1_3750_17501)">
<path d="M61 0H0V60H61V0Z" fill="#45AD4B"/>
<path d="M4.7 7.5002C4.6 7.5002 4.3 7.7002 3.8 7.8002C3.3 8.0002 3.1 8.1002 3 8.1002V6.5002C3.4 6.3002 3.8 6.1002 4.2 5.9002C4.6 5.7002 4.9 5.5002 5.2 5.2002H6.9V16.6002H4.7V7.5002Z" fill="white"/>
<path d="M9.39997 16.4C8.99997 16.1 8.59997 15.7 8.49997 15.2C8.29997 14.6 8.19997 13.9 8.29997 13.3H10.5C10.5 13.8 10.5 14.3 10.7 14.7C10.9 15.1 11.4 15.3 11.8 15C11.9 15 12 14.9 12 14.8C12.1 14.6 12.2 14.3 12.2 14C12.2 13.5 12.3 13.1 12.2 12.6C12.2 12.1 12.2 11.5 12 11C11.9 10.7 11.6 10.4 11.2 10.5C10.7 10.5 10.3 10.8 10.2 11.5H8.29997L8.49997 5H13.9V6.9H10.4L10.3 9.4C10.5 9.2 10.7 9.1 11 9C11.2 9.1 11.6 9 11.9 9C12.6 9 13.3 9.3 13.7 10C14.1 10.8 14.4 11.7 14.3 12.7C14.3 13.5 14.2 14.2 14.1 15C14 15.6 13.6 16.1 13.2 16.4C12.6 16.8 11.9 17 11.2 16.9C10.6 16.9 9.89997 16.7 9.39997 16.4Z" fill="white"/>
<path d="M19 9.6002V5.2002H19.8V9.1002H20.9V9.7002L19 9.6002Z" fill="white"/>
<path d="M21.1001 9.6002V5.2002H21.9001V9.6002H21.1001Z" fill="white"/>
<path d="M22.5 9.6002V5.2002H24.3V5.8002H23.3V7.0002H24.1V7.6002H23.3V9.6002H22.5Z" fill="white"/>
<path d="M24.5 9.6002V5.2002H26.4V5.8002H25.3V7.0002H26.1V7.6002H25.3V9.0002H26.4V9.6002H24.5Z" fill="white"/>
<path d="M20.1999 16.8002C19.8999 16.8002 19.6999 16.8002 19.3999 16.6002C19.1999 16.5002 19.0999 16.3002 18.9999 16.1002C18.8999 15.9002 18.8999 15.6002 18.8999 15.3002V13.7002C18.8999 13.4002 18.8999 13.2002 18.9999 12.9002C19.0999 12.7002 19.1999 12.5002 19.3999 12.4002C19.5999 12.3002 19.8999 12.2002 20.1999 12.2002C20.4999 12.2002 20.6999 12.2002 20.9999 12.4002C21.1999 12.5002 21.2999 12.7002 21.3999 12.9002C21.4999 13.1002 21.4999 13.4002 21.4999 13.7002V15.3002C21.4999 15.6002 21.4999 15.8002 21.3999 16.1002C21.2999 16.3002 21.1999 16.5002 20.9999 16.6002C20.6999 16.7002 20.3999 16.8002 20.1999 16.8002ZM20.1999 16.2002C20.2999 16.2002 20.3999 16.2002 20.4999 16.1002C20.5999 16.0002 20.5999 16.0002 20.5999 15.9002C20.5999 15.8002 20.5999 15.7002 20.5999 15.6002V13.6002C20.5999 13.5002 20.5999 13.4002 20.5999 13.3002C20.5999 13.2002 20.4999 13.1002 20.4999 13.1002C20.3999 13.0002 20.2999 13.0002 20.1999 13.0002C20.0999 13.0002 19.9999 13.0002 19.8999 13.1002C19.7999 13.2002 19.7999 13.2002 19.7999 13.3002C19.7999 13.4002 19.7999 13.5002 19.7999 13.6002V15.6002C19.7999 15.7002 19.7999 15.8002 19.7999 15.9002C19.7999 16.0002 19.8999 16.1002 19.8999 16.1002C19.9999 16.2002 20.0999 16.2002 20.1999 16.2002Z" fill="white"/>
<path d="M21.8999 16.6998V12.2998H22.4999L23.5999 14.7998V12.2998H24.2999V16.6998H23.7999L22.6999 14.0998V16.6998H21.8999Z" fill="white"/>
<path d="M25.8999 16.6998V12.2998H26.6999V16.1998H27.7999V16.7998L25.8999 16.6998Z" fill="white"/>
<path d="M27.7998 16.6998L28.6998 12.2998H29.5998L30.4998 16.6998H29.7998L29.5998 15.6998H28.7998L28.5998 16.6998H27.7998ZM28.7998 15.1998H29.3998L29.0998 13.3998L28.7998 15.1998Z" fill="white"/>
<path d="M30.7002 16.6998V12.2998H31.3002L32.4002 14.7998V12.2998H33.0002V16.6998H32.5002L31.4002 14.0998V16.6998H30.7002Z" fill="white"/>
<path d="M33.5 16.6998V12.2998H34.6C34.9 12.2998 35.2 12.2998 35.4 12.3998C35.6 12.4998 35.8 12.6998 35.8 12.8998C35.9 13.0998 35.9 13.3998 35.9 13.6998V15.2998C35.9 15.5998 35.9 15.7998 35.8 16.0998C35.7 16.2998 35.6 16.4998 35.4 16.5998C35.1 16.6998 34.9 16.7998 34.6 16.7998H33.5V16.6998ZM34.4 16.1998H34.6C34.7 16.1998 34.9 16.1998 35 16.0998C35.1 15.9998 35.1 15.8998 35.1 15.7998C35.1 15.5998 35.1 15.4998 35.1 15.2998V13.5998C35.1 13.4998 35.1 13.2998 35.1 13.1998C35.1 13.0998 35 12.9998 34.9 12.9998C34.8 12.8998 34.6 12.8998 34.5 12.8998H34.3L34.4 16.1998Z" fill="white"/>
<path d="M22.8998 40.5996H24.6998C24.7998 40.5996 24.7998 40.6996 24.7998 40.6996V45.0996C24.7998 45.1996 24.6998 45.1996 24.6998 45.1996H22.8998C22.7998 45.1996 22.7998 45.0996 22.7998 45.0996V40.6996L22.8998 40.5996Z" fill="white"/>
<path d="M44.6002 47.2002H14.8002C14.7002 47.2002 14.7002 47.3002 14.7002 47.3002V49.1002C14.7002 49.2002 14.8002 49.2002 14.8002 49.2002H44.5002C44.6002 49.2002 44.6002 49.1002 44.6002 49.1002V47.3002C44.7002 47.2002 44.6002 47.2002 44.6002 47.2002Z" fill="white"/>
<path d="M44.6002 50.7002H14.8002C14.7002 50.7002 14.7002 50.8002 14.7002 50.8002V52.6002C14.7002 52.7002 14.8002 52.7002 14.8002 52.7002H44.5002C44.6002 52.7002 44.6002 52.6002 44.6002 52.6002V50.8002C44.7002 50.8002 44.6002 50.7002 44.6002 50.7002Z" fill="white"/>
<path d="M38.8998 35.7998C38.1998 35.1998 37.2998 34.8998 36.2998 34.7998C35.3998 34.7998 34.4998 35.0998 33.8998 35.7998C33.7998 35.7998 33.7998 35.8998 33.7998 35.9998V36.1998C33.7998 36.2998 33.7998 36.3998 33.8998 36.3998C33.9998 36.3998 33.9998 36.4998 34.0998 36.3998H34.1998C34.2998 36.3998 34.2998 36.2998 34.2998 36.2998C34.6998 36.0998 35.0998 35.9998 35.4998 36.0998C36.5998 36.0998 37.6998 36.5998 38.5998 37.3998C38.6998 37.4998 38.7998 37.4998 38.8998 37.4998C38.9998 37.4998 39.0998 37.4998 39.0998 37.3998C39.8998 36.5998 40.9998 36.1998 42.1998 36.0998C42.5998 36.0998 42.9998 36.1998 43.3998 36.2998C43.3998 36.2998 43.4998 36.3998 43.5998 36.3998C43.6998 36.3998 43.6998 36.3998 43.7998 36.3998C43.8998 36.3998 43.9998 36.2998 43.9998 36.1998V35.9998C43.9998 35.8998 43.9998 35.8998 43.8998 35.7998C43.2998 35.1998 42.3998 34.7998 41.4998 34.7998C40.4998 34.7998 39.5998 35.1998 38.8998 35.7998Z" fill="white"/>
<path d="M37.1 24.1002C37 24.1002 37 24.2002 37 24.3002V24.4002C37 24.5002 37 24.6002 37 24.6002C37 24.7002 37.1 24.7002 37.2 24.7002H37.3C37.4 24.7002 37.4 24.7002 37.5 24.7002C38.4 24.8002 39.2 25.3002 39.6 26.1002C39.6 26.2002 39.7 26.2002 39.8 26.2002H39.9C40 26.2002 40 26.2002 40.1 26.2002C40.5 26.0002 41 25.9002 41.4 25.9002C41.9 25.9002 42.4 26.0002 42.8 26.3002L42.9 26.4002H43H43.1C43.2 26.4002 43.2 26.3002 43.2 26.2002V26.1002C43.2 26.1002 43.2 26.1002 43.2 26.0002V25.9002C42.8 25.2002 42 24.7002 41.2 24.7002C40.8 24.7002 40.5 24.8002 40.1 24.9002C39.7 24.2002 39 23.8002 38.2 23.7002C37.8 23.8002 37.4 23.9002 37.1 24.1002Z" fill="white"/>
<path d="M30.8002 28.5996V28.6996C30.8002 28.7996 30.9002 28.8996 31.1002 28.8996L31.2002 28.7996C31.5002 28.5996 31.9002 28.4996 32.3002 28.4996C33.2002 28.4996 34.0002 28.7996 34.7002 29.3996C34.8002 29.4996 34.8002 29.4996 34.9002 29.4996C35.0002 29.4996 35.1002 29.4996 35.1002 29.3996C35.8002 28.6996 36.7002 28.1996 37.7002 28.1996C38.0002 28.1996 38.2002 28.1996 38.5002 28.2996L38.6002 28.3996H38.8002C38.9002 28.3996 39.0002 28.2996 39.0002 28.0996V27.9996C39.0002 27.8996 39.0002 27.8996 38.9002 27.7996C38.4002 27.2996 37.7002 27.0996 37.0002 27.0996C36.2002 27.0996 35.4002 27.4996 34.8002 27.9996C34.2002 27.5996 33.5002 27.3996 32.8002 27.3996C32.0002 27.3996 31.2002 27.7996 30.7002 28.3996C30.7002 28.4996 30.7002 28.5996 30.8002 28.5996Z" fill="white"/>
<path d="M15.7002 30.9005C15.7002 29.1005 17.2002 27.7005 18.9002 27.7005H19.1002C19.3002 25.3005 21.4002 23.6005 23.8002 23.7005C26.2002 23.9005 28.0002 25.9005 27.8002 28.3005C27.8002 28.8005 27.6002 29.4005 27.4002 29.9005C30.0002 30.6005 31.5002 33.3005 30.8002 35.9005C30.2002 37.9005 28.4002 39.3005 26.3002 39.4005H19.8002C17.9002 39.4005 16.4002 37.9005 16.4002 36.0005C16.4002 35.1005 16.7002 34.3005 17.3002 33.7005C16.3002 33.2005 15.7002 32.1005 15.7002 30.9005Z" fill="white"/>
</g>
</g>
<defs>
<clipPath id="clip0_3750_17501">
<rect width="60" height="60" fill="white"/>
</clipPath>
<clipPath id="clip1_3750_17501">
<rect width="60" height="60" fill="white"/>
</clipPath>
</defs>
</svg>
