<svg width="60" height="60" viewBox="0 0 60 60" fill="none" xmlns="http://www.w3.org/2000/svg">
<g clip-path="url(#clip0_3749_17024)">
<g clip-path="url(#clip1_3749_17024)">
<g clip-path="url(#clip2_3749_17024)">
<path d="M61 0H0V60H61V0Z" fill="#067EBC"/>
<path d="M5.2001 7.5002C5.0001 7.6002 4.6001 7.7002 4.3001 7.8002C3.9001 8.0002 3.7001 8.1002 3.6001 8.1002V6.5002C4.0001 6.3002 4.4001 6.2002 4.8001 5.9002C5.2001 5.7002 5.5001 5.5002 5.8001 5.2002H7.5001V16.6002H5.2001V7.5002Z" fill="white"/>
<path d="M12 13.9002H8.5V12.2002L11.6 5.2002H14.1V12.3002H15.3V14.0002H14.1V16.7002H12.1L12 13.9002ZM12 12.3002V7.5002L10.2 12.3002H12Z" fill="white"/>
<path d="M19.5 9.6002V5.2002H20.3V9.0002H21.4V9.6002H19.5Z" fill="white"/>
<path d="M21.7002 9.6002V5.2002H22.5002V9.6002H21.7002Z" fill="white"/>
<path d="M23 9.6002V5.2002H24.8V5.8002H23.8V7.0002H24.6V7.6002H23.8V9.6002H23Z" fill="white"/>
<path d="M25.1001 9.6002V5.2002H27.0001V5.8002H25.9001V7.0002H26.7001V7.6002H25.9001V9.0002H27.0001V9.6002H25.1001Z" fill="white"/>
<path d="M19.5 16.6998V12.2998H20.6C20.8 12.2998 21 12.2998 21.1 12.2998C21.2 12.2998 21.4 12.3998 21.5 12.4998C21.6 12.5998 21.7 12.6998 21.8 12.7998C21.9 12.9998 21.9 13.1998 21.9 13.3998C21.9 13.5998 21.9 13.6998 21.8 13.8998C21.8 13.9998 21.7 14.0998 21.6 14.1998C21.5 14.2998 21.4 14.2998 21.2 14.2998C21.4 14.2998 21.5 14.3998 21.6 14.4998C21.7 14.5998 21.8 14.6998 21.9 14.8998C22 15.0998 22 15.2998 22 15.3998C22 15.5998 22 15.7998 21.9 15.9998C21.9 16.1998 21.8 16.2998 21.7 16.3998C21.6 16.4998 21.5 16.5998 21.3 16.5998C21.1 16.6998 20.9 16.6998 20.8 16.6998H19.5ZM20.3 14.0998H20.6C20.7 14.0998 20.9 14.0998 21 13.9998C21.1 13.9998 21.2 13.8998 21.2 13.7998C21.2 13.6998 21.3 13.5998 21.2 13.3998C21.2 13.2998 21.2 13.1998 21.1 12.9998C21 12.8998 21 12.7998 20.9 12.7998C20.8 12.7998 20.6 12.6998 20.5 12.7998H20.3V14.0998ZM20.3 16.0998H20.6C20.8 16.0998 21 16.0998 21.1 15.8998C21.2 15.6998 21.3 15.4998 21.2 15.3998C21.2 15.2998 21.2 15.0998 21.1 14.9998C21.1 14.8998 21 14.7998 20.9 14.7998C20.8 14.6998 20.7 14.6998 20.5 14.6998H20.2V16.0998H20.3Z" fill="white"/>
<path d="M22.3999 16.6998V12.2998H24.2999V12.8998H23.1999V14.1998H23.9999V14.7998H23.1999V16.1998H24.2999V16.7998L22.3999 16.6998Z" fill="white"/>
<path d="M24.6001 16.6998V12.2998H25.4001V16.0998H26.5001V16.6998H24.6001Z" fill="white"/>
<path d="M27.9001 16.8002C27.6001 16.8002 27.4001 16.8002 27.1001 16.6002C26.9001 16.5002 26.8001 16.3002 26.7001 16.1002C26.6001 15.9002 26.6001 15.6002 26.6001 15.3002V13.7002C26.6001 13.4002 26.6001 13.2002 26.7001 12.9002C26.8001 12.7002 26.9001 12.5002 27.1001 12.4002C27.3001 12.3002 27.6001 12.2002 27.9001 12.2002C28.2001 12.2002 28.4001 12.2002 28.7001 12.4002C28.9001 12.5002 29.0001 12.7002 29.1001 12.9002C29.2001 13.1002 29.2001 13.4002 29.2001 13.7002V15.3002C29.2001 15.6002 29.2001 15.8002 29.1001 16.1002C29.0001 16.3002 28.9001 16.5002 28.7001 16.6002C28.4001 16.7002 28.1001 16.8002 27.9001 16.8002ZM27.9001 16.2002C28.0001 16.2002 28.1001 16.2002 28.2001 16.1002C28.3001 16.0002 28.3001 16.0002 28.3001 15.9002C28.3001 15.8002 28.3001 15.7002 28.3001 15.6002V13.6002C28.3001 13.5002 28.3001 13.4002 28.3001 13.3002C28.3001 13.1002 28.1001 13.0002 27.9001 13.0002C27.8001 13.0002 27.7001 13.0002 27.6001 13.1002C27.5001 13.0002 27.5001 13.1002 27.5001 13.2002C27.5001 13.3002 27.5001 13.4002 27.5001 13.5002V15.5002C27.5001 15.6002 27.5001 15.7002 27.5001 15.8002C27.5001 15.9002 27.6001 16.0002 27.6001 16.0002C27.7001 16.2002 27.8001 16.2002 27.9001 16.2002Z" fill="white"/>
<path d="M30.1 16.6998L29.5 12.2998H30.2L30.6 15.0998L31.1 12.2998H31.5L32 15.0998L32.4 12.2998H33.1L32.5 16.6998H31.8L31.3 13.7998L30.8 16.6998H30.1Z" fill="white"/>
<path d="M34.9999 16.6998L34.3999 12.2998H35.0999L35.4999 15.0998L35.9999 12.2998H36.5999L37.0999 15.0998L37.4999 12.2998H38.1999L37.5999 16.6998H36.8999L36.3999 13.7998L35.8999 16.6998H34.9999Z" fill="white"/>
<path d="M37.8999 16.6998L38.7999 12.2998H39.6999L40.5999 16.6998H39.7999L39.5999 15.6998H38.7999L38.5999 16.6998H37.8999ZM38.8999 15.1998H39.4999L39.1999 13.3998L38.8999 15.1998Z" fill="white"/>
<path d="M40.9998 16.6998V12.8998H40.2998V12.2998H42.4998V12.8998H41.7998V16.6998H40.9998Z" fill="white"/>
<path d="M42.7998 16.6998V12.2998H44.6998V12.8998H43.5998V14.1998H44.3998V14.7998H43.5998V16.1998H44.6998V16.7998L42.7998 16.6998Z" fill="white"/>
<path d="M45 16.6998V12.2998H46.1C46.4 12.2998 46.6 12.2998 46.9 12.3998C47.1 12.4998 47.3 12.5998 47.4 12.7998C47.5 12.9998 47.6 13.1998 47.6 13.4998C47.6 13.6998 47.6 13.7998 47.6 13.9998C47.6 14.0998 47.5 14.2998 47.4 14.3998C47.3 14.4998 47.2 14.5998 47.1 14.5998L47.7 16.7998H46.9L46.4 14.7998H46V16.7998L45 16.6998ZM45.8 14.1998H46C46.1 14.1998 46.3 14.1998 46.4 14.0998C46.5 14.0998 46.6 13.9998 46.6 13.8998C46.6 13.7998 46.7 13.5998 46.7 13.4998C46.7 13.2998 46.7 13.1998 46.6 12.9998C46.5 12.8998 46.3 12.7998 46.1 12.7998H45.8V14.1998Z" fill="white"/>
<path d="M46.8999 43.8C46.0999 42.8 41.1999 36.5 34.0999 36.5C27.9999 36.5 21.5999 41.9 21.5999 41.9C21.5999 41.9 19.1999 37 14.1999 36.5H14.0999C13.9999 36.5 13.8999 36.6 13.8999 36.7C13.8999 36.8 13.8999 36.8 13.9999 36.9C17.0999 41.1 17.0999 46.7 13.9999 50.9V51V51.1C13.9999 51.2 14.0999 51.3 14.1999 51.3H14.2999C19.2999 50.8 21.6999 45.9 21.6999 45.9C21.6999 45.9 28.1999 51.3 34.1999 51.3C41.1999 51.3 46.1999 45.1 46.9999 44L47.0999 43.9C47.0999 43.9 47.0999 43.8 47.0999 43.7L46.8999 43.8ZM38.0999 44.8C36.9999 44.8 36.0999 43.9 35.9999 42.8C35.9999 41.7 36.8999 40.8 37.9999 40.8C39.0999 40.8 39.9999 41.7 40.0999 42.8C40.0999 43.9 39.1999 44.8 38.0999 44.8Z" fill="white"/>
<path d="M21.1998 31.0002C21.1998 30.9002 21.2998 30.9002 21.2998 30.9002C21.3998 30.9002 21.3998 30.9002 21.3998 31.0002C25.1998 34.6002 29.1998 31.7002 29.9998 31.0002L30.0998 30.9002H30.2998L30.3998 31.0002C31.1998 31.7002 35.1998 34.6002 38.9998 31.0002L39.0998 30.9002H39.1998C39.1998 30.9002 39.1998 30.9002 39.2998 31.0002C39.9998 31.7002 43.1998 34.4002 46.5998 31.5002L46.6998 31.4002V30.0002C46.6998 29.9002 46.5998 29.8002 46.4998 29.8002H46.3998C44.0998 31.0002 41.1998 30.7002 39.1998 28.8002L39.0998 28.7002H38.9998C38.9998 28.7002 38.8998 28.7002 38.8998 28.8002C37.9998 29.4002 33.9998 32.1002 30.4998 28.8002H30.3998L30.2998 28.7002C30.1998 28.7002 30.1998 28.7002 30.1998 28.8002H30.0998C26.4998 32.1002 22.5998 29.4002 21.6998 28.8002L21.5998 28.7002H21.4998H21.3998L21.2998 28.8002C19.3998 30.6002 16.4998 31.0002 14.0998 29.8002H13.9998C13.8998 29.8002 13.7998 29.9002 13.7998 30.0002V31.4002C13.7998 31.5002 13.7998 31.5002 13.8998 31.5002C17.2998 34.4002 20.4998 31.7002 21.1998 31.0002Z" fill="white"/>
<path d="M14.0999 24.7998C13.9999 24.7998 13.8999 24.8998 13.8999 24.9998V26.3998C13.8999 26.4998 13.8999 26.4998 13.9999 26.4998C17.3999 29.3998 20.5999 26.6998 21.2999 25.9998V25.8998H21.3999H21.4999C25.2999 29.4998 29.2999 26.5998 30.0999 25.8998L30.1999 25.7998H30.2999H30.3999L30.4999 25.8998C31.2999 26.5998 35.2999 29.4998 39.0999 25.8998H39.1999H39.2999L39.3999 25.9998C40.0999 26.6998 43.2999 29.3998 46.6999 26.4998V26.3998V24.9998C46.6999 24.8998 46.5999 24.7998 46.4999 24.7998L46.3999 24.8998C44.0999 26.0998 41.1999 25.7998 39.1999 23.8998L39.0999 23.7998H38.9999C38.9999 23.7998 38.8999 23.7998 38.8999 23.8998C37.9999 24.5998 33.9999 27.1998 30.4999 23.8998H30.3999L30.2999 23.7998C30.1999 23.7998 30.1999 23.7998 30.1999 23.8998H30.0999C26.4999 27.1998 22.5999 24.4998 21.6999 23.8998L21.5999 23.7998H21.4999H21.3999L21.2999 23.8998C19.3999 25.6998 16.4999 26.0998 14.0999 24.8998V24.7998Z" fill="white"/>
</g>
</g>
</g>
<defs>
<clipPath id="clip0_3749_17024">
<rect width="60" height="60" fill="white"/>
</clipPath>
<clipPath id="clip1_3749_17024">
<rect width="60" height="60" fill="white"/>
</clipPath>
<clipPath id="clip2_3749_17024">
<rect width="60" height="60" fill="white"/>
</clipPath>
</defs>
</svg>
