<svg width="60" height="60" viewBox="0 0 60 60" fill="none" xmlns="http://www.w3.org/2000/svg">
<g clip-path="url(#clip0_3748_15592)">
<g clip-path="url(#clip1_3748_15592)">
<g clip-path="url(#clip2_3748_15592)">
<path d="M60.3001 0H-0.399902V59.8H60.3001V0Z" fill="#E8432E"/>
<path d="M5.70027 16.3996C5.30027 16.0996 4.90027 15.6996 4.80027 15.1996C4.60027 14.5996 4.50027 13.8996 4.60027 13.2996H6.70027C6.70027 13.7996 6.70027 14.2996 6.90027 14.6996C7.00027 14.9996 7.30027 15.1996 7.60027 15.1996C7.80027 15.1996 8.10027 15.0996 8.20027 14.8996C8.30027 14.6996 8.40027 14.3996 8.50027 14.0996C8.50027 13.7996 8.50027 13.2996 8.50027 12.6996C8.50027 12.1996 8.50027 11.5996 8.30027 11.0996C8.20027 10.7996 7.90027 10.5996 7.50027 10.5996C7.00027 10.5996 6.70027 10.8996 6.50027 11.5996H4.70027L4.90027 5.09961H10.2003V6.99961H6.70027L6.50027 9.59961C6.70027 9.39961 7.00027 9.29961 7.20027 9.19961C7.50027 9.09961 7.90027 8.99961 8.20027 8.99961C8.90027 8.99961 9.60027 9.29961 10.0003 9.99961C10.4003 10.7996 10.7003 11.6996 10.6003 12.5996C10.6003 13.3996 10.5003 14.0996 10.4003 14.7996C10.3003 15.3996 9.90027 15.8996 9.50027 16.1996C8.90027 16.5996 8.20027 16.7996 7.50027 16.6996C6.90027 16.8996 6.30027 16.6996 5.70027 16.3996Z" fill="white"/>
<path d="M15.8 9.2002C15.6 8.9002 15.5 8.5002 15.5 8.1002V6.7002C15.5 6.3002 15.6 5.9002 15.8 5.6002C16 5.3002 16.4 5.2002 16.8 5.2002C17.2 5.2002 17.5 5.3002 17.8 5.5002C18 5.8002 18.1 6.1002 18.1 6.5002V6.7002H17.3V6.4002C17.3 6.3002 17.3 6.1002 17.3 6.0002C17.3 5.9002 17.2 5.8002 17.2 5.8002C17.1 5.7002 17 5.7002 16.9 5.7002C16.8 5.7002 16.7 5.7002 16.6 5.8002C16.5 5.9002 16.5 5.9002 16.5 6.0002C16.5 6.1002 16.5 6.3002 16.5 6.4002V8.2002C16.5 8.4002 16.5 8.6002 16.6 8.8002C16.7 9.0002 16.8 9.1002 17 9.1002C17.2 9.1002 17.3 9.0002 17.4 8.9002C17.5 8.7002 17.5 8.5002 17.5 8.3002V7.9002H17V7.4002H18.1V9.6002H17.6L17.5 9.2002C17.4 9.5002 17.1 9.7002 16.8 9.7002C16.4 9.7002 16 9.5002 15.8 9.2002Z" fill="white"/>
<path d="M18.6001 5.2002H20.5001V5.8002H19.4001V7.0002H20.2001V7.6002H19.4001V9.0002H20.5001V9.5002H18.6001V5.2002Z" fill="white"/>
<path d="M21 5.2002H21.6L22.7 7.7002V5.2002H23.4V9.5002H22.9L21.7 7.0002V9.6002H21V5.2002Z" fill="white"/>
<path d="M23.8999 5.2002H24.9999C25.2999 5.2002 25.5999 5.2002 25.7999 5.3002C25.9999 5.4002 26.1999 5.5002 26.1999 5.7002C26.2999 5.9002 26.2999 6.2002 26.2999 6.5002V8.1002C26.2999 8.4002 26.2999 8.6002 26.1999 8.9002C26.0999 9.1002 25.9999 9.3002 25.7999 9.4002C25.4999 9.5002 25.2999 9.6002 24.9999 9.6002H23.8999V5.2002ZM24.9999 9.0002C25.0999 9.0002 25.2999 9.0002 25.3999 8.9002C25.4999 8.8002 25.4999 8.7002 25.5999 8.6002C25.5999 8.4002 25.5999 8.3002 25.5999 8.1002V6.5002C25.5999 6.4002 25.5999 6.2002 25.5999 6.1002C25.5999 6.0002 25.4999 5.9002 25.3999 5.9002C25.2999 5.8002 25.0999 5.8002 24.9999 5.8002H24.7999V9.0002H24.9999Z" fill="white"/>
<path d="M26.8999 5.2002H28.7999V5.8002H27.6999V7.0002H28.4999V7.6002H27.6999V9.0002H28.7999V9.5002H26.8999V5.2002Z" fill="white"/>
<path d="M29.2002 5.2002H30.3002C30.7002 5.2002 31.0002 5.3002 31.4002 5.5002C31.7002 5.7002 31.8002 6.1002 31.7002 6.4002C31.7002 6.6002 31.7002 6.9002 31.6002 7.1002C31.5002 7.3002 31.4002 7.4002 31.2002 7.5002L31.8002 9.6002H31.0002L30.5002 7.6002H30.0002V9.6002H29.2002V5.2002ZM30.3002 7.1002C30.5002 7.1002 30.7002 7.1002 30.8002 6.9002C30.9002 6.7002 31.0002 6.6002 30.9002 6.4002C30.9002 6.2002 30.9002 6.0002 30.8002 5.9002C30.7002 5.8002 30.5002 5.7002 30.3002 5.7002H30.0002V7.0002H30.3002V7.1002Z" fill="white"/>
<path d="M15.6001 12.2998H17.5001V12.8998H16.4001V14.1998H17.2001V14.7998H16.4001V16.1998H17.5001V16.6998H15.6001V12.2998Z" fill="white"/>
<path d="M19.6003 17.1996C19.4003 17.0996 19.3003 16.8996 19.2003 16.6996H19.1003C18.7003 16.6996 18.4003 16.5996 18.1003 16.2996C17.9003 15.9996 17.8003 15.5996 17.8003 15.1996V13.5996C17.8003 13.1996 17.9003 12.8996 18.1003 12.5996C18.7003 12.0996 19.5003 12.0996 20.1003 12.5996C20.3003 12.8996 20.4003 13.2996 20.4003 13.5996V15.1996C20.4003 15.8996 20.2003 16.2996 19.8003 16.4996C19.9003 16.6996 20.1003 16.7996 20.2003 16.8996L20.0003 17.3996C19.9003 17.4996 19.8003 17.3996 19.6003 17.1996ZM19.5003 15.9996C19.6003 15.7996 19.6003 15.6996 19.6003 15.4996V13.4996C19.6003 13.2996 19.6003 13.1996 19.5003 12.9996C19.4003 12.8996 19.3003 12.7996 19.1003 12.7996C19.0003 12.7996 18.8003 12.7996 18.7003 12.9996C18.6003 13.0996 18.6003 13.2996 18.6003 13.4996V15.4996C18.6003 15.6996 18.6003 15.7996 18.7003 15.9996C18.8003 16.0996 18.9003 16.1996 19.1003 16.1996C19.3003 16.1996 19.4003 16.0996 19.5003 15.9996Z" fill="white"/>
<path d="M21.3999 16.5998C21.1999 16.4998 21.0999 16.2998 20.9999 16.0998C20.8999 15.7998 20.8999 15.5998 20.8999 15.2998V12.3998H21.6999V15.3998C21.6999 15.5998 21.6999 15.7998 21.7999 15.9998C21.8999 16.1998 22.1999 16.2998 22.3999 16.0998C22.4999 16.0998 22.4999 15.9998 22.4999 15.9998C22.5999 15.7998 22.5999 15.5998 22.5999 15.3998V12.2998H23.3999V15.1998C23.3999 15.4998 23.3999 15.6998 23.2999 15.9998C23.1999 16.1998 23.0999 16.3998 22.8999 16.4998C22.4999 16.7998 21.8999 16.7998 21.3999 16.5998Z" fill="white"/>
<path d="M24.7003 12.2998H25.6003L26.5003 16.6998H25.8003L25.6003 15.6998H24.8003L24.6003 16.6998H23.8003L24.7003 12.2998ZM25.5003 15.1998L25.2003 13.3998L24.9003 15.1998H25.5003Z" fill="white"/>
<path d="M26.8999 12.2998H27.6999V16.1998H28.7999V16.6998H26.8999V12.2998Z" fill="white"/>
<path d="M29.2002 12.2998H30.0002V16.6998H29.2002V12.2998Z" fill="white"/>
<path d="M31.0999 12.8998H30.3999V12.2998H32.6999V12.8998H31.9999V16.6998H31.1999L31.0999 12.8998Z" fill="white"/>
<path d="M33.5001 14.9998L32.6001 12.2998H33.4001L34.0001 13.9998L34.5001 12.2998H35.2001L34.3001 14.9998V16.6998H33.5001V14.9998Z" fill="white"/>
<path d="M43.9 22.5996H36.3C36.2 22.5996 36.2 22.5996 36.2 22.6996V25.1996C36.2 25.2996 36.2 25.2996 36.3 25.2996H39.3L36 28.5996C31.7 25.2996 25.4 25.9996 22.1 30.2996C18.7 34.5996 19.5 40.6996 23.8 43.9996C25.2 45.0996 26.8 45.6996 28.6 45.9996V48.8996H25.7C25.6 48.8996 25.6 48.8996 25.6 48.9996V51.6996C25.6 51.7996 25.6 51.7996 25.7 51.7996H28.6V54.5996C28.6 54.5996 28.6 54.6996 28.7 54.6996H31.4C31.5 54.6996 31.5 54.6996 31.5 54.5996V51.7996H34.4C34.5 51.7996 34.5 51.7996 34.5 51.6996V48.9996C34.5 48.8996 34.5 48.8996 34.4 48.8996H31.5V45.9996C36.9 45.0996 40.6 40.0996 39.7 34.7996C39.5 33.2996 38.9 31.9996 38 30.7996L41.3 27.5996V30.3996C41.3 30.4996 41.3 30.4996 41.4 30.4996H43.9C44 30.4996 44 30.4996 44 30.3996V22.8996C44 22.6996 44 22.6996 43.9 22.5996C44 22.6996 43.9 22.6996 43.9 22.5996ZM29.9 43.4996C25.9 43.4996 22.6 40.2996 22.6 36.2996C22.6 32.2996 25.9 29.0996 29.9 29.0996C33.9 29.0996 37.2 32.2996 37.2 36.2996C37.2 40.2996 33.9 43.4996 29.9 43.4996Z" fill="white"/>
<path d="M34.4 33.2998H25.6C25.6 33.2998 25.5 33.2998 25.5 33.3998V35.4998C25.5 35.4998 25.5 35.5998 25.6 35.5998H34.4C34.4 35.5998 34.5 35.5998 34.5 35.4998L34.4 33.2998Z" fill="white"/>
<path d="M34.4 37.0996H25.6C25.6 37.0996 25.5 37.0996 25.5 37.1996V39.2996C25.5 39.2996 25.5 39.3996 25.6 39.3996H34.4C34.4 39.3996 34.5 39.3996 34.5 39.2996L34.4 37.0996Z" fill="white"/>
</g>
</g>
</g>
<defs>
<clipPath id="clip0_3748_15592">
<rect width="60" height="60" fill="white"/>
</clipPath>
<clipPath id="clip1_3748_15592">
<rect width="60" height="60" fill="white"/>
</clipPath>
<clipPath id="clip2_3748_15592">
<rect width="60" height="60" fill="white"/>
</clipPath>
</defs>
</svg>
