<svg width="60" height="60" viewBox="0 0 60 60" fill="none" xmlns="http://www.w3.org/2000/svg">
<g clip-path="url(#clip0_3748_15587)">
<g clip-path="url(#clip1_3748_15587)">
<g clip-path="url(#clip2_3748_15587)">
<path d="M60.1999 0H-0.600098V59.9H60.1999V0Z" fill="#C32134"/>
<path d="M7.5 13.9002H4V12.2002L7 5.2002H9.5V12.3002H10.7V14.0002H9.5V16.7002H7.5V13.9002ZM7.5 12.3002V7.4002L5.7 12.2002H7.5V12.3002Z" fill="white"/>
<path d="M17.0998 10.0996C16.8998 9.89961 16.7998 9.79961 16.6998 9.59961H16.5998C16.1998 9.59961 15.8998 9.49961 15.5998 9.19961C15.3998 8.89961 15.2998 8.49961 15.2998 8.09961V6.49961C15.2998 6.09961 15.3998 5.79961 15.5998 5.49961C15.8998 5.19961 16.1998 5.09961 16.5998 5.09961C16.9998 5.09961 17.2998 5.19961 17.5998 5.49961C17.7998 5.79961 17.8998 6.19961 17.8998 6.49961V8.09961C17.9998 8.59961 17.6998 9.09961 17.2998 9.39961C17.3998 9.59961 17.5998 9.69961 17.6998 9.79961L17.5998 10.2996C17.2998 10.2996 17.1998 10.1996 17.0998 10.0996ZM16.8998 8.89961C16.9998 8.69961 16.9998 8.49961 16.9998 8.39961V6.39961C16.9998 6.19961 16.9998 6.09961 16.8998 5.89961C16.7998 5.79961 16.6998 5.69961 16.4998 5.69961C16.3998 5.69961 16.1998 5.69961 16.0998 5.89961C15.9998 5.99961 15.9998 6.19961 15.9998 6.39961V8.39961C15.9998 8.59961 15.9998 8.69961 16.0998 8.89961C16.2998 8.99961 16.3998 8.99961 16.4998 8.99961C16.6998 8.99961 16.8998 8.99961 16.8998 8.89961Z" fill="white"/>
<path d="M18.8999 9.5002C18.6999 9.4002 18.5999 9.2002 18.4999 9.0002C18.3999 8.7002 18.3999 8.5002 18.3999 8.2002V5.2002H19.1999V8.2002C19.1999 8.4002 19.1999 8.6002 19.2999 8.8002C19.3999 9.0002 19.6999 9.1002 19.8999 8.9002C19.8999 9.0002 19.9999 8.9002 19.9999 8.9002C20.0999 8.7002 20.0999 8.5002 20.0999 8.3002V5.2002H20.8999V8.1002C20.8999 8.4002 20.8999 8.6002 20.7999 8.9002C20.6999 9.1002 20.5999 9.3002 20.3999 9.4002C19.8999 9.60019 19.3999 9.6002 18.8999 9.5002Z" fill="white"/>
<path d="M22.2001 5.2002H23.0001L23.9001 9.6002H23.1001L22.9001 8.6002H22.1001L21.9001 9.6002H21.1001L22.2001 5.2002ZM22.9001 8.1002L22.6001 6.3002L22.3001 8.1002H22.9001Z" fill="white"/>
<path d="M24.2998 5.2002H25.0998V9.1002H26.1998V9.6002H24.2998V5.2002Z" fill="white"/>
<path d="M26.6001 5.2002H27.4001V9.6002H26.6001V5.2002Z" fill="white"/>
<path d="M28.4998 5.8002H27.7998V5.2002H30.0998V5.8002H29.3998V9.6002H28.5998L28.4998 5.8002Z" fill="white"/>
<path d="M31.0001 7.9002L30.1001 5.2002H30.9001L31.5001 6.9002L32.0001 5.2002H32.7001L31.8001 7.9002V9.6002H31.0001V7.9002Z" fill="white"/>
<path d="M15.3999 12.2998H17.2999V12.8998H16.1999V14.1998H17.0999V14.7998H16.2999V16.1998H17.3999V16.6998H15.4999L15.3999 12.2998Z" fill="white"/>
<path d="M17.6997 12.2998H18.7997C19.0997 12.2998 19.3997 12.2998 19.5997 12.3998C19.7997 12.4998 19.8997 12.5998 19.9997 12.7998C20.0997 12.9998 20.0997 13.2998 20.0997 13.5998V15.1998C20.0997 15.4998 20.0997 15.6998 19.9997 15.9998C19.8997 16.1998 19.7997 16.3998 19.5997 16.4998C19.2997 16.5998 19.0997 16.6998 18.7997 16.6998H17.6997V12.2998ZM18.6997 16.0998C18.7997 16.0998 18.9997 16.0998 19.0997 15.9998C19.1997 15.8998 19.1997 15.8998 19.2997 15.6998C19.2997 15.4998 19.2997 15.3998 19.2997 15.1998V13.4998C19.2997 13.3998 19.2997 13.1998 19.2997 13.0998C19.2997 12.9998 19.1997 12.8998 19.0997 12.8998C18.9997 12.7998 18.7997 12.7998 18.6997 12.7998H18.4997V15.9998H18.6997V16.0998Z" fill="white"/>
<path d="M21.1997 16.5998C20.9997 16.4998 20.8997 16.2998 20.7997 16.0998C20.6997 15.7998 20.6997 15.5998 20.6997 15.2998V12.2998H21.4997V15.2998C21.4997 15.4998 21.4997 15.6998 21.5997 15.8998C21.6997 16.0998 21.9997 16.1998 22.1997 15.9998C22.2997 15.9998 22.2997 15.8998 22.2997 15.8998C22.3997 15.6998 22.3997 15.4998 22.3997 15.2998V12.2998H23.1997V15.2998C23.1997 15.5998 23.1997 15.7998 23.0997 16.0998C22.9997 16.2998 22.8997 16.4998 22.6997 16.5998C22.4997 16.6998 22.1997 16.7998 21.8997 16.7998C21.6997 16.7998 21.3997 16.6998 21.1997 16.5998Z" fill="white"/>
<path d="M23.9997 16.4002C23.7997 16.1002 23.6997 15.7002 23.6997 15.3002V13.7002C23.6997 13.3002 23.7997 12.9002 23.9997 12.6002C24.1997 12.3002 24.5997 12.2002 24.9997 12.2002C25.2997 12.2002 25.6997 12.3002 25.8997 12.5002C26.0997 12.8002 26.1997 13.1002 26.1997 13.5002V13.9002H25.3997V13.5002C25.3997 13.4002 25.3997 13.3002 25.3997 13.1002C25.3997 13.0002 25.2997 12.9002 25.2997 12.9002C25.1997 12.8002 25.0997 12.8002 24.9997 12.8002C24.8997 12.8002 24.7997 12.8002 24.6997 12.9002C24.5997 13.0002 24.5997 13.0002 24.5997 13.1002C24.5997 13.2002 24.5997 13.4002 24.5997 13.5002V15.4002C24.5997 15.6002 24.5997 15.8002 24.6997 15.9002C24.7997 16.0002 24.8997 16.1002 25.0997 16.1002C25.1997 16.1002 25.2997 16.1002 25.3997 16.0002C25.4997 15.9002 25.4997 15.9002 25.4997 15.8002C25.4997 15.7002 25.4997 15.5002 25.4997 15.4002V15.0002H26.2997V15.3002C26.2997 15.6002 26.1997 16.0002 25.9997 16.3002C25.7997 16.6002 25.3997 16.7002 25.0997 16.6002C24.5997 16.8002 24.2997 16.6002 23.9997 16.4002Z" fill="white"/>
<path d="M27.3999 12.2998H28.2999L29.1999 16.6998H28.3999L28.1999 15.6998H27.3999L27.1999 16.6998H26.3999L27.3999 12.2998ZM28.0999 15.1998L27.7999 13.2998L27.4999 15.0998L28.0999 15.1998Z" fill="white"/>
<path d="M29.8001 12.8998H29.1001V12.2998H31.4001V12.8998H30.7001V16.6998H29.9001V12.8998H29.8001Z" fill="white"/>
<path d="M31.6997 12.2998H32.4997V16.6998H31.6997V12.2998Z" fill="white"/>
<path d="M33.4001 16.4002C33.2001 16.1002 33.1001 15.7002 33.1001 15.3002V13.7002C33.1001 13.3002 33.2001 13.0002 33.4001 12.6002C33.7001 12.3002 34.0001 12.2002 34.4001 12.2002C34.8001 12.2002 35.1001 12.3002 35.4001 12.6002C35.6001 12.9002 35.7001 13.3002 35.7001 13.7002V15.3002C35.7001 15.7002 35.6001 16.1002 35.4001 16.4002C35.1001 16.7002 34.8001 16.8002 34.4001 16.8002C34.0001 16.8002 33.6001 16.6002 33.4001 16.4002ZM34.7001 16.0002C34.8001 15.8002 34.8001 15.7002 34.8001 15.5002V13.5002C34.8001 13.3002 34.8001 13.2002 34.7001 13.0002C34.5001 12.8002 34.2001 12.8002 34.0001 13.0002C33.9001 13.1002 33.9001 13.3002 33.9001 13.5002V15.5002C33.9001 15.7002 33.9001 15.8002 34.0001 16.0002C34.1001 16.1002 34.2001 16.2002 34.4001 16.2002C34.5001 16.2002 34.7001 16.1002 34.7001 16.0002Z" fill="white"/>
<path d="M36.1997 12.2998H36.7997L37.8997 14.7998V12.2998H38.5997V16.6998H37.9997L36.8997 14.0998V16.6998H36.1997V12.2998Z" fill="white"/>
<path d="M26.2999 32.1004L15.3999 25.9004V46.0004L26.2999 49.3004V32.1004Z" fill="white"/>
<path d="M27.5 32.1004V49.3004L38.6 46.0004V25.9004L27.5 32.1004Z" fill="white"/>
<path d="M44.9001 45.7002H44.6001L45.9001 50.1002L47.2001 45.7002H46.8001H47.2001V27.7002H46.8001H46.5001H46.2001H45.5001H45.2001H44.9001H44.6001V45.7002H44.9001Z" fill="white"/>
<path d="M40.9 26.6998L39.7 25.7998V46.5998L27.6 50.3998H27H26.9H26.3L14.2 47.0998V25.7998L13 26.6998V47.8998L26.3 51.4998H26.9H27H27.6L39.8 47.6998L40.9 47.3998V26.6998Z" fill="white"/>
<path d="M47.2001 25.3996C47.2001 24.6996 46.6001 24.0996 45.9001 24.0996C45.2001 24.0996 44.6001 24.6996 44.6001 25.3996V26.7996H47.2001V25.3996Z" fill="white"/>
</g>
</g>
</g>
<defs>
<clipPath id="clip0_3748_15587">
<rect width="60" height="60" fill="white"/>
</clipPath>
<clipPath id="clip1_3748_15587">
<rect width="60" height="60" fill="white"/>
</clipPath>
<clipPath id="clip2_3748_15587">
<rect width="60" height="60" fill="white"/>
</clipPath>
</defs>
</svg>
