<svg width="60" height="60" viewBox="0 0 60 60" fill="none" xmlns="http://www.w3.org/2000/svg">
<g clip-path="url(#clip0_3748_15902)">
<g clip-path="url(#clip1_3748_15902)">
<g clip-path="url(#clip2_3748_15902)">
<path d="M60.7 0H0V59.8H60.7V0Z" fill="#ED6F29"/>
<path d="M5.6999 15.9996C5.1999 15.3996 4.9999 14.5996 4.9999 13.7996V13.5996H7.0999C7.0999 13.9996 7.0999 14.2996 7.2999 14.6996C7.3999 14.8996 7.6999 15.0996 7.9999 14.9996C8.1999 14.9996 8.3999 14.8996 8.4999 14.7996C8.5999 14.5996 8.6999 14.3996 8.7999 14.0996C8.8999 13.5996 8.8999 13.1996 8.8999 12.6996V11.4996C8.5999 11.8996 8.3999 11.9996 8.1999 12.0996C7.8999 12.1996 7.5999 12.2996 7.2999 12.2996C6.4999 12.2996 5.7999 11.9996 5.3999 11.2996C4.8999 10.5996 4.6999 9.69958 4.7999 8.89958C4.7999 6.29958 5.7999 4.99958 7.8999 4.99958C8.7999 4.89958 9.6999 5.29958 10.2999 5.99958C10.7999 6.79958 11.0999 7.69958 11.0999 8.69958V12.8996C11.1999 13.8996 10.8999 14.8996 10.3999 15.7996C9.7999 16.5996 8.8999 16.9996 7.8999 16.8996C7.0999 16.7996 6.2999 16.5996 5.6999 15.9996ZM8.7999 10.0996V8.29958C8.7999 7.89958 8.7999 7.49958 8.5999 7.09958C8.4999 6.89958 8.1999 6.69958 7.8999 6.69958C7.5999 6.69958 7.2999 6.89958 7.1999 7.19958C7.0999 7.69958 6.9999 8.19958 6.9999 8.69958C6.9999 9.09958 6.9999 9.39958 6.9999 9.79958C6.9999 9.99958 7.0999 10.1996 7.1999 10.3996C7.2999 10.5996 7.5999 10.6996 7.7999 10.5996C8.2999 10.5996 8.5999 10.3996 8.7999 10.0996Z" fill="white"/>
<path d="M13.6001 9.5002V5.2002H14.4001V9.60019H13.6001V9.5002Z" fill="white"/>
<path d="M14.7998 9.5002V5.2002H15.3998L16.3998 7.60019V5.2002H17.0998V9.60019H16.5998L15.4998 6.9002V9.5002H14.7998Z" fill="white"/>
<path d="M17.5 9.5002V5.2002H18.5C18.8 5.2002 19.1 5.2002 19.3 5.3002C19.5 5.4002 19.7 5.5002 19.7 5.7002C19.8 5.9002 19.8 6.2002 19.8 6.5002V8.10019C19.8 8.40019 19.8 8.6002 19.7 8.9002C19.6 9.1002 19.5 9.3002 19.3 9.4002C19 9.5002 18.8 9.60019 18.5 9.60019H17.5V9.5002ZM18.3 9.0002H18.5C18.6 9.0002 18.8 9.0002 18.9 8.9002C19 8.8002 19 8.70019 19 8.60019C19 8.40019 19 8.30019 19 8.10019V6.4002C19 6.3002 19 6.1002 19 6.0002C19 5.9002 18.9 5.8002 18.8 5.8002C18.7 5.7002 18.5 5.7002 18.4 5.7002H18.2L18.3 9.0002Z" fill="white"/>
<path d="M21.5002 9.49961C21.2002 9.49961 21.0002 9.49961 20.7002 9.29961C20.5002 9.19961 20.4002 8.99961 20.3002 8.79961C20.2002 8.49961 20.2002 8.29961 20.2002 7.99961V5.09961H21.0002V8.09961C21.0002 8.19961 21.0002 8.39961 21.0002 8.49961C21.0002 8.59961 21.1002 8.69961 21.1002 8.79961C21.2002 8.89961 21.3002 8.99961 21.4002 8.99961C21.5002 8.99961 21.6002 8.99961 21.7002 8.89961C21.8002 8.79961 21.8002 8.69961 21.8002 8.59961C21.8002 8.49961 21.8002 8.29961 21.8002 8.19961V5.19961H22.6002V8.09961C22.6002 8.39961 22.6002 8.59961 22.5002 8.89961C22.4002 9.09961 22.3002 9.29961 22.1002 9.39961C22.0002 9.49961 21.7002 9.49961 21.5002 9.49961Z" fill="white"/>
<path d="M24.1998 9.5C23.9998 9.5 23.6998 9.5 23.4998 9.3C23.2998 9.2 23.1998 9 23.0998 8.8C22.9998 8.6 22.9998 8.3 22.9998 8.1L23.6998 8C23.6998 8.2 23.6998 8.3 23.7998 8.5C23.7998 8.6 23.8998 8.7 23.9998 8.8C23.8998 8.9 23.9998 8.9 24.0998 8.9C24.2998 8.9 24.3998 8.9 24.3998 8.8C24.4998 8.7 24.4998 8.6 24.4998 8.5C24.4998 8.3 24.4998 8.2 24.3998 8C24.2998 7.9 24.1998 7.7 23.9998 7.6L23.3998 7.1C23.1998 7 23.0998 6.8 22.9998 6.7C22.8998 6.5 22.7998 6.3 22.8998 6.1C22.8998 5.8 22.9998 5.5 23.1998 5.3C23.3998 5.1 23.6998 5 23.9998 5C24.1998 5 24.3998 5 24.4998 5.1C24.5998 5.2 24.6998 5.2 24.7998 5.4C24.8998 5.5 24.9998 5.6 24.9998 5.8C24.9998 5.9 25.0998 6.1 25.0998 6.2L24.3998 6.3C24.3998 6.2 24.3998 6.1 24.3998 5.9C24.3998 5.8 24.2998 5.7 24.2998 5.6C24.1998 5.5 24.0998 5.5 23.9998 5.5C23.8998 5.5 23.7998 5.5 23.6998 5.6C23.5998 5.7 23.5998 5.8 23.5998 5.9C23.5998 6 23.5998 6.2 23.6998 6.3C23.7998 6.4 23.8998 6.5 23.9998 6.6L24.5998 7.1C24.7998 7.3 24.8998 7.4 25.0998 7.6C25.1998 7.8 25.2998 8.1 25.2998 8.3C25.2998 8.5 25.2998 8.7 25.1998 8.9C25.0998 9.1 24.9998 9.2 24.7998 9.3C24.5998 9.5 24.3998 9.5 24.1998 9.5Z" fill="white"/>
<path d="M25.9002 9.5002V5.7002H25.2002V5.2002H27.4002V5.8002H26.7002V9.60019H25.9002V9.5002Z" fill="white"/>
<path d="M27.5 9.5002V5.2002H28.6C28.9 5.2002 29.1 5.2002 29.4 5.3002C29.6 5.4002 29.8 5.5002 29.9 5.7002C30 5.9002 30.1 6.1002 30.1 6.4002C30.1 6.6002 30.1 6.7002 30.1 6.9002C30.1 7.0002 30 7.2002 29.9 7.3002C29.8 7.4002 29.7 7.5002 29.6 7.5002L30.2 9.60019H29.4L28.9 7.60019H28.4V9.60019H27.5V9.5002ZM28.3 7.0002H28.5C28.6 7.0002 28.8 7.0002 28.9 6.9002C29 6.9002 29.1 6.8002 29.1 6.7002C29.1 6.6002 29.2 6.5002 29.2 6.3002C29.2 6.1002 29.2 6.0002 29.1 5.8002C29 5.7002 28.8 5.60019 28.6 5.60019H28.3V7.0002Z" fill="white"/>
<path d="M30.9 9.49961V7.79961L30 5.09961H30.8L31.3 6.89961L31.8 5.19961H32.5L31.6 7.89961V9.59961H30.9V9.49961Z" fill="white"/>
<path d="M32.5999 10.2002L32.4999 9.9002C32.5999 9.9002 32.6999 9.8002 32.6999 9.7002C32.7999 9.6002 32.7999 9.5002 32.7999 9.4002H32.3999V8.7002H33.0999V9.4002C33.0999 9.6002 33.0999 9.8002 32.8999 9.9002C32.8999 10.1002 32.7999 10.2002 32.5999 10.2002Z" fill="white"/>
<path d="M34.5 9.5002V5.2002H35.4V9.60019H34.5V9.5002Z" fill="white"/>
<path d="M35.7002 9.49961V5.19961H36.3002L37.3002 7.59961V5.09961H38.0002V9.49961H37.5002L36.4002 6.89961V9.49961H35.7002Z" fill="white"/>
<path d="M38.3999 9.5002V5.2002H38.9999L40.0999 7.7002V5.2002H40.7999V9.60019H40.2999L39.0999 6.9002V9.5002H38.3999Z" fill="white"/>
<path d="M42.3 9.5002C42 9.5002 41.8 9.5002 41.5 9.3002C41.3 9.2002 41.2 9.0002 41.1 8.8002C41 8.6002 41 8.3002 41 8.0002V6.4002C41 6.1002 41 5.9002 41.1 5.6002C41.2 5.4002 41.3 5.2002 41.5 5.1002C42 4.9002 42.5 4.9002 43 5.1002C43.2 5.2002 43.3 5.4002 43.4 5.6002C43.5 5.8002 43.5 6.1002 43.5 6.4002V8.0002C43.5 8.3002 43.5 8.5002 43.4 8.8002C43.3 9.0002 43.2 9.2002 43 9.3002C42.8 9.5002 42.6 9.5002 42.3 9.5002ZM42.3 8.9002C42.4 8.9002 42.5 8.9002 42.6 8.8002C42.7 8.7002 42.7 8.7002 42.7 8.6002C42.7 8.5002 42.7 8.4002 42.7 8.3002V6.3002C42.7 6.2002 42.7 6.1002 42.7 6.0002C42.7 5.9002 42.6 5.8002 42.6 5.8002C42.5 5.7002 42.4 5.7002 42.3 5.7002C42.2 5.7002 42.1 5.7002 42 5.8002C41.9 5.9002 41.9 5.9002 41.9 6.0002C41.9 6.1002 41.9 6.2002 41.9 6.3002V8.3002C41.9 8.4002 41.9 8.5002 41.9 8.6002C41.9 8.7002 42 8.8002 42 8.8002C42.1 8.9002 42.2 9.0002 42.3 8.9002Z" fill="white"/>
<path d="M44.6002 9.49961L43.7002 5.09961H44.4002L45.0002 8.19961L45.6002 5.09961H46.3002L45.4002 9.49961H44.6002Z" fill="white"/>
<path d="M46 9.49961L46.9 5.09961H47.8L48.7 9.49961H47.9L47.7 8.49961H46.9L46.7 9.49961H46ZM47 7.99961H47.6L47.3 6.19961L47 7.99961Z" fill="white"/>
<path d="M49.0999 9.5002V5.7002H48.3999V5.2002H50.5999V5.8002H49.8999V9.60019H49.0999V9.5002Z" fill="white"/>
<path d="M50.7002 9.5002V5.2002H51.5002V9.60019H50.7002V9.5002Z" fill="white"/>
<path d="M53.0998 9.5002C52.7998 9.5002 52.5998 9.5002 52.2998 9.3002C52.0998 9.2002 51.9998 9.0002 51.8998 8.8002C51.7998 8.6002 51.7998 8.3002 51.7998 8.0002V6.4002C51.7998 6.1002 51.7998 5.9002 51.8998 5.6002C51.9998 5.4002 52.0998 5.2002 52.2998 5.1002C52.7998 4.9002 53.2998 4.9002 53.7998 5.1002C53.9998 5.2002 54.0998 5.4002 54.1998 5.6002C54.3998 5.9002 54.3998 6.2002 54.3998 6.4002V8.0002C54.3998 8.3002 54.3998 8.5002 54.2998 8.8002C54.1998 9.0002 54.0998 9.2002 53.8998 9.3002C53.5998 9.5002 53.3998 9.5002 53.0998 9.5002ZM53.0998 8.9002C53.1998 8.9002 53.2998 8.9002 53.3998 8.8002C53.4998 8.7002 53.4998 8.7002 53.4998 8.6002C53.4998 8.5002 53.4998 8.4002 53.4998 8.3002V6.3002C53.4998 6.2002 53.4998 6.1002 53.4998 6.0002C53.4998 5.9002 53.3998 5.8002 53.3998 5.8002C53.2998 5.7002 53.1998 5.7002 53.0998 5.7002C52.9998 5.7002 52.8998 5.7002 52.7998 5.8002C52.6998 5.9002 52.6998 5.9002 52.6998 6.0002C52.6998 6.1002 52.6998 6.2002 52.6998 6.3002V8.3002C52.6998 8.4002 52.6998 8.5002 52.6998 8.6002C52.6998 8.7002 52.7998 8.8002 52.7998 8.8002C52.8998 8.9002 52.9998 9.0002 53.0998 8.9002Z" fill="white"/>
<path d="M54.7002 9.5002V5.2002H55.3002L56.4002 7.7002V5.2002H57.1002V9.60019H56.6002L55.4002 6.9002V9.5002H54.7002Z" fill="white"/>
<path d="M13.2998 16.6002L14.1998 12.2002H15.0998L15.9998 16.6002H15.1998L14.9998 15.6002H14.1998L13.9998 16.6002H13.2998ZM14.2998 15.1002H14.8998L14.5998 13.3002L14.2998 15.1002Z" fill="white"/>
<path d="M16.2002 16.6002V12.2002H16.8002L17.9002 14.7002V12.2002H18.6002V16.6002H18.1002L17.0002 14.0002V16.6002H16.2002Z" fill="white"/>
<path d="M19 16.6002V12.2002H20.1C20.4 12.2002 20.7 12.2002 20.9 12.3002C21.1 12.4002 21.2 12.6002 21.3 12.8002C21.4 13.0002 21.4 13.3002 21.4 13.6002V15.2002C21.4 15.5002 21.4 15.7002 21.3 16.0002C21.2 16.2002 21.1 16.4002 20.9 16.5002C20.6 16.6002 20.4 16.7002 20.1 16.7002H19V16.6002ZM19.8 16.0002H20C20.1 16.0002 20.3 16.0002 20.4 15.9002C20.5 15.8002 20.5 15.7002 20.5 15.6002C20.5 15.4002 20.5 15.3002 20.5 15.1002V13.4002C20.5 13.3002 20.5 13.1002 20.5 13.0002C20.5 12.9002 20.4 12.8002 20.3 12.8002C20.2 12.7002 20 12.7002 19.9 12.7002H19.7L19.8 16.0002Z" fill="white"/>
<path d="M22.8999 16.6002V12.2002H23.6999V16.6002H22.8999Z" fill="white"/>
<path d="M24.2002 16.6002V12.2002H24.8002L25.9002 14.7002V12.2002H26.6002V16.6002H26.1002L25.0002 14.0002V16.6002H24.2002Z" fill="white"/>
<path d="M27 16.6002V12.2002H28.8V12.8002H27.8V14.1002H28.6V14.7002H27.8V16.7002L27 16.6002Z" fill="white"/>
<path d="M29 16.6002V12.2002H30.1C30.4 12.2002 30.6 12.2002 30.9 12.3002C31.1 12.4002 31.3 12.5002 31.4 12.7002C31.4 12.9002 31.4 13.1002 31.4 13.4002C31.4 13.6002 31.4 13.7002 31.4 13.9002C31.4 14.0002 31.3 14.2002 31.2 14.3002C31.1 14.4002 31 14.5002 30.9 14.5002L31.5 16.6002H30.7L30.2 14.6002H29.8V16.6002H29ZM29.8 14.1002H30.1C30.2 14.1002 30.4 14.1002 30.5 14.0002C30.6 14.0002 30.7 13.9002 30.7 13.8002C30.7 13.7002 30.8 13.5002 30.8 13.4002C30.8 13.2002 30.8 13.1002 30.7 12.9002C30.6 12.8002 30.4 12.7002 30.2 12.7002H29.9V14.1002H29.8Z" fill="white"/>
<path d="M31.6001 16.6002L32.5001 12.2002H33.4001L34.3001 16.6002H33.6001L33.4001 15.6002H32.6001L32.4001 16.6002H31.6001ZM32.6001 15.1002H33.2001L32.9001 13.3002L32.6001 15.1002Z" fill="white"/>
<path d="M35.5999 16.7002C35.3999 16.7002 35.0999 16.7002 34.8999 16.6002C34.6999 16.5002 34.5999 16.3002 34.4999 16.1002C34.3999 15.8002 34.3999 15.6002 34.3999 15.3002L35.0999 15.2002C35.0999 15.3002 35.0999 15.5002 35.1999 15.6002C35.1999 15.7002 35.2999 15.8002 35.3999 15.9002C35.4999 16.0002 35.5999 16.0002 35.6999 16.0002C35.7999 16.0002 35.8999 16.0002 35.9999 15.9002C36.0999 15.8002 36.0999 15.7002 36.0999 15.6002C36.0999 15.4002 36.0999 15.3002 35.9999 15.1002C35.8999 15.0002 35.7999 14.8002 35.6999 14.7002L35.0999 14.2002C34.8999 14.1002 34.7999 13.9002 34.6999 13.8002C34.3999 13.7002 34.3999 13.5002 34.3999 13.3002C34.3999 13.0002 34.4999 12.7002 34.6999 12.5002C34.8999 12.3002 35.1999 12.2002 35.4999 12.2002C35.6999 12.2002 35.8999 12.2002 35.9999 12.3002C36.0999 12.4002 36.1999 12.5002 36.2999 12.6002C36.3999 12.7002 36.3999 12.8002 36.4999 13.0002C36.4999 13.1002 36.5999 13.3002 36.5999 13.5002L35.8999 13.6002C35.8999 13.5002 35.8999 13.4002 35.8999 13.2002C35.8999 13.1002 35.7999 13.0002 35.7999 12.9002C35.6999 12.8002 35.5999 12.8002 35.4999 12.8002C35.3999 12.8002 35.2999 12.8002 35.1999 12.9002C35.0999 13.0002 35.0999 13.1002 35.0999 13.2002C35.0999 13.3002 35.0999 13.5002 35.1999 13.6002C35.2999 13.7002 35.3999 13.8002 35.4999 13.9002L36.0999 14.4002C36.2999 14.5002 36.3999 14.7002 36.5999 14.9002C36.6999 15.1002 36.7999 15.4002 36.7999 15.6002C36.7999 15.8002 36.7999 16.0002 36.6999 16.2002C36.5999 16.4002 36.4999 16.5002 36.2999 16.6002C35.9999 16.6002 35.7999 16.7002 35.5999 16.7002Z" fill="white"/>
<path d="M37.4002 16.6002V12.8002H36.7002V12.2002H38.9002V12.8002H38.2002V16.6002H37.4002Z" fill="white"/>
<path d="M39.1001 16.6002V12.2002H40.2001C40.5001 12.2002 40.7001 12.2002 41.0001 12.3002C41.2001 12.4002 41.4001 12.5002 41.5001 12.7002C41.6001 12.9002 41.7001 13.1002 41.7001 13.4002C41.7001 13.6002 41.7001 13.7002 41.7001 13.9002C41.7001 14.0002 41.6001 14.2002 41.5001 14.3002C41.4001 14.4002 41.3001 14.5002 41.2001 14.5002L41.8001 16.6002H41.0001L40.5001 14.6002H40.1001V16.6002H39.1001ZM39.9001 14.1002H40.1001C40.2001 14.1002 40.4001 14.1002 40.5001 14.0002C40.6001 14.0002 40.7001 13.9002 40.7001 13.8002C40.7001 13.7002 40.8001 13.5002 40.8001 13.4002C40.8001 13.2002 40.8001 13.1002 40.7001 12.9002C40.6001 12.8002 40.4001 12.7002 40.2001 12.7002H39.9001V14.1002Z" fill="white"/>
<path d="M43.0998 16.6998C42.7998 16.6998 42.5998 16.6998 42.2998 16.4998C42.0998 16.3998 41.9998 16.1998 41.8998 15.9998C41.7998 15.6998 41.7998 15.4998 41.7998 15.1998V12.2998H42.5998V15.3998C42.5998 15.4998 42.5998 15.6998 42.5998 15.7998C42.5998 15.8998 42.6998 15.9998 42.6998 16.0998C42.7998 16.1998 42.8998 16.1998 42.9998 16.1998C43.0998 16.1998 43.1998 16.1998 43.2998 16.0998C43.3998 15.9998 43.3998 15.8998 43.3998 15.7998C43.3998 15.6998 43.3998 15.4998 43.3998 15.3998V12.3998H44.1998V15.2998C44.1998 15.5998 44.1998 15.7998 44.0998 16.0998C43.9998 16.2998 43.8998 16.4998 43.6998 16.5998C43.5998 16.5998 43.3998 16.6998 43.0998 16.6998Z" fill="white"/>
<path d="M46.0002 16.6996C45.7002 16.6996 45.5002 16.6996 45.2002 16.4996C45.0002 16.3996 44.9002 16.1996 44.8002 15.9996C44.7002 15.7996 44.7002 15.4996 44.7002 15.1996V13.5996C44.7002 13.2996 44.7002 13.0996 44.8002 12.7996C44.9002 12.5996 45.0002 12.3996 45.2002 12.2996C45.4002 12.1996 45.7002 12.0996 46.0002 12.0996C46.2002 12.0996 46.5002 12.0996 46.7002 12.2996C46.9002 12.3996 47.0002 12.5996 47.1002 12.6996C47.2002 12.8996 47.2002 13.0996 47.2002 13.3996V13.7996H46.4002V13.3996C46.4002 13.2996 46.4002 13.1996 46.4002 13.0996C46.4002 12.9996 46.4002 12.8996 46.3002 12.8996C46.2002 12.7996 46.1002 12.7996 46.0002 12.7996C45.9002 12.7996 45.8002 12.7996 45.7002 12.8996C45.6002 12.9996 45.6002 13.0996 45.6002 13.1996C45.6002 13.2996 45.6002 13.3996 45.6002 13.5996V15.4996C45.6002 15.5996 45.6002 15.7996 45.6002 15.8996C45.6002 15.9996 45.7002 16.0996 45.7002 16.0996C45.8002 16.1996 45.9002 16.1996 46.0002 16.1996C46.1002 16.1996 46.2002 16.1996 46.3002 16.0996C46.4002 15.8996 46.4002 15.8996 46.4002 15.7996C46.4002 15.6996 46.4002 15.5996 46.4002 15.4996V15.0996H47.2002V15.3996C47.2002 15.5996 47.2002 15.8996 47.1002 16.0996C47.0002 16.2996 46.9002 16.4996 46.7002 16.5996C46.5002 16.5996 46.3002 16.6996 46.0002 16.6996Z" fill="white"/>
<path d="M47.9998 16.6002V12.8002H47.2998V12.2002H49.4998V12.8002H48.7998V16.6002H47.9998Z" fill="white"/>
<path d="M50.9001 16.6998C50.6001 16.6998 50.4001 16.6998 50.1001 16.4998C49.9001 16.3998 49.8001 16.1998 49.7001 15.9998C49.6001 15.6998 49.6001 15.4998 49.6001 15.1998V12.2998H50.4001V15.3998C50.4001 15.4998 50.4001 15.6998 50.4001 15.7998C50.4001 15.8998 50.5001 15.9998 50.5001 16.0998C50.6001 16.1998 50.7001 16.1998 50.8001 16.1998C50.9001 16.1998 51.0001 16.1998 51.1001 16.0998C51.2001 15.9998 51.2001 15.8998 51.2001 15.7998C51.2001 15.6998 51.2001 15.4998 51.2001 15.3998V12.3998H52.0001V15.2998C52.0001 15.5998 52.0001 15.7998 51.9001 16.0998C51.8001 16.2998 51.7001 16.4998 51.5001 16.5998C51.4001 16.5998 51.1001 16.6998 50.9001 16.6998Z" fill="white"/>
<path d="M52.6001 16.6002V12.2002H53.7001C54.0001 12.2002 54.2001 12.2002 54.5001 12.3002C54.7001 12.4002 54.9001 12.5002 55.0001 12.7002C55.1001 12.9002 55.2001 13.1002 55.2001 13.4002C55.2001 13.6002 55.2001 13.7002 55.2001 13.9002C55.2001 14.0002 55.1001 14.2002 55.0001 14.3002C54.9001 14.4002 54.8001 14.5002 54.7001 14.5002L55.3001 16.6002H54.5001L54.0001 14.6002H53.4001V16.6002H52.6001ZM53.4001 14.1002H53.7001C53.8001 14.1002 54.0001 14.1002 54.1001 14.0002C54.2001 14.0002 54.3001 13.9002 54.3001 13.8002C54.3001 13.7002 54.4001 13.5002 54.4001 13.4002C54.4001 13.2002 54.4001 13.1002 54.3001 12.9002C54.2001 12.8002 54.0001 12.7002 53.8001 12.7002H53.4001V14.1002Z" fill="white"/>
<path d="M55.3999 16.6002V12.2002H57.2999V12.8002H56.1999V14.1002H56.9999V14.7002H56.1999V16.1002H57.2999V16.7002L55.3999 16.6002Z" fill="white"/>
<path d="M45.9998 39.2996L38.6998 35.1996V26.9996C38.6998 26.7996 38.5998 26.6996 38.4998 26.5996L30.9998 22.2996C30.7998 22.1996 30.6998 22.1996 30.4998 22.2996L22.9998 26.5996C22.7998 26.6996 22.7998 26.8996 22.7998 26.9996V35.1996L15.4998 39.2996C15.2998 39.3996 15.2998 39.4996 15.2998 39.6996V48.1996C15.2998 48.3996 15.3998 48.4996 15.4998 48.5996L22.9998 52.8996C23.1998 52.9996 23.2998 52.9996 23.4998 52.8996L30.6998 48.7996L37.9998 52.8996C38.0998 52.8996 38.1998 52.9996 38.1998 52.9996C38.2998 52.9996 38.3998 52.9996 38.3998 52.8996L45.8998 48.5996C46.0998 48.4996 46.0998 48.2996 46.0998 48.1996V39.6996C46.1998 39.5996 46.0998 39.3996 45.9998 39.2996ZM30.2998 47.3996L24.2998 43.9996L30.2998 40.5996V47.3996ZM37.2998 35.4996L31.2998 38.8996V32.0996L37.2998 35.4996ZM30.2998 38.8996L24.2998 35.4996L30.2998 32.0996V38.8996ZM31.7998 39.7996L38.2998 36.0996L44.7998 39.7996L38.2998 43.4996L31.7998 39.7996ZM37.7998 34.6996L31.7998 31.2996L37.7998 27.8996V34.6996ZM29.7998 31.1996L23.7998 34.5996V27.8996L29.7998 31.1996ZM22.7998 51.6996L16.2998 47.9996V40.5996L22.7998 44.2996V51.6996ZM23.7998 51.6996V44.8996L29.7998 48.2996L23.7998 51.6996ZM45.2998 47.9996L38.7998 51.6996V44.2996L45.2998 40.5996V47.9996Z" fill="white"/>
</g>
</g>
</g>
<defs>
<clipPath id="clip0_3748_15902">
<rect width="60" height="60" fill="white"/>
</clipPath>
<clipPath id="clip1_3748_15902">
<rect width="60" height="60" fill="white"/>
</clipPath>
<clipPath id="clip2_3748_15902">
<rect width="60" height="60" fill="white"/>
</clipPath>
</defs>
</svg>
