<svg width="60" height="60" viewBox="0 0 60 60" fill="none" xmlns="http://www.w3.org/2000/svg">
<g clip-path="url(#clip0_3748_15045)">
<path d="M60 0H0V60.2H60V0Z" fill="#E62530"/>
<path d="M5.2001 7.5002C4.9001 7.6002 4.6001 7.8002 4.3001 7.9002C3.9001 8.0002 3.7001 8.1002 3.6001 8.1002V6.5002C4.0001 6.3002 4.4001 6.1002 4.7001 5.9002C5.0001 5.7002 5.4001 5.5002 5.7001 5.2002H7.4001V16.7002H5.2001V7.5002Z" fill="white"/>
<path d="M12.2002 5.2002H12.7002L13.8002 7.7002V5.2002H14.5002V9.5002H14.0002L12.9002 7.0002V9.6002H12.2002V5.2002Z" fill="white"/>
<path d="M15.3 9.29961C15.1 8.99961 15 8.59961 15 8.19961V6.59961C15 6.19961 15.1 5.89961 15.3 5.49961C15.5 5.19961 15.9 5.09961 16.3 5.09961C16.7 5.09961 17 5.19961 17.3 5.49961C17.5 5.79961 17.6 6.19961 17.6 6.59961V8.19961C17.6 8.59961 17.5 8.99961 17.3 9.29961C17.1 9.59961 16.7 9.69961 16.3 9.69961C15.9 9.69961 15.6 9.59961 15.3 9.29961ZM16.6 8.89961C16.7 8.69961 16.7 8.59961 16.7 8.39961V6.39961C16.7 6.19961 16.7 6.09961 16.6 5.89961C16.5 5.79961 16.4 5.69961 16.2 5.69961C16.1 5.69961 15.9 5.69961 15.8 5.89961C15.7 5.99961 15.7 6.19961 15.7 6.39961V8.39961C15.7 8.59961 15.7 8.69961 15.8 8.89961C16 8.99961 16.1 9.09961 16.2 9.09961C16.4 9.09961 16.5 8.99961 16.6 8.89961Z" fill="white"/>
<path d="M12.2002 12.4004H13.5002C14.2002 12.4004 14.6002 12.8004 14.6002 13.6004C14.7002 14.2004 14.3002 14.7004 13.7002 14.8004C13.6002 14.8004 13.5002 14.8004 13.4002 14.8004H13.0002V16.7004H12.2002V12.4004ZM13.3002 14.3004C13.5002 14.3004 13.6002 14.3004 13.7002 14.2004C13.8002 14.1004 13.8002 13.9004 13.8002 13.7004C13.8002 13.6004 13.8002 13.4004 13.8002 13.3004C13.8002 13.2004 13.7002 13.1004 13.6002 13.0004C13.5002 12.9004 13.4002 12.9004 13.2002 12.9004H12.9002V14.2004L13.3002 14.3004Z" fill="white"/>
<path d="M15.3 16.4998C15.1 16.1998 15 15.7998 15 15.3998V13.7998C15 13.3998 15.1 13.0998 15.3 12.6998C15.5 12.3998 15.9 12.2998 16.3 12.2998C16.7 12.2998 17 12.3998 17.3 12.6998C17.5 12.9998 17.6 13.3998 17.6 13.7998V15.3998C17.6 15.7998 17.5 16.1998 17.3 16.4998C16.7 16.8998 15.8 16.8998 15.3 16.4998ZM16.6 16.0998C16.7 15.8998 16.7 15.7998 16.7 15.5998V13.5998C16.7 13.3998 16.7 13.2998 16.6 13.0998C16.5 12.9998 16.4 12.8998 16.2 12.8998C16 12.8998 15.9 12.8998 15.8 13.0998C15.7 13.1998 15.7 13.3998 15.7 13.5998V15.5998C15.7 15.7998 15.7 15.8998 15.8 16.0998C15.9 16.1998 16 16.2998 16.2 16.2998C16.4 16.2998 16.5 16.1998 16.6 16.0998Z" fill="white"/>
<path d="M17.8999 12.4004H18.5999L19.1999 15.5004L19.6999 12.4004H20.3999L19.4999 16.8004H18.6999L17.8999 12.4004Z" fill="white"/>
<path d="M20.8999 12.4004H22.6999V13.0004H21.6999V14.3004H22.4999V14.9004H21.6999V16.4004H22.7999V16.9004H20.9999V12.4004H20.8999Z" fill="white"/>
<path d="M23.1001 12.4004H24.2001C24.6001 12.4004 24.9001 12.5004 25.2001 12.7004C25.5001 12.9004 25.6001 13.3004 25.5001 13.6004C25.5001 13.8004 25.5001 14.1004 25.4001 14.3004C25.3001 14.5004 25.2001 14.6004 25.0001 14.7004L25.6001 16.9004H24.8001L24.3001 14.9004H23.9001V16.9004H23.1001V12.4004ZM24.2001 14.3004C24.4001 14.3004 24.6001 14.3004 24.7001 14.1004C24.8001 14.0004 24.9001 13.8004 24.8001 13.6004C24.8001 13.4004 24.8001 13.2004 24.7001 13.1004C24.6001 13.0004 24.4001 13.0004 24.2001 13.0004H23.9001V14.3004H24.2001Z" fill="white"/>
<path d="M26.5999 13.0004H25.8999V12.4004H28.1999V13.0004H27.4999V16.8004H26.6999L26.5999 13.0004Z" fill="white"/>
<path d="M29.1001 15.1004L28.1001 12.4004H28.8001L29.3001 14.1004L29.8001 12.4004H30.5001L29.6001 15.1004V16.8004H28.9001V15.1004H29.1001Z" fill="white"/>
<path d="M46.2998 28.7C46.2998 27.8 47.0998 27 47.9998 27C48.8998 27 49.6998 27.8 49.6998 28.7C49.6998 29.6 48.8998 30.4 47.9998 30.4C47.0998 30.4 46.2998 29.7 46.2998 28.7Z" fill="white"/>
<path d="M49.9999 31C51.0999 31.1 51.9999 32.1 51.9999 33.2V37.8C51.9999 38.2 51.7999 38.5 51.3999 38.5C50.9999 38.5 50.6999 38.3 50.6999 37.9C50.6999 37.8 50.6999 37.8 50.6999 37.7V33.7C50.6999 33.5 50.5999 33.4 50.4999 33.4C50.4999 33.4 50.4999 33.4 50.3999 33.4C50.1999 33.4 50.1999 33.6 50.1999 33.7V45.6C50.0999 46.1 49.5999 46.4 48.9999 46.3C48.6999 46.2 48.3999 45.9 48.2999 45.6V38.7C48.2999 38.6 48.1999 38.4 48.0999 38.4C47.9999 38.4 47.7999 38.5 47.7999 38.6V45.5C47.7999 46 47.3999 46.5 46.7999 46.5C46.1999 46.5 45.7999 46.1 45.7999 45.5V33.9C45.7999 33.8 45.7999 33.6 45.5999 33.6C45.3999 33.6 45.2999 33.8 45.2999 33.9V37.9C45.2999 38.3 44.9999 38.6 44.5999 38.6C44.1999 38.6 43.8999 38.3 43.8999 37.9V33.3C43.8999 32.1 44.7999 31.2 45.8999 31.1H49.9999" fill="white"/>
<path d="M36.4002 29.6C36.4002 28.7 35.7002 28 34.8002 28C33.9002 28 33.2002 28.7 33.2002 29.6C33.2002 30.5 33.9002 31.2 34.8002 31.2C35.7002 31.2 36.4002 30.5 36.4002 29.6Z" fill="white"/>
<path d="M31.6001 33.2L30.3001 37.5C30.3001 37.5 30.1001 38.3 30.7001 38.5C31.4001 38.7 31.6001 37.9 31.6001 37.9L32.7001 34.3C32.7001 34.3 32.8001 34 33.0001 34.1C33.2001 34.2 33.1001 34.5 33.1001 34.5L31.3001 41.2H33.0001V46C33.0001 46.5 33.5001 46.8 33.9001 46.7C34.3001 46.7 34.6001 46.4 34.6001 46V41.2H35.0001V46C35.0001 46.5 35.3001 46.9 35.8001 46.9C36.3001 46.9 36.7001 46.6 36.7001 46.1V41.3H38.4001L36.6001 34.6C36.6001 34.6 36.5001 34.3 36.7001 34.2C36.9001 34.1 37.0001 34.4 37.0001 34.4L38.1001 38C38.1001 38 38.3001 38.8 39.0001 38.6C39.7001 38.4 39.4001 37.6 39.4001 37.6L38.0001 33.2C38.0001 33.2 37.5001 32 36.5001 32H33.1001C32.1001 32 31.7001 33.2 31.6001 33.2Z" fill="white"/>
<path d="M26.9002 29.6C26.9002 28.7 26.2002 28 25.3002 28C24.4002 28 23.7002 28.7 23.7002 29.6C23.7002 30.5 24.4002 31.2 25.3002 31.2C26.2002 31.2 26.9002 30.5 26.9002 29.6Z" fill="white"/>
<path d="M22.1001 33.2L20.8001 37.5C20.8001 37.5 20.6001 38.3 21.2001 38.5C21.9001 38.7 22.1001 37.9 22.1001 37.9L23.2001 34.3C23.2001 34.3 23.3001 34 23.5001 34.1C23.7001 34.2 23.6001 34.5 23.6001 34.5L21.8001 41.2H23.5001V46C23.5001 46.5 23.9001 46.8 24.3001 46.8C24.7001 46.8 25.1001 46.4 25.1001 46V41.2H25.6001V46C25.7001 46.4 26.1001 46.8 26.5001 46.7C26.8001 46.6 27.1001 46.4 27.2001 46.1V41.3H28.9001L27.0001 34.5C27.0001 34.5 26.9001 34.2 27.1001 34.1C27.3001 34 27.4001 34.3 27.4001 34.3L28.5001 37.9C28.5001 37.9 28.7001 38.7 29.4001 38.5C30.1001 38.3 29.8001 37.5 29.8001 37.5L28.5001 33.2C28.5001 33.2 28.0001 32 27.0001 32H23.7001C22.6001 32 22.1001 33.2 22.1001 33.2Z" fill="white"/>
<path d="M41.6999 38.3998C42.3999 38.3998 42.9999 37.7998 42.9999 37.0998C42.9999 36.3998 42.3999 35.7998 41.6999 35.7998C40.9999 35.7998 40.3999 36.3998 40.3999 37.0998C40.3999 37.8998 40.9999 38.3998 41.6999 38.3998Z" fill="white"/>
<path d="M38.5002 42.5C38.4002 42.7 38.5002 43 38.7002 43.1C38.9002 43.2 39.2002 43.1 39.3002 42.9L40.0002 40.6C40.0002 40.6 40.1002 40.4 40.1002 40.6V46C40.1002 46.4 40.4002 46.7 40.8002 46.7C41.2002 46.7 41.5002 46.4 41.5002 46V44C41.5002 44 41.5002 43.7 41.7002 43.7C41.9002 43.7 41.9002 44 41.9002 44V46.1C41.9002 46.5 42.2002 46.8 42.6002 46.8C43.0002 46.8 43.3002 46.5 43.3002 46.1V40.7C43.3002 40.5 43.4002 40.7 43.4002 40.7L44.0002 42.3C44.1002 42.6 44.2002 42.8 44.3002 43C44.6002 43.1 44.8002 43 45.0002 42.7C45.1002 42.5 45.1002 42.4 45.0002 42.2C45.0002 42.2 44.2002 40.1 44.0002 39.8C43.6002 39 43.1002 39 42.6002 39C42.1002 39 41.8002 39 41.8002 39C41.8002 39 41.5002 39 40.8002 39C40.1002 39 39.9002 39.4 39.1002 41.3C38.9002 41.6 38.6002 42.5 38.5002 42.5Z" fill="white"/>
<path d="M12.7999 28.7C12.7999 27.8 11.9999 27 11.0999 27C10.1999 27 9.3999 27.8 9.3999 28.7C9.3999 29.6 10.1999 30.4 11.0999 30.4C11.9999 30.4 12.7999 29.7 12.7999 28.7Z" fill="white"/>
<path d="M9.1001 31C8.0001 31.1 7.1001 32.1 7.1001 33.2V37.8C7.1001 38.2 7.3001 38.5 7.7001 38.5C8.1001 38.5 8.4001 38.3 8.4001 37.9C8.4001 37.8 8.4001 37.8 8.4001 37.7V33.7C8.4001 33.5 8.5001 33.4 8.6001 33.4C8.6001 33.4 8.6001 33.4 8.7001 33.4C8.9001 33.4 8.9001 33.6 8.9001 33.7V45.6C8.8001 46.1 9.1001 46.6 9.6001 46.8C10.1001 47 10.6001 46.6 10.8001 46.1C10.8001 45.9 10.8001 45.8 10.8001 45.6V38.7C10.8001 38.6 10.9001 38.4 11.0001 38.4C11.1001 38.4 11.3001 38.5 11.3001 38.6V45.5C11.3001 46 11.7001 46.5 12.3001 46.5C12.8001 46.5 13.3001 46.1 13.3001 45.5V33.9C13.3001 33.8 13.3001 33.6 13.5001 33.6C13.7001 33.6 13.8001 33.8 13.8001 33.9V37.9C13.8001 38.3 14.1001 38.6 14.5001 38.6C14.9001 38.6 15.2001 38.3 15.2001 37.9V33.3C15.2001 32.1 14.3001 31.2 13.2001 31.1H9.1001" fill="white"/>
<path d="M6.1998 46.8002C5.8998 46.8002 5.7998 46.6002 5.7998 46.4002L7.2998 38.5002C7.2998 38.3002 7.4998 38.2002 7.6998 38.2002C7.8998 38.2002 7.9998 38.4002 7.9998 38.6002L6.4998 46.5002C6.4998 46.7002 6.2998 46.8002 6.1998 46.8002Z" fill="white"/>
<path d="M15.8 37.8C15.7 37.6 15.4 37.5 15.1 37.7C15 37.7 15 37.9 15 38C15 38.1 15 38.1 15 38.2L16.3 40.6C16.4 40.7 16.4 40.8 16.4 40.9V46.1C16.4 46.5 16.7 46.8 17.1 46.8C17.5 46.8 17.8 46.5 17.8 46.1V44.1C17.8 44.1 17.8 43.8 18 43.8C18.2 43.8 18.2 44.1 18.2 44.1V46.1C18.2 46.5 18.5 46.8 18.9 46.8C19.3 46.8 19.6 46.5 19.6 46.1V40.9C19.6 40.8 19.6 40.7 19.7 40.6L20.9 38.4C21 38.3 21 38.1 21.1 38C21.1 37.7 20.9 37.5 20.6 37.5C20.4 37.5 20.3 37.6 20.2 37.7C20.2 37.7 19.5 38.8 19.3 39C19.2 39.1 19.1 39.2 18.9 39.2H17.3C17.1 39.2 17 39.1 16.9 39C16.5 38.9 15.9 37.8 15.8 37.8Z" fill="white"/>
<path d="M17.9001 38.4002C18.6001 38.4002 19.2001 37.8002 19.3001 37.1002C19.3001 36.4002 18.7001 35.8002 18.0001 35.7002C17.3001 35.7002 16.7001 36.3002 16.6001 37.0002C16.6001 37.9002 17.2001 38.4002 17.9001 38.4002Z" fill="white"/>
<path d="M17.9002 40.2998L19.4002 41.3998L20.1002 43.9998H17.9002H15.7002L16.4002 41.3998L17.9002 40.2998Z" fill="white"/>
</g>
<defs>
<clipPath id="clip0_3748_15045">
<rect width="60" height="60" fill="white"/>
</clipPath>
</defs>
</svg>
