<svg width="60" height="60" viewBox="0 0 60 60" fill="none" xmlns="http://www.w3.org/2000/svg">
<g clip-path="url(#clip0_3748_15892)">
<g clip-path="url(#clip1_3748_15892)">
<g clip-path="url(#clip2_3748_15892)">
<path d="M60.7999 0H-0.100098V59.9H60.7999V0Z" fill="#FAB71D"/>
<path d="M8.0999 6.9002H4.8999V5.2002H10.1999V6.7002L7.6999 16.7002H5.5999L8.0999 6.9002Z" fill="white"/>
<path d="M15.8 5.2002H16.7L17.6 9.6002H16.9L16.7 8.6002H15.9L15.7 9.6002H15L15.8 5.2002ZM16.6 8.1002L16.3 6.3002L16 8.1002H16.6Z" fill="white"/>
<path d="M17.8999 5.2002H19.6999V5.7002H18.6999V7.0002H19.4999V7.6002H18.6999V9.6002H17.9999L17.8999 5.2002Z" fill="white"/>
<path d="M20.1001 5.2002H21.9001V5.7002H20.9001V7.0002H21.7001V7.6002H20.9001V9.6002H20.1001V5.2002Z" fill="white"/>
<path d="M22.4997 9.29961C22.2997 8.99961 22.1997 8.59961 22.1997 8.19961V6.59961C22.1997 6.19961 22.2997 5.89961 22.4997 5.49961C22.7997 5.19961 23.0997 5.09961 23.4997 5.09961C23.8997 5.09961 24.1997 5.19961 24.4997 5.49961C24.6997 5.79961 24.7997 6.19961 24.7997 6.59961V8.19961C24.7997 8.59961 24.6997 8.99961 24.4997 9.29961C24.2997 9.59961 23.8997 9.69961 23.4997 9.69961C23.0997 9.69961 22.6997 9.59961 22.4997 9.29961ZM23.7997 8.89961C23.8997 8.69961 23.8997 8.59961 23.8997 8.39961V6.39961C23.8997 6.19961 23.8997 6.09961 23.7997 5.89961C23.6997 5.79961 23.5997 5.69961 23.3997 5.69961C23.2997 5.69961 23.0997 5.69961 22.9997 5.89961C22.9997 6.09961 22.9997 6.19961 22.9997 6.39961V8.39961C22.9997 8.59961 22.9997 8.69961 23.0997 8.89961C23.1997 8.99961 23.2997 9.09961 23.4997 9.09961C23.5997 9.09961 23.6997 8.99961 23.7997 8.89961Z" fill="white"/>
<path d="M25.1997 5.2002H26.2997C26.6997 5.2002 26.9997 5.3002 27.3997 5.5002C27.6997 5.7002 27.7997 6.1002 27.6997 6.4002C27.6997 6.6002 27.6997 6.9002 27.5997 7.1002C27.4997 7.3002 27.3997 7.4002 27.1997 7.5002L27.7997 9.6002H26.9997L26.4997 7.6002H25.9997V9.6002H25.1997V5.2002ZM26.2997 7.1002C26.4997 7.1002 26.6997 7.1002 26.7997 6.9002C26.8997 6.8002 26.9997 6.6002 26.8997 6.4002C26.8997 6.2002 26.8997 6.0002 26.7997 5.9002C26.6997 5.8002 26.4997 5.7002 26.2997 5.7002H25.9997V7.0002H26.2997V7.1002Z" fill="white"/>
<path d="M28.1997 5.2002H29.2997C29.5997 5.2002 29.8997 5.2002 30.0997 5.3002C30.2997 5.4002 30.3997 5.5002 30.4997 5.7002C30.5997 5.9002 30.5997 6.2002 30.5997 6.5002V8.1002C30.5997 8.4002 30.5997 8.7002 30.4997 8.9002C30.3997 9.1002 30.2997 9.3002 30.0997 9.4002C29.7997 9.5002 29.5997 9.6002 29.2997 9.6002H28.1997V5.2002ZM29.1997 9.0002C29.2997 9.0002 29.4997 9.0002 29.5997 8.9002C29.6997 8.8002 29.6997 8.7002 29.6997 8.6002C29.6997 8.4002 29.6997 8.3002 29.6997 8.1002V6.5002C29.6997 6.4002 29.6997 6.2002 29.6997 6.1002C29.6997 6.0002 29.5997 5.9002 29.4997 5.9002C29.3997 5.8002 29.1997 5.8002 29.0997 5.8002H28.9997V9.0002H29.1997Z" fill="white"/>
<path d="M31.6997 5.2002H32.5997L33.4997 9.6002H32.6997L32.4997 8.6002H31.6997L31.4997 9.6002H30.6997L31.6997 5.2002ZM32.4997 8.1002L32.1997 6.3002L31.8997 8.1002H32.4997Z" fill="white"/>
<path d="M33.7998 5.2002H34.8998C35.1998 5.2002 35.5998 5.3002 35.8998 5.5002C36.0998 5.7002 36.2998 6.0002 36.1998 6.3002C36.1998 6.9002 35.9998 7.2002 35.5998 7.3002C36.0998 7.4002 36.3998 7.8002 36.3998 8.4002C36.3998 8.8002 36.2998 9.1002 36.0998 9.4002C35.8998 9.60019 35.4998 9.7002 35.1998 9.7002H33.8998V5.2002H33.7998ZM34.8998 7.0002C35.0998 7.0002 35.2998 7.0002 35.3998 6.8002C35.4998 6.7002 35.4998 6.5002 35.4998 6.3002C35.4998 6.1002 35.4998 6.0002 35.2998 5.8002C35.0998 5.7002 34.8998 5.7002 34.6998 5.7002H34.4998V7.0002H34.8998ZM34.8998 9.0002C35.0998 9.0002 35.2998 9.0002 35.3998 8.8002C35.4998 8.6002 35.4998 8.4002 35.4998 8.2002C35.4998 8.0002 35.4998 7.8002 35.3998 7.6002C35.2998 7.5002 35.0998 7.4002 34.8998 7.4002H34.5998V9.0002H34.8998Z" fill="white"/>
<path d="M36.7998 5.2002H37.5998V9.1002H38.6998V9.6002H36.7998V5.2002Z" fill="white"/>
<path d="M39 5.2002H40.9V5.8002H39.8V7.0002H40.6V7.6002H39.8V9.0002H40.9V9.6002H39V5.2002Z" fill="white"/>
<path d="M43.1001 5.2002H44.0001L44.9001 9.6002H44.1001L43.9001 8.6002H43.1001L42.9001 9.6002H42.1001L43.1001 5.2002ZM43.8001 8.1002L43.5001 6.3002L43.2001 8.1002H43.8001Z" fill="white"/>
<path d="M45.1997 5.2002H45.7997L46.8997 7.7002V5.2002H47.5997V9.6002H46.9997L45.8997 7.0002V9.6002H45.1997V5.2002Z" fill="white"/>
<path d="M48.1001 5.2002H49.2001C49.5001 5.2002 49.8001 5.2002 50.0001 5.3002C50.2001 5.4002 50.3001 5.5002 50.4001 5.7002C50.5001 5.9002 50.5001 6.2002 50.5001 6.5002V8.1002C50.5001 8.4002 50.5001 8.7002 50.4001 8.9002C50.3001 9.1002 50.2001 9.3002 50.0001 9.4002C49.7001 9.5002 49.5001 9.6002 49.2001 9.6002H48.1001V5.2002ZM49.1001 9.0002C49.2001 9.0002 49.4001 9.0002 49.5001 8.9002C49.6001 8.8002 49.6001 8.8002 49.7001 8.6002C49.7001 8.4002 49.7001 8.3002 49.7001 8.1002V6.5002C49.7001 6.4002 49.7001 6.2002 49.7001 6.1002C49.7001 6.0002 49.6001 5.9002 49.5001 5.9002C49.4001 5.8002 49.2001 5.8002 49.1001 5.8002H48.9001V9.0002H49.1001Z" fill="white"/>
<path d="M15.4001 16.3996C15.2001 16.0996 15.1001 15.6996 15.1001 15.2996V13.6996C15.1001 13.2996 15.2001 12.8996 15.4001 12.5996C15.9001 12.0996 16.7001 12.0996 17.3001 12.5996C17.5001 12.8996 17.6001 13.1996 17.6001 13.5996V13.9996H16.8001V13.5996C16.8001 13.4996 16.8001 13.3996 16.8001 13.1996C16.8001 13.0996 16.7001 12.9996 16.7001 12.9996C16.6001 12.8996 16.5001 12.8996 16.4001 12.8996C16.3001 12.8996 16.2001 12.8996 16.1001 12.9996C16.0001 13.0996 16.0001 13.1996 16.0001 13.2996C16.0001 13.3996 16.0001 13.5996 16.0001 13.6996V15.5996C16.0001 15.7996 16.0001 15.9996 16.1001 16.0996C16.2001 16.1996 16.3001 16.2996 16.5001 16.2996C16.6001 16.2996 16.7001 16.2996 16.8001 16.1996C16.9001 16.0996 16.9001 16.0996 16.9001 15.9996C16.9001 15.8996 16.9001 15.6996 16.9001 15.5996V15.1996H17.7001V15.5996C17.7001 15.8996 17.6001 16.2996 17.4001 16.5996C17.2001 16.8996 16.8001 16.9996 16.4001 16.8996C16.0001 16.8996 15.6001 16.6996 15.4001 16.3996Z" fill="white"/>
<path d="M18 12.4004H18.8V16.2004H19.9V16.8004H18V12.4004Z" fill="white"/>
<path d="M20.1997 12.4004H22.0997V13.0004H20.9997V14.3004H21.7997V14.9004H20.9997V16.3004H22.0997V16.9004H20.1997V12.4004Z" fill="white"/>
<path d="M23.0998 12.4004H23.9998L24.8998 16.8004H24.1998L23.9998 15.8004H23.1998L22.9998 16.8004H22.2998L23.0998 12.4004ZM23.8998 15.2004L23.5998 13.4004L23.2998 15.2004H23.8998Z" fill="white"/>
<path d="M25.1997 12.4004H25.7997L26.8997 14.9004V12.4004H27.5997V16.8004H26.9997L25.8997 14.2004V16.8004H25.1997V12.4004Z" fill="white"/>
<path d="M29.2998 12.4004H31.1998V13.0004H30.1998V14.3004H30.9998V14.9004H30.1998V16.3004H31.2998V16.9004H29.3998V12.4004H29.2998Z" fill="white"/>
<path d="M31.6001 12.4004H32.2001L33.3001 14.9004V12.4004H34.0001V16.8004H33.5001L32.4001 14.2004V16.8004H31.7001L31.6001 12.4004Z" fill="white"/>
<path d="M34.3999 12.4004H36.2999V13.0004H35.1999V14.3004H35.9999V14.9004H35.1999V16.3004H36.2999V16.9004H34.3999V12.4004Z" fill="white"/>
<path d="M36.6997 12.4004H37.7997C38.1997 12.4004 38.4997 12.5004 38.8997 12.7004C39.1997 12.9004 39.2997 13.3004 39.1997 13.6004C39.1997 13.8004 39.1997 14.1004 39.0997 14.3004C38.9997 14.5004 38.8997 14.6004 38.6997 14.7004L39.2997 16.9004H38.4997L37.9997 14.9004H37.5997V16.9004H36.7997V12.4004H36.6997ZM37.6997 14.2004C37.8997 14.2004 38.0997 14.2004 38.1997 14.0004C38.2997 13.9004 38.3997 13.7004 38.2997 13.5004C38.2997 13.3004 38.2997 13.1004 38.1997 13.0004C38.0997 12.9004 37.8997 12.8004 37.6997 12.8004H37.3997V14.1004L37.6997 14.2004Z" fill="white"/>
<path d="M39.8 16.3998C39.6 16.0998 39.5 15.6998 39.5 15.2998V13.7998C39.5 13.3998 39.6 12.9998 39.8 12.6998C40 12.3998 40.4 12.2998 40.8 12.2998C41.2 12.2998 41.5 12.3998 41.8 12.5998C42 12.8998 42.1 13.1998 42.1 13.5998V13.7998H41.3V13.4998C41.3 13.3998 41.3 13.1998 41.3 13.0998C41.3 12.9998 41.2 12.8998 41.2 12.8998C41.1 12.7998 41 12.7998 40.9 12.7998C40.8 12.7998 40.7 12.7998 40.6 12.8998C40.5 12.9998 40.5 13.0998 40.5 13.1998C40.5 13.2998 40.5 13.4998 40.5 13.5998V15.3998C40.5 15.5998 40.5 15.7998 40.6 15.9998C40.7 16.0998 40.8 16.1998 41 16.1998C41.2 16.1998 41.3 16.0998 41.4 15.9998C41.5 15.7998 41.5 15.5998 41.5 15.3998V14.9998H41V14.4998H42.2V16.6998H41.7L41.6 16.2998C41.5 16.5998 41.2 16.7998 40.9 16.7998C40.5 16.7998 40.1 16.6998 39.8 16.3998Z" fill="white"/>
<path d="M43.1998 15.1004L42.2998 12.4004H42.9998L43.5998 14.1004L44.0998 12.4004H44.8998L43.9998 15.1004V16.8004H43.1998V15.1004Z" fill="white"/>
<path d="M30.3999 29.2002C25.3999 29.2002 21.3999 33.2002 21.3999 38.0002C21.3999 42.8002 25.3999 46.8002 30.3999 46.8002C35.3999 46.8002 39.3999 42.8002 39.3999 38.0002C39.3999 33.2002 35.2999 29.2002 30.3999 29.2002ZM29.6999 32.7002C29.6999 32.4002 29.9999 32.1002 30.3999 32.1002C30.7999 32.1002 30.9999 32.4002 31.0999 32.7002V35.7002C31.0999 36.0002 30.7999 36.3002 30.3999 36.3002C29.9999 36.3002 29.7999 36.0002 29.6999 35.7002V32.7002ZM30.3999 42.6002C27.7999 42.6002 25.6999 40.6002 25.6999 38.0002C25.6999 36.0002 26.9999 34.2002 28.9999 33.6002V35.3002C27.4999 36.0002 26.8999 37.9002 27.5999 39.4002C28.3999 40.9002 30.1999 41.5002 31.6999 40.7002C33.1999 39.9002 33.7999 38.1002 33.0999 36.6002C32.7999 36.0002 32.2999 35.6002 31.6999 35.3002V33.6002C34.1999 34.3002 35.4999 36.9002 34.7999 39.3002C34.2999 41.3002 32.3999 42.6002 30.3999 42.6002Z" fill="white"/>
<path d="M20.0998 37.9998C20.0998 37.5998 19.7998 37.2998 19.3998 37.2998H15.4998C15.0998 37.2998 14.7998 37.5998 14.7998 37.9998C14.7998 38.3998 15.0998 38.6998 15.4998 38.6998H19.3998C19.7998 38.6998 20.0998 38.3998 20.0998 37.9998Z" fill="white"/>
<path d="M45.9997 37.9998C45.9997 37.5998 45.6997 37.2998 45.2997 37.2998H41.3997C40.9997 37.2998 40.6997 37.5998 40.6997 37.9998C40.6997 38.3998 40.9997 38.6998 41.3997 38.6998H45.2997C45.6997 38.6998 45.9997 38.3998 45.9997 37.9998Z" fill="white"/>
<path d="M30.3997 53.3C30.7997 53.3 31.0997 53 31.0997 52.6V48.7C31.0997 48.3 30.6997 48 30.3997 48C29.9997 48 29.6997 48.3 29.6997 48.7V52.6C29.6997 53 29.9997 53.3 30.3997 53.3Z" fill="white"/>
<path d="M43.8997 45.5996C44.0997 45.2996 43.9997 44.7996 43.6997 44.5996L40.2997 42.6996C39.8997 42.4996 39.4997 42.6996 39.2997 42.9996C39.0997 43.2996 39.2997 43.6996 39.5997 43.8996L42.9997 45.7996C43.2997 46.0996 43.7997 45.8996 43.8997 45.5996Z" fill="white"/>
<path d="M22.5997 51.2996C22.8997 51.4996 23.3997 51.3996 23.5997 51.0996L25.5997 47.6996C25.7997 47.3996 25.6997 46.8996 25.2997 46.6996C24.8997 46.4996 24.4997 46.5996 24.2997 46.9996L22.2997 50.3996C22.1997 50.6996 22.2997 51.0996 22.5997 51.2996Z" fill="white"/>
<path d="M38.2001 51.2998C38.5001 51.0998 38.7001 50.6998 38.5001 50.2998L36.5001 46.8998C36.3001 46.5998 35.9001 46.4998 35.5001 46.6998C35.2001 46.8998 35.0001 47.2998 35.2001 47.6998L37.2001 50.9998C37.4001 51.3998 37.8001 51.4998 38.2001 51.2998Z" fill="white"/>
<path d="M16.8998 45.5996C17.0998 45.8996 17.4998 46.0996 17.8998 45.8996L21.2998 43.9996C21.6998 43.7996 21.7998 43.3996 21.5998 42.9996C21.3998 42.6996 20.8998 42.4996 20.5998 42.6996L17.1998 44.5996C16.7998 44.8996 16.6998 45.2996 16.8998 45.5996Z" fill="white"/>
<path d="M30.3997 27.8C30.7997 27.8 31.0997 27.5 31.0997 27.1V23.2C31.0997 22.8 30.7997 22.5 30.3997 22.5C29.9997 22.5 29.6997 22.8 29.6997 23.2V27.1C29.6997 27.5 29.9997 27.8 30.3997 27.8Z" fill="white"/>
<path d="M21.4997 32.9004C21.6997 32.6004 21.5997 32.1004 21.2997 31.9004L17.7997 30.0004C17.3997 29.8004 16.9997 30.0004 16.7997 30.3004C16.5997 30.6004 16.7997 31.0004 17.0997 31.2004L20.4997 33.1004C20.7997 33.4004 21.2997 33.3004 21.4997 32.9004Z" fill="white"/>
<path d="M35.5001 29.2C35.8001 29.4 36.3001 29.3 36.5001 29L38.5001 25.6C38.7001 25.3 38.6001 24.8 38.2001 24.6C37.8001 24.4 37.4001 24.5 37.2001 24.9L35.2001 28.3C35.0001 28.6 35.2001 29 35.5001 29.2Z" fill="white"/>
<path d="M25.2001 29.1998C25.5001 28.9998 25.7001 28.5998 25.5001 28.1998L23.5001 24.8998C23.3001 24.5998 22.8001 24.4998 22.5001 24.6998C22.2001 24.8998 22.1001 25.2998 22.2001 25.5998L24.2001 28.8998C24.5001 29.2998 24.9001 29.2998 25.2001 29.1998Z" fill="white"/>
<path d="M39.2997 32.9004C39.4997 33.2004 39.8997 33.4004 40.2997 33.2004L43.6997 31.3004C43.9997 31.1004 44.0997 30.6004 43.8997 30.3004C43.6997 30.0004 43.2997 29.9004 42.9997 30.0004L39.5997 32.0004C39.1997 32.2004 39.0997 32.6004 39.2997 32.9004Z" fill="white"/>
</g>
</g>
</g>
<defs>
<clipPath id="clip0_3748_15892">
<rect width="60" height="60" fill="white"/>
</clipPath>
<clipPath id="clip1_3748_15892">
<rect width="60" height="60" fill="white"/>
</clipPath>
<clipPath id="clip2_3748_15892">
<rect width="60" height="60" fill="white"/>
</clipPath>
</defs>
</svg>
