<svg width="60" height="60" viewBox="0 0 60 60" fill="none" xmlns="http://www.w3.org/2000/svg">
<g clip-path="url(#clip0_3750_17511)">
<g clip-path="url(#clip1_3750_17511)">
<path d="M60.5 0H-0.5V60.1H60.5V0Z" fill="#1D3766"/>
<path d="M4.8001 7.5002C4.7001 7.5002 4.4001 7.6002 3.9001 7.8002L3.1001 8.1002V6.5002C3.5001 6.3002 3.9001 6.1002 4.3001 5.9002C4.7001 5.7002 5.0001 5.5002 5.3001 5.2002H7.0001V16.7002H4.8001V7.5002Z" fill="white"/>
<path d="M11.4998 6.9002H8.2998V5.2002H13.5998V6.6002L11.0998 16.6002H9.0998L11.4998 6.9002Z" fill="white"/>
<path d="M19 5.2002H20.3C21.1 5.2002 21.4 5.6002 21.4 6.4002C21.5 7.0002 21.1 7.5002 20.5 7.6002C20.4 7.6002 20.3 7.6002 20.2 7.6002H19.7V9.5002H19V5.2002ZM20.1 7.1002C20.3 7.1002 20.4 7.1002 20.6 7.0002C20.7 6.8002 20.7 6.7002 20.7 6.5002C20.7 6.4002 20.7 6.2002 20.7 6.1002C20.7 6.0002 20.6 5.9002 20.6 5.9002C20.5 5.8002 20.4 5.8002 20.2 5.8002H19.8V7.1002H20.1Z" fill="white"/>
<path d="M22.2002 5.2002H23.1002L24.0002 9.6002H23.2002L23.0002 8.6002H22.2002L22.0002 9.6002H21.2002L22.2002 5.2002ZM23.0002 8.1002L22.7002 6.3002L22.4002 8.1002H23.0002Z" fill="white"/>
<path d="M24.2998 5.2002H25.3998C25.7998 5.2002 26.0998 5.3002 26.4998 5.5002C26.7998 5.7002 26.8998 6.1002 26.7998 6.4002C26.7998 6.6002 26.7998 6.9002 26.6998 7.1002C26.5998 7.3002 26.4998 7.4002 26.2998 7.5002L26.8998 9.7002H25.9998L25.4998 7.7002H25.0998V9.7002H24.2998V5.2002ZM25.2998 7.1002C25.4998 7.1002 25.6998 7.1002 25.7998 6.9002C25.9998 6.8002 25.9998 6.6002 25.9998 6.4002C25.9998 6.2002 25.9998 6.0002 25.8998 5.9002C25.7998 5.8002 25.5998 5.7002 25.3998 5.7002H25.0998V7.0002H25.2998V7.1002Z" fill="white"/>
<path d="M27.7 5.8002H27V5.2002H29.3V5.8002H28.6V9.6002H27.8V5.8002H27.7Z" fill="white"/>
<path d="M29.5 5.2002H30L31.1 7.7002V5.2002H31.8V9.6002H31.3L30.2 7.0002V9.6002H29.5V5.2002Z" fill="white"/>
<path d="M32.2998 5.2002H34.1998V5.8002H33.0998V7.0002H33.9998V7.6002H33.1998V9.0002H34.2998V9.5002H32.3998V5.2002H32.2998Z" fill="white"/>
<path d="M34.6001 5.2002H35.7001C36.1001 5.2002 36.4001 5.3002 36.8001 5.5002C36.9001 5.7002 37.1001 6.0002 37.0001 6.4002C37.0001 6.6002 37.0001 6.9002 36.9001 7.1002C36.8001 7.3002 36.7001 7.4002 36.5001 7.5002L37.1001 9.7002H36.3001L35.8001 7.7002H35.4001V9.7002H34.6001V5.2002ZM35.6001 7.1002C35.8001 7.1002 36.0001 7.1002 36.1001 6.9002C36.2001 6.8002 36.3001 6.6002 36.2001 6.4002C36.2001 6.2002 36.2001 6.0002 36.1001 5.9002C36.0001 5.8002 35.8001 5.7002 35.6001 5.7002H35.3001V7.0002H35.6001V7.1002Z" fill="white"/>
<path d="M37.6999 9.29961C37.4999 8.99961 37.3999 8.69961 37.3999 8.29961L38.0999 8.19961C38.0999 8.39961 38.0999 8.59961 38.1999 8.79961C38.2999 8.99961 38.4999 8.99961 38.5999 8.99961C38.6999 8.99961 38.7999 8.99961 38.8999 8.89961C38.9999 8.79961 38.9999 8.69961 38.9999 8.59961C38.9999 8.39961 38.9999 8.29961 38.8999 8.19961C38.7999 8.09961 38.6999 7.89961 38.4999 7.79961L37.8999 7.29961C37.6999 7.19961 37.5999 6.99961 37.4999 6.79961C37.3999 6.59961 37.3999 6.39961 37.3999 6.19961C37.3999 5.89961 37.4999 5.59961 37.6999 5.39961C37.8999 5.19961 38.1999 5.09961 38.4999 5.09961C38.7999 5.09961 39.0999 5.19961 39.2999 5.39961C39.4999 5.69961 39.5999 5.99961 39.5999 6.29961L38.9999 6.49961C38.9999 6.29961 38.9999 6.09961 38.8999 5.99961C38.7999 5.89961 38.6999 5.79961 38.5999 5.79961C38.4999 5.79961 38.3999 5.79961 38.2999 5.89961C38.1999 5.99961 38.1999 6.09961 38.1999 6.19961C38.1999 6.29961 38.1999 6.39961 38.2999 6.49961C38.3999 6.59961 38.4999 6.69961 38.5999 6.79961L39.1999 7.29961C39.3999 7.49961 39.5999 7.69961 39.6999 7.89961C39.7999 8.09961 39.8999 8.39961 39.8999 8.59961C39.8999 8.79961 39.8999 8.99961 39.7999 9.19961C39.6999 9.39961 39.5999 9.49961 39.3999 9.59961C39.1999 9.69961 38.9999 9.69961 38.7999 9.69961C38.2999 9.69961 37.9999 9.49961 37.6999 9.29961Z" fill="white"/>
<path d="M40.1001 5.2002H40.9001V7.0002H41.8001V5.2002H42.6001V9.6002H41.8001V7.6002H40.9001V9.5002H40.1001V5.2002Z" fill="white"/>
<path d="M43.2002 5.2002H44.0002V9.6002H43.2002V5.2002Z" fill="white"/>
<path d="M44.6001 5.2002H45.9001C46.7001 5.2002 47.0001 5.6002 47.0001 6.4002C47.1001 7.0002 46.7001 7.5002 46.1001 7.6002C46.0001 7.6002 45.9001 7.6002 45.8001 7.6002H45.4001V9.5002H44.6001V5.2002ZM45.7001 7.1002C45.9001 7.1002 46.0001 7.1002 46.1001 7.0002C46.2001 6.9002 46.2001 6.7002 46.2001 6.5002C46.2001 6.4002 46.2001 6.2002 46.2001 6.1002C46.2001 6.0002 46.1001 5.9002 46.0001 5.9002C45.9001 5.8002 45.8001 5.8002 45.6001 5.8002H45.3001V7.1002H45.7001Z" fill="white"/>
<path d="M47.5998 9.29961C47.3998 8.99961 47.2998 8.69961 47.2998 8.29961L47.9998 8.19961C47.9998 8.39961 47.9998 8.59961 48.0998 8.79961C48.1998 8.99961 48.2998 8.99961 48.4998 8.99961C48.5998 8.99961 48.6998 8.99961 48.7998 8.89961C48.8998 8.79961 48.8998 8.69961 48.8998 8.59961C48.8998 8.39961 48.8998 8.29961 48.7998 8.19961C48.6998 8.09961 48.5998 7.89961 48.3998 7.79961L47.7998 7.29961C47.5998 7.19961 47.4998 6.99961 47.3998 6.79961C47.2998 6.59961 47.2998 6.39961 47.2998 6.19961C47.2998 5.89961 47.3998 5.59961 47.5998 5.39961C47.7998 5.19961 48.0998 5.09961 48.4998 5.09961C48.7998 5.09961 49.0998 5.19961 49.2998 5.39961C49.4998 5.69961 49.5998 5.99961 49.5998 6.29961L48.8998 6.39961C48.8998 6.19961 48.8998 5.99961 48.7998 5.89961C48.6998 5.79961 48.5998 5.69961 48.4998 5.69961C48.3998 5.69961 48.2998 5.69961 48.1998 5.79961C48.0998 5.99961 47.9998 6.09961 47.9998 6.19961C47.9998 6.29961 47.9998 6.39961 48.0998 6.49961C48.1998 6.59961 48.2998 6.69961 48.3998 6.79961L48.9998 7.29961C49.1998 7.49961 49.3998 7.69961 49.4998 7.89961C49.5998 8.09961 49.6998 8.39961 49.6998 8.59961C49.6998 8.79961 49.6998 8.99961 49.5998 9.19961C49.4998 9.39961 49.3998 9.49961 49.1998 9.59961C48.9998 9.69961 48.7998 9.79961 48.5998 9.69961C48.0998 9.69961 47.7998 9.49961 47.5998 9.29961Z" fill="white"/>
<path d="M19 12.2998H20.8V12.8998H19.7V14.1998H20.5V14.7998H19.7V16.7998H19V12.2998Z" fill="white"/>
<path d="M21.3 16.4002C21.1 16.1002 21 15.7002 21 15.3002V13.7002C21 13.3002 21.1 13.0002 21.3 12.6002C21.6 12.3002 21.9 12.2002 22.3 12.2002C22.7 12.2002 23 12.3002 23.3 12.6002C23.5 12.9002 23.6 13.3002 23.6 13.7002V15.3002C23.6 15.7002 23.5 16.1002 23.3 16.4002C23.1 16.7002 22.7 16.8002 22.3 16.8002C21.9 16.8002 21.6 16.7002 21.3 16.4002ZM22.7 16.0002C22.8 15.8002 22.8 15.7002 22.8 15.5002V13.5002C22.8 13.3002 22.8 13.2002 22.7 13.0002C22.6 12.9002 22.5 12.8002 22.3 12.8002C22.1 12.8002 22 12.8002 21.9 13.0002C21.8 13.1002 21.8 13.3002 21.8 13.5002V15.5002C21.8 15.7002 21.8 15.8002 21.9 16.0002C22 16.1002 22.1 16.2002 22.3 16.2002C22.5 16.2002 22.6 16.2002 22.7 16.0002Z" fill="white"/>
<path d="M24 12.2998H25.1C25.5 12.2998 25.8 12.3998 26.1 12.5998C26.4 12.7998 26.5 13.1998 26.5 13.4998C26.5 13.6998 26.5 13.9998 26.4 14.1998C26.3 14.3998 26.2 14.4998 26 14.5998L26.6 16.7998H25.8L25.3 14.7998H24.9V16.7998H24V12.2998ZM25.1 14.1998C25.3 14.1998 25.5 14.1998 25.6 13.9998C25.7 13.8998 25.8 13.6998 25.7 13.4998C25.7 13.2998 25.7 13.0998 25.6 12.9998C25.5 12.8998 25.3 12.7998 25.1 12.7998H24.8V14.0998L25.1 14.1998Z" fill="white"/>
<path d="M28.4998 12.8998H27.7998V12.2998H30.0998V12.8998H29.3998V16.6998H28.5998V12.8998H28.4998Z" fill="white"/>
<path d="M30.2998 12.2998H31.0998V14.0998H31.9998V12.2998H32.7998V16.6998H31.9998V14.7998H31.0998V16.6998H30.2998V12.2998Z" fill="white"/>
<path d="M33.2998 12.2998H35.1998V12.8998H34.0998V14.1998H34.9998V14.7998H34.1998V16.2998H35.2998V16.7998H33.3998V12.2998H33.2998Z" fill="white"/>
<path d="M36.9001 16.3998C36.7001 16.0998 36.6001 15.6998 36.6001 15.2998V13.7998C36.6001 13.3998 36.7001 12.9998 36.9001 12.6998C37.1001 12.3998 37.5001 12.2998 37.9001 12.2998C38.3001 12.2998 38.6001 12.3998 38.9001 12.5998C39.1001 12.8998 39.2001 13.1998 39.2001 13.5998V13.7998H38.4001V13.4998C38.4001 13.3998 38.4001 13.1998 38.4001 13.0998C38.4001 12.9998 38.3001 12.8998 38.3001 12.8998C38.2001 12.7998 38.1001 12.7998 38.0001 12.7998C37.9001 12.7998 37.8001 12.7998 37.7001 12.8998C37.6001 12.9998 37.6001 13.0998 37.6001 13.1998C37.6001 13.2998 37.6001 13.4998 37.6001 13.5998V15.3998C37.6001 15.5998 37.6001 15.7998 37.7001 15.9998C37.9001 16.1998 38.1001 16.2998 38.4001 16.0998L38.5001 15.9998C38.6001 15.7998 38.6001 15.5998 38.6001 15.3998V14.9998H38.0001V14.4998H39.2001V16.6998H38.7001V16.2998C38.6001 16.5998 38.3001 16.7998 37.9001 16.7998C37.5001 16.8998 37.1001 16.6998 36.9001 16.3998Z" fill="white"/>
<path d="M39.8 16.4002C39.6 16.1002 39.5 15.7002 39.5 15.3002V13.7002C39.5 13.3002 39.6 13.0002 39.8 12.6002C40.1 12.3002 40.4 12.2002 40.8 12.2002C41.2 12.2002 41.5 12.3002 41.8 12.6002C42 12.9002 42.1 13.3002 42.1 13.7002V15.3002C42.1 15.7002 42 16.1002 41.8 16.4002C41.6 16.7002 41.2 16.8002 40.8 16.8002C40.4 16.8002 40.1 16.7002 39.8 16.4002ZM41.2 16.0002C41.3 15.8002 41.3 15.7002 41.3 15.5002V13.5002C41.3 13.3002 41.3 13.2002 41.2 13.0002C41.1 12.9002 41 12.8002 40.8 12.8002C40.7 12.8002 40.5 12.8002 40.4 13.0002C40.3 13.1002 40.3 13.3002 40.3 13.5002V15.5002C40.3 15.7002 40.3 15.8002 40.4 16.0002C40.5 16.1002 40.6 16.2002 40.8 16.2002C40.9 16.2002 41.1 16.2002 41.2 16.0002Z" fill="white"/>
<path d="M43.2001 12.2998H44.0001L44.9001 16.6998H44.1001L43.9001 15.6998H43.1001L42.9001 16.6998H42.1001L43.2001 12.2998ZM43.9001 15.1998L43.6001 13.3998L43.3001 15.1998H43.9001Z" fill="white"/>
<path d="M45.2002 12.2998H46.0002V16.1998H47.1002V16.6998H45.2002V12.2998Z" fill="white"/>
<path d="M47.5998 16.4002C47.3998 16.1002 47.2998 15.8002 47.2998 15.4002L47.9998 15.3002C47.9998 15.5002 47.9998 15.7002 48.0998 15.9002C48.1998 16.0002 48.2998 16.1002 48.4998 16.1002C48.5998 16.1002 48.6998 16.1002 48.7998 16.0002C48.8998 15.9002 48.8998 15.8002 48.8998 15.7002C48.8998 15.5002 48.8998 15.4002 48.7998 15.3002C48.6998 15.2002 48.5998 15.0002 48.3998 14.9002L47.7998 14.4002C47.5998 14.3002 47.4998 14.1002 47.3998 13.9002C47.2998 13.7002 47.2998 13.5002 47.2998 13.3002C47.2998 13.0002 47.3998 12.7002 47.5998 12.5002C47.7998 12.3002 48.0998 12.2002 48.4998 12.2002C48.7998 12.2002 49.0998 12.3002 49.2998 12.5002C49.4998 12.8002 49.5998 13.1002 49.5998 13.4002L48.8998 13.5002C48.8998 13.3002 48.8998 13.1002 48.7998 13.0002C48.6998 12.9002 48.5998 12.8002 48.4998 12.8002C48.3998 12.8002 48.2998 12.8002 48.1998 12.9002C47.9998 13.1002 47.9998 13.2002 47.9998 13.3002C47.9998 13.4002 47.9998 13.5002 48.0998 13.6002C48.1998 13.7002 48.2998 13.8002 48.3998 13.9002L48.9998 14.4002C49.1998 14.6002 49.3998 14.8002 49.4998 15.0002C49.5998 15.2002 49.6998 15.5002 49.6998 15.7002C49.6998 15.9002 49.6998 16.1002 49.5998 16.3002C49.4998 16.5002 49.3998 16.6002 49.1998 16.7002C48.5998 16.9002 47.9998 16.8002 47.5998 16.4002Z" fill="white"/>
<path d="M45.5998 36.4C45.5998 32.2 42.1998 28.7 37.8998 28.6C36.3998 24.5 31.8998 22.4 27.6998 23.8C25.3998 24.6 23.5998 26.4 22.7998 28.6C18.3998 28.8 14.9998 32.4 15.0998 36.7C15.1998 39 16.2998 41.2 18.1998 42.6C17.9998 43.3 17.8998 44 17.8998 44.8C17.8998 49.1 21.4998 52.7 25.8998 52.6C27.4998 52.6 29.0998 52.1 30.3998 51.2C31.6998 52.1 33.2998 52.5 34.7998 52.5C39.1998 52.5 42.7998 49 42.7998 44.7C42.7998 44 42.6998 43.2 42.4998 42.5C44.3998 41.1 45.5998 38.8 45.5998 36.4ZM36.6998 31.2C36.6998 34.3 34.3998 36.9 31.2998 37.4C31.1998 37.1 31.1998 36.8 31.1998 36.4C31.1998 33.3 33.4998 30.7 36.5998 30.2C36.6998 30.5 36.6998 30.9 36.6998 31.2ZM30.3998 49.2C27.8998 46.8 27.7998 42.8 30.2998 40.3L30.3998 40.2C32.8998 42.7 32.8998 46.7 30.3998 49.2ZM24.0998 30.2C27.1998 30.7 29.4998 33.3 29.4998 36.4C29.4998 36.7 29.4998 37 29.3998 37.4C25.8998 36.9 23.4998 33.7 24.0998 30.2C24.0998 30.3 24.0998 30.3 24.0998 30.2ZM28.7998 39.2C27.6998 41.3 25.4998 42.7 23.0998 42.7C22.0998 42.7 21.0998 42.5 20.1998 42C21.2998 39.9 23.4998 38.5 25.8998 38.5C26.8998 38.5 27.8998 38.8 28.7998 39.2ZM31.8998 39.2C34.9998 37.6 38.8998 38.8 40.4998 41.8C40.4998 41.9 40.5998 41.9 40.5998 42C37.4998 43.6 33.5998 42.4 31.9998 39.4C31.8998 39.3 31.8998 39.2 31.8998 39.2ZM30.3998 24.9C32.9998 24.9 35.2998 26.4 36.2998 28.7C33.6998 29.1 31.4998 30.8 30.3998 33.1C29.2998 30.8 27.0998 29.1 24.5998 28.7C25.4998 26.4 27.7998 24.9 30.3998 24.9ZM16.6998 36.4C16.6998 33.2 19.1998 30.5 22.3998 30.2C22.3998 30.5 22.2998 30.8 22.2998 31.2C22.2998 33.4 23.1998 35.5 24.8998 37C22.2998 37.3 19.9998 38.8 18.7998 41.1C17.4998 39.8 16.6998 38.2 16.6998 36.4ZM19.4998 44.8C19.4998 44.4 19.4998 43.9 19.5998 43.5C20.6998 44 21.8998 44.3 23.0998 44.3C24.3998 44.3 25.7998 44 26.9998 43.3C26.4998 45.8 27.2998 48.4 29.0998 50.2C26.0998 52 22.1998 51 20.3998 48C19.7998 47 19.4998 45.9 19.4998 44.8ZM41.1998 44.7C41.1998 48.2 38.2998 51 34.7998 51C33.6998 51 32.5998 50.7 31.6998 50.2C33.0998 48.7 33.8998 46.8 33.8998 44.8C33.8998 44.3 33.8998 43.8 33.7998 43.3C34.9998 43.9 36.2998 44.3 37.6998 44.3C38.8998 44.3 40.0998 44 41.1998 43.5C41.1998 43.9 41.1998 44.3 41.1998 44.7ZM35.7998 36.9C37.3998 35.4 38.3998 33.3 38.3998 31.1C38.3998 30.8 38.3998 30.5 38.2998 30.1C41.7998 30.5 44.2998 33.6 43.9998 37C43.7998 38.5 43.0998 39.9 41.8998 41C40.5998 38.7 38.3998 37.2 35.7998 36.9Z" fill="white"/>
</g>
</g>
<defs>
<clipPath id="clip0_3750_17511">
<rect width="60" height="60" fill="white"/>
</clipPath>
<clipPath id="clip1_3750_17511">
<rect width="60" height="60" fill="white"/>
</clipPath>
</defs>
</svg>
