<svg width="60" height="60" viewBox="0 0 60 60" fill="none" xmlns="http://www.w3.org/2000/svg">
<g clip-path="url(#clip0_3748_15597)">
<g clip-path="url(#clip1_3748_15597)">
<g clip-path="url(#clip2_3748_15597)">
<path d="M61 0H0V60H61V0Z" fill="#0CAED9"/>
<path d="M41.8001 24.1996C41.7001 24.0996 41.7001 24.0996 41.6001 24.0996H19.3001C19.2001 24.0996 19.2001 24.0996 19.1001 24.1996C19.1001 24.2996 19.0001 24.2996 19.1001 24.3996L22.8001 46.5996C22.8001 46.6996 22.9001 46.7996 23.1001 46.7996H27.7001L28.0001 50.3996H26.0001L30.5001 54.7996L35.0001 50.3996H33.1001L33.4001 46.7996H38.1001C38.2001 46.7996 38.3001 46.6996 38.4001 46.5996L41.9001 24.3996C41.8001 24.3996 41.8001 24.2996 41.8001 24.1996ZM33.2001 41.9996C31.6001 43.1996 29.4001 43.1996 27.9001 41.9996C26.7001 40.6996 26.5001 38.7996 27.4001 37.2996C27.8001 36.5996 30.3001 32.8996 30.5001 32.4996C30.7001 32.7996 33.3001 36.5996 33.6001 37.2996C34.6001 38.7996 34.4001 40.6996 33.2001 41.9996ZM40.2001 28.8996C39.5001 28.6996 38.8001 28.6996 38.1001 28.9996C35.3001 30.0996 33.5001 30.4996 30.6001 29.5996C28.8001 28.9996 27.1001 27.8996 25.0001 28.5996C23.7001 29.1996 22.3001 29.4996 20.9001 29.4996L20.0001 25.0996H40.8001L40.2001 28.8996Z" fill="white"/>
<path d="M9.1002 17.1998C11.3002 17.1998 12.2002 15.9998 12.2002 14.0998V12.2998C12.2002 10.2998 11.4002 9.2998 9.9002 9.2998C9.2002 9.2998 8.5002 9.5998 8.2002 10.2998V7.6998C8.2002 6.9998 8.4002 6.3998 9.2002 6.3998C10.0002 6.3998 10.2002 6.7998 10.2002 7.5998V8.3998H12.1002V7.7998C12.1002 5.9998 11.5002 4.7998 9.2002 4.7998C6.9002 4.7998 6.2002 6.1998 6.2002 8.0998V13.9998C6.2002 15.7998 7.0002 17.1998 9.1002 17.1998ZM8.2002 12.0998C8.2002 11.3998 8.5002 10.9998 9.2002 10.9998C9.9002 10.9998 10.2002 11.3998 10.2002 12.1998V14.3998C10.2002 15.1998 9.9002 15.5998 9.2002 15.5998C8.5002 15.5998 8.2002 15.0998 8.2002 14.3998V12.0998Z" fill="white"/>
<path d="M17.6002 8.8V6.4C17.5002 5.7 18.0002 5.1 18.6002 5C18.7002 5 18.8002 5 18.9002 5C19.9002 5 20.1002 5.5 20.1002 6.3V6.9H19.3002V6.2C19.3002 5.9 19.2002 5.7 18.9002 5.7C18.6002 5.7 18.5002 5.9 18.5002 6.2V9C18.5002 9.3 18.6002 9.5 18.9002 9.5C19.2002 9.5 19.3002 9.3 19.3002 9V8.1H20.1002V9C20.1002 9.7 19.8002 10.3 18.9002 10.3C18.2002 10.3 17.6002 9.8 17.6002 9.2C17.6002 9 17.6002 8.9 17.6002 8.8Z" fill="white"/>
<path d="M20.6001 5H21.5001V9.4H22.6001V10.1H20.7001L20.6001 5Z" fill="white"/>
<path d="M22.8999 5H24.9999V5.7H23.7999V7.1H24.6999V7.8H23.7999V9.3H24.9999V10H22.8999V5Z" fill="white"/>
<path d="M25.2998 10.1L26.2998 5H27.2998L28.2998 10.1H27.3998L27.1998 9.2H26.2998L26.0998 10.1H25.2998ZM26.3998 8.5H27.0998L26.7998 6.5L26.3998 8.5Z" fill="white"/>
<path d="M29.4002 6.9V10.1H28.7002V5H29.6002L30.5002 8V5H31.2002V10.1H30.4002L29.4002 6.9Z" fill="white"/>
<path d="M34.7998 7L34.2998 10.1H33.4998L32.7998 5H33.5998L33.9998 8.3L34.4998 5H35.1998L35.6998 8.2L36.0998 5H36.7998L36.0998 10.1H35.2998L34.7998 7Z" fill="white"/>
<path d="M36.7002 10.1L37.7002 5H38.7002L39.7002 10.1H38.8002L38.6002 9.2H37.7002L37.6002 10.1H36.7002ZM37.8002 8.5H38.5002L38.2002 6.5L37.8002 8.5Z" fill="white"/>
<path d="M39.6001 5H41.9001V5.7H41.2001V10.1H40.3001V5.8H39.6001V5Z" fill="white"/>
<path d="M42.3002 5H44.4002V5.7H43.2002V7.1H44.0002V7.8H43.1002V9.3H44.3002V10H42.2002V5H42.3002Z" fill="white"/>
<path d="M45.6998 7.8V10.1H44.7998V5H46.0998C46.9998 5 47.2998 5.4 47.2998 6.1V6.7C47.2998 7.2 47.0998 7.6 46.5998 7.7L47.3998 10H46.4998L45.6998 7.8ZM45.6998 5.8V7.4H45.9998C46.1998 7.4 46.3998 7.3 46.3998 7.1V7V6.2C46.3998 5.9 46.2998 5.8 45.9998 5.8H45.6998Z" fill="white"/>
<path d="M17.5 17.3002L18.5 12.2002H19.5L20.5 17.3002H19.6L19.4 16.4002H18.5L18.3 17.3002H17.5ZM18.6 15.6002H19.3L19 13.6002L18.6 15.6002Z" fill="white"/>
<path d="M21.5999 14.1002V17.3002H20.8999V12.2002H21.7999L22.6999 15.1002V12.2002H23.3999V17.3002H22.5999L21.5999 14.1002Z" fill="white"/>
<path d="M26.3998 13.5002V15.9002C26.3998 16.7002 26.0998 17.3002 25.0998 17.3002H23.7998V12.2002H25.0998C26.0998 12.2002 26.3998 12.8002 26.3998 13.5002ZM24.9998 16.5002C25.1998 16.5002 25.4998 16.4002 25.4998 16.1002V16.0002V13.3002C25.4998 13.1002 25.3998 12.8002 25.0998 12.8002H24.9998H24.5998V16.5002H24.9998Z" fill="white"/>
<path d="M28.2001 16.1996V15.4996H29.0001V16.1996C29.0001 16.4996 29.1001 16.6996 29.4001 16.6996C29.7001 16.6996 29.8001 16.4996 29.8001 16.1996V15.9996C29.8001 15.6996 29.6001 15.4996 29.4001 15.2996L28.9001 14.7996C28.5001 14.4996 28.2001 13.9996 28.2001 13.3996V13.1996C28.2001 12.5996 28.6001 12.0996 29.2001 12.0996C29.3001 12.0996 29.3001 12.0996 29.4001 12.0996C30.3001 12.0996 30.6001 12.4996 30.6001 13.2996V13.6996H29.8001V13.2996C29.8001 12.9996 29.7001 12.8996 29.4001 12.8996C29.2001 12.8996 29.0001 12.9996 29.0001 13.1996C29.0001 13.1996 29.0001 13.1996 29.0001 13.2996V13.3996C29.0001 13.6996 29.2001 13.8996 29.4001 14.0996L30.0001 14.5996C30.4001 14.8996 30.7001 15.3996 30.7001 15.8996V16.0996C30.8001 16.6996 30.3001 17.1996 29.7001 17.2996C29.6001 17.2996 29.5001 17.2996 29.5001 17.2996C28.9001 17.3996 28.4001 16.9996 28.3001 16.3996C28.2001 16.2996 28.1001 16.1996 28.2001 16.1996Z" fill="white"/>
<path d="M30.8999 17.3002L31.8999 12.2002H32.8999L33.8999 17.3002H32.9999L32.7999 16.4002H31.8999L31.7999 17.3002H30.8999ZM31.9999 15.6002H32.6999L32.3999 13.6002L31.9999 15.6002Z" fill="white"/>
<path d="M34.9002 14.1002V17.3002H34.2002V12.2002H35.0002L35.9002 15.1002V12.2002H36.6002V17.3002H35.8002L34.9002 14.1002Z" fill="white"/>
<path d="M37.2002 12.2002H38.1002V17.3002H37.2002V12.2002Z" fill="white"/>
<path d="M38.5 12.2002H40.8V12.9002H40.1V17.3002H39.2V12.9002H38.5V12.2002Z" fill="white"/>
<path d="M40.7002 17.3002L41.7002 12.2002H42.7002L43.7002 17.3002H42.8002L42.6002 16.4002H41.7002L41.6002 17.3002H40.7002ZM41.8002 15.6002H42.5002L42.2002 13.6002L41.8002 15.6002Z" fill="white"/>
<path d="M43.3999 12.2002H45.6999V12.9002H44.9999V17.3002H44.0999V12.9002H43.3999V12.2002Z" fill="white"/>
<path d="M46.2002 12.2002H47.1002V17.3002H46.2002V12.2002Z" fill="white"/>
<path d="M47.6001 15.9002V13.5002C47.6001 12.8002 48.2001 12.2002 48.9001 12.2002C49.6001 12.2002 50.2001 12.8002 50.2001 13.5002V15.9002C50.2001 16.6002 49.6001 17.2002 48.9001 17.2002C48.2001 17.2002 47.6001 16.6002 47.6001 15.9002ZM49.3001 16.0002V13.3002C49.3001 13.0002 49.2001 12.8002 48.8001 12.8002C48.4001 12.8002 48.4001 13.0002 48.4001 13.3002V16.0002C48.4001 16.3002 48.5001 16.5002 48.8001 16.5002C49.1001 16.5002 49.3001 16.4002 49.3001 16.0002Z" fill="white"/>
<path d="M51.4002 14.1002V17.3002H50.7002V12.2002H51.6002L52.5002 15.1002V12.2002H53.2002V17.3002H52.4002L51.4002 14.1002Z" fill="white"/>
</g>
</g>
</g>
<defs>
<clipPath id="clip0_3748_15597">
<rect width="60" height="60" fill="white"/>
</clipPath>
<clipPath id="clip1_3748_15597">
<rect width="60" height="60" fill="white"/>
</clipPath>
<clipPath id="clip2_3748_15597">
<rect width="60" height="60" fill="white"/>
</clipPath>
</defs>
</svg>
