<svg width="60" height="60" viewBox="0 0 60 60" fill="none" xmlns="http://www.w3.org/2000/svg">
<g clip-path="url(#clip0_3748_15907)">
<g clip-path="url(#clip1_3748_15907)">
<g clip-path="url(#clip2_3748_15907)">
<path d="M61 0H0V60.1H61V0Z" fill="#E01F84"/>
<path d="M4.9002 7.5002C4.8002 7.5002 4.5002 7.6002 4.0002 7.8002C3.5002 8.0002 3.3002 8.0002 3.2002 8.1002V6.5002C3.6002 6.3002 4.0002 6.1002 4.4002 5.9002C4.8002 5.7002 5.1002 5.5002 5.4002 5.2002H7.1002V16.7002H4.9002V7.5002Z" fill="white"/>
<path d="M9.1002 15.9C8.5002 15.2 8.3002 14.4 8.3002 13.5V8.4C8.2002 7.5 8.5002 6.6 9.1002 5.9C10.4002 4.7 12.4002 4.7 13.8002 5.9C14.4002 6.6 14.6002 7.5 14.6002 8.4V13.5C14.6002 14.4 14.4002 15.2 13.8002 15.9C13.2002 16.5 12.4002 16.9 11.5002 16.8C10.5002 16.9 9.7002 16.6 9.1002 15.9ZM12.2002 13.5V8.5C12.2002 8.1 12.2002 7.8 12.0002 7.4C11.9002 7 11.4002 6.8 11.0002 7C10.8002 7.1 10.7002 7.2 10.6002 7.4C10.5002 7.7 10.4002 8.1 10.4002 8.5V13.5C10.4002 14.5 10.7002 14.9 11.3002 14.9C12.0002 14.9 12.2002 14.4 12.2002 13.5Z" fill="white"/>
<path d="M19.1001 9.6002V5.2002H20.2001C20.5001 5.2002 20.7001 5.2002 21.0001 5.3002C21.2001 5.4002 21.4001 5.5002 21.5001 5.7002C21.6001 5.9002 21.7001 6.1002 21.7001 6.4002C21.7001 6.6002 21.7001 6.7002 21.7001 6.9002C21.7001 7.0002 21.6001 7.2002 21.5001 7.3002C21.4001 7.4002 21.3001 7.5002 21.2001 7.5002L21.8001 9.7002H21.0001L20.5001 7.7002H20.1001V9.7002H19.1001V9.6002ZM19.9001 7.1002H20.2001C20.3001 7.1002 20.5001 7.1002 20.6001 7.0002C20.7001 7.0002 20.8001 6.9002 20.8001 6.8002C20.8001 6.7002 20.9001 6.5002 20.9001 6.4002C20.9001 6.2002 20.9001 6.1002 20.8001 5.9002C20.7001 5.8002 20.5001 5.7002 20.3001 5.7002H20.0001V7.1002H19.9001Z" fill="white"/>
<path d="M22 9.6002V5.2002H23.9V5.7002H22.8V7.0002H23.6V7.6002H22.8V9.0002H23.9V9.6002H22Z" fill="white"/>
<path d="M24.2002 9.6002V5.2002H25.2002C25.5002 5.2002 25.8002 5.2002 26.1002 5.3002C26.3002 5.4002 26.5002 5.5002 26.5002 5.7002C26.6002 5.9002 26.6002 6.2002 26.6002 6.5002V8.1002C26.6002 8.4002 26.6002 8.6002 26.5002 8.9002C26.4002 9.1002 26.3002 9.3002 26.1002 9.4002C25.8002 9.5002 25.6002 9.6002 25.3002 9.6002H24.2002ZM25.0002 9.1002H25.3002C25.4002 9.1002 25.6002 9.1002 25.7002 9.0002C25.8002 8.9002 25.8002 8.8002 25.8002 8.7002C25.8002 8.5002 25.8002 8.4002 25.8002 8.2002V6.5002C25.8002 6.4002 25.8002 6.2002 25.8002 6.1002C25.8002 6.0002 25.7002 5.9002 25.6002 5.9002C25.5002 5.8002 25.3002 5.8002 25.2002 5.8002H25.0002V9.1002Z" fill="white"/>
<path d="M28.4001 9.59961C28.1001 9.59961 27.9001 9.59961 27.6001 9.39961C27.4001 9.29961 27.3001 9.09961 27.2001 8.89961C27.1001 8.59961 27.1001 8.39961 27.1001 8.09961V5.09961H27.9001V8.19961C27.9001 8.29961 27.9001 8.49961 27.9001 8.59961C27.9001 8.69961 28.0001 8.79961 28.0001 8.89961C28.1001 8.99961 28.2001 8.99961 28.3001 8.99961C28.4001 8.99961 28.5001 8.99961 28.6001 8.89961C28.7001 8.79961 28.7001 8.69961 28.7001 8.59961C28.7001 8.49961 28.7001 8.29961 28.7001 8.19961V5.19961H29.5001V8.19961C29.5001 8.49961 29.5001 8.69961 29.4001 8.99961C29.3001 9.19961 29.2001 9.39961 29.0001 9.49961C28.9001 9.59961 28.6001 9.59961 28.4001 9.59961Z" fill="white"/>
<path d="M31.3 9.59961C31 9.59961 30.8 9.49961 30.5 9.39961C30.3 9.29961 30.2 9.09961 30.1 8.89961C30.1 8.69961 30 8.39961 30 8.19961V6.59961C30 6.29961 30 6.09961 30.1 5.79961C30.2 5.59961 30.3 5.39961 30.5 5.29961C30.7 5.19961 31 5.09961 31.3 5.09961C31.5 5.09961 31.8 5.09961 32 5.29961C32.2 5.39961 32.3 5.59961 32.4 5.69961C32.5 5.89961 32.5 6.09961 32.5 6.39961V6.79961H31.7V6.39961C31.7 6.29961 31.7 6.19961 31.7 6.09961C31.7 5.99961 31.7 5.89961 31.6 5.89961C31.4 5.79961 31.2 5.79961 31 5.89961C31 5.89961 30.9 5.89961 30.9 5.99961C30.9 6.09961 30.9 6.19961 30.9 6.39961V8.29961C30.9 8.39961 30.9 8.59961 30.9 8.69961C30.9 8.79961 31 8.89961 31 8.89961C31.1 8.99961 31.2 8.99961 31.3 8.99961C31.4 8.99961 31.5 8.99961 31.6 8.89961C31.7 8.79961 31.7 8.69961 31.7 8.59961C31.7 8.49961 31.7 8.39961 31.7 8.29961V7.89961H32.5V8.19961C32.5 8.39961 32.5 8.69961 32.4 8.89961C32.3 9.09961 32.2 9.29961 32 9.39961C31.8 9.59961 31.6 9.59961 31.3 9.59961Z" fill="white"/>
<path d="M32.8999 9.6002V5.2002H34.6999V5.7002H33.6999V7.0002H34.4999V7.6002H33.6999V9.0002H34.6999V9.6002H32.8999Z" fill="white"/>
<path d="M35.1001 9.6002V5.2002H36.2001C36.5001 5.2002 36.8001 5.2002 37.0001 5.3002C37.2001 5.4002 37.4001 5.5002 37.4001 5.7002C37.5001 5.9002 37.5001 6.2002 37.5001 6.5002V8.1002C37.5001 8.4002 37.5001 8.6002 37.4001 8.9002C37.3001 9.1002 37.2001 9.3002 37.0001 9.4002C36.7001 9.5002 36.5001 9.6002 36.2001 9.6002H35.1001ZM36.0001 9.1002H36.2001C36.3001 9.1002 36.5001 9.1002 36.6001 9.0002C36.7001 8.9002 36.7001 8.8002 36.7001 8.7002C36.7001 8.5002 36.7001 8.4002 36.7001 8.2002V6.5002C36.7001 6.4002 36.7001 6.2002 36.7001 6.1002C36.7001 6.0002 36.6001 5.9002 36.5001 5.9002C36.4001 5.8002 36.2001 5.8002 36.1001 5.8002H36.0001V9.1002Z" fill="white"/>
<path d="M19.1001 16.6998V12.2998H19.9001V16.6998H19.1001Z" fill="white"/>
<path d="M20.5 16.6998V12.2998H21L22.1 14.7998V12.2998H22.8V16.6998H22.3L21.2 14.0998V16.6998H20.5Z" fill="white"/>
<path d="M23.2998 16.6998V12.2998H25.1998V12.8998H24.0998V14.1998H24.9998V14.7998H24.1998V16.1998H25.2998V16.7998L23.2998 16.6998Z" fill="white"/>
<path d="M27.6999 17.6C27.5999 17.5 27.4999 17.5 27.3999 17.4C27.2999 17.3 27.1999 17.2 27.0999 17.1C26.9999 17 26.8999 16.9 26.7999 16.8H26.6999C26.3999 16.8 26.1999 16.8 25.8999 16.6C25.6999 16.5 25.5999 16.3 25.4999 16.1C25.3999 15.9 25.3999 15.6 25.3999 15.3V13.7C25.3999 13.4 25.3999 13.2 25.4999 12.9C25.5999 12.7 25.6999 12.5 25.8999 12.4C26.3999 12.2 26.8999 12.2 27.3999 12.4C27.5999 12.5 27.6999 12.7 27.7999 12.9C27.8999 13.1 27.8999 13.4 27.8999 13.7V15.3C27.8999 15.5 27.8999 15.7 27.7999 15.9C27.7999 16.1 27.6999 16.2 27.5999 16.3C27.4999 16.4 27.3999 16.5 27.1999 16.6L27.2999 16.8L27.4999 17L27.5999 17.1L27.6999 17.6ZM26.6999 16.2C26.7999 16.2 26.8999 16.2 26.9999 16.1C27.0999 16 27.0999 16 27.0999 15.9C27.0999 15.8 27.0999 15.7 27.0999 15.6V13.6C27.0999 13.5 27.0999 13.4 27.0999 13.3C27.0999 13.2 26.9999 13.1 26.9999 13.1C26.8999 13 26.7999 13 26.6999 13C26.5999 13 26.4999 13 26.3999 13.1C26.2999 13.2 26.2999 13.2 26.2999 13.3C26.2999 13.4 26.2999 13.5 26.2999 13.6V15.6C26.2999 15.7 26.2999 15.8 26.2999 15.9C26.2999 16 26.3999 16.1 26.3999 16.1C26.4999 16.1 26.5999 16.2 26.6999 16.2Z" fill="white"/>
<path d="M29.6999 16.7998C29.3999 16.7998 29.1999 16.7998 28.8999 16.5998C28.6999 16.4998 28.5999 16.2998 28.4999 16.0998C28.3999 15.7998 28.3999 15.5998 28.3999 15.2998V12.2998H29.1999V15.3998C29.1999 15.4998 29.1999 15.6998 29.1999 15.7998C29.1999 15.8998 29.2999 15.9998 29.2999 16.0998C29.3999 16.1998 29.4999 16.1998 29.5999 16.1998C29.6999 16.1998 29.7999 16.1998 29.8999 16.0998C29.9999 15.9998 29.9999 15.8998 29.9999 15.7998C29.9999 15.6998 29.9999 15.4998 29.9999 15.3998V12.2998H30.7999V15.2998C30.7999 15.5998 30.7999 15.7998 30.6999 16.0998C30.5999 16.2998 30.4999 16.4998 30.2999 16.5998C30.1999 16.6998 29.8999 16.7998 29.6999 16.7998Z" fill="white"/>
<path d="M31.2002 16.6998L32.1002 12.2998H33.0002L33.9002 16.6998H33.2002L33.0002 15.6998H32.2002L32.0002 16.6998H31.2002ZM32.2002 15.1998H32.8002L32.5002 13.3998L32.2002 15.1998Z" fill="white"/>
<path d="M34.1001 16.6998V12.2998H34.9001V16.1998H36.0001V16.7998L34.1001 16.6998Z" fill="white"/>
<path d="M36.2998 16.6998V12.2998H37.0998V16.6998H36.2998Z" fill="white"/>
<path d="M38.0999 16.6998V12.8998H37.3999V12.2998H39.5999V12.8998H38.8999V16.6998H38.0999Z" fill="white"/>
<path d="M39.8999 16.6998V12.2998H40.6999V16.6998H39.8999Z" fill="white"/>
<path d="M41.2002 16.6998V12.2998H43.1002V12.8998H42.0002V14.1998H42.8002V14.7998H42.0002V16.1998H43.1002V16.7998L41.2002 16.6998Z" fill="white"/>
<path d="M44.5998 16.8002C44.3998 16.8002 44.0998 16.8002 43.8998 16.6002C43.6998 16.5002 43.5998 16.3002 43.4998 16.1002C43.3998 15.9002 43.2998 15.6002 43.2998 15.4002L43.9998 15.3002C43.9998 15.4002 43.9998 15.6002 44.0998 15.7002C44.0998 15.8002 44.1998 15.9002 44.2998 16.0002C44.3998 16.1002 44.4998 16.1002 44.5998 16.1002C44.6998 16.1002 44.7998 16.1002 44.8998 16.0002C44.9998 15.9002 44.9998 15.8002 44.9998 15.7002C44.9998 15.5002 44.9998 15.4002 44.8998 15.2002C44.7998 15.1002 44.6998 14.9002 44.4998 14.8002L43.8998 14.3002C43.7998 14.2002 43.5998 14.0002 43.4998 13.9002C43.3998 13.7002 43.3998 13.5002 43.3998 13.3002C43.3998 13.0002 43.4998 12.7002 43.6998 12.5002C43.8998 12.3002 44.1998 12.2002 44.4998 12.2002C44.6998 12.2002 44.8998 12.2002 44.9998 12.3002C45.0998 12.4002 45.1998 12.4002 45.2998 12.6002C45.3998 12.7002 45.4998 12.8002 45.4998 13.0002C45.4998 13.1002 45.5998 13.3002 45.5998 13.5002L44.8998 13.6002C44.8998 13.5002 44.8998 13.4002 44.8998 13.2002C44.8998 13.1002 44.7998 13.0002 44.7998 12.9002C44.6998 12.8002 44.5998 12.8002 44.4998 12.8002C44.3998 12.8002 44.2998 12.8002 44.1998 12.9002C44.0998 13.0002 44.0998 13.1002 44.0998 13.2002C44.0998 13.3002 44.0998 13.5002 44.1998 13.6002C44.2998 13.7002 44.3998 13.8002 44.4998 13.9002L45.0998 14.4002C45.2998 14.6002 45.3998 14.7002 45.5998 14.9002C45.6998 15.1002 45.7998 15.4002 45.7998 15.6002C45.7998 15.8002 45.7998 16.0002 45.6998 16.2002C45.5998 16.4002 45.4998 16.5002 45.2998 16.6002C44.9998 16.7002 44.7998 16.8002 44.5998 16.8002Z" fill="white"/>
<path d="M35.7999 39.4004H24.4999C24.3999 39.4004 24.3999 39.5004 24.3999 39.5004V42.8004C24.3999 42.9004 24.3999 42.9004 24.4999 42.9004H35.6999C35.7999 42.9004 35.7999 42.8004 35.7999 42.8004V39.5004C35.8999 39.4004 35.7999 39.4004 35.7999 39.4004Z" fill="white"/>
<path d="M35.7999 32.2998H24.4999C24.3999 32.2998 24.3999 32.3998 24.3999 32.3998V35.6998C24.3999 35.7998 24.3999 35.7998 24.4999 35.7998H35.6999C35.7999 35.7998 35.7999 35.6998 35.7999 35.6998V32.3998C35.8999 32.3998 35.7999 32.2998 35.7999 32.2998Z" fill="white"/>
<path d="M35.6002 27.3L30.2002 22H30.1002L24.7002 27.3V27.4H24.8002H35.6002C35.6002 27.4 35.6002 27.4 35.6002 27.3Z" fill="white"/>
<path d="M40.7 42.9998L46.1 37.6998V37.5998L40.7 32.2998H40.6V32.3998V42.9998C40.5 42.9998 40.6 43.0998 40.7 42.9998Z" fill="white"/>
<path d="M24.7002 48.0004L30.1002 53.3004H30.2002L35.6002 48.0004V47.9004H35.5002H24.7002C24.7002 47.9004 24.6002 47.9004 24.7002 48.0004Z" fill="white"/>
<path d="M19.6002 32.2996L14.2002 37.5996V37.6996L19.6002 42.9996H19.7002V42.8996V32.2996C19.8002 32.2996 19.7002 32.1996 19.6002 32.2996C19.7002 32.1996 19.6002 32.1996 19.6002 32.2996Z" fill="white"/>
</g>
</g>
</g>
<defs>
<clipPath id="clip0_3748_15907">
<rect width="60" height="60" fill="white"/>
</clipPath>
<clipPath id="clip1_3748_15907">
<rect width="60" height="60" fill="white"/>
</clipPath>
<clipPath id="clip2_3748_15907">
<rect width="60" height="60" fill="white"/>
</clipPath>
</defs>
</svg>
