<svg width="60" height="60" viewBox="0 0 60 60" fill="none" xmlns="http://www.w3.org/2000/svg">
<g clip-path="url(#clip0_3749_17019)">
<g clip-path="url(#clip1_3749_17019)">
<g clip-path="url(#clip2_3749_17019)">
<path d="M0.0361633 0.0511703L-0.0488281 59.9512L60.8512 60.0376L60.9362 0.137581L0.0361633 0.0511703Z" fill="#49773C"/>
<path d="M5.4002 7.5002C5.1002 7.6002 4.8002 7.7002 4.5002 7.8002C4.1002 7.9002 3.8002 8.0002 3.7002 8.1002V6.5002C4.1002 6.3002 4.5002 6.2002 4.9002 5.9002C5.3002 5.7002 5.6002 5.5002 5.9002 5.2002H7.6002V16.7002H5.4002V7.5002Z" fill="white"/>
<path d="M9.49992 15.9C8.99992 15.2 8.69992 14.2 8.79992 13.3V13H10.9999V13.4C10.9999 13.8 11.0999 14.3 11.1999 14.7C11.2999 15 11.5999 15.1 11.8999 15.1C12.1999 15.1 12.4999 15 12.5999 14.7C12.6999 14.3 12.7999 13.9 12.7999 13.4C12.7999 12.9 12.6999 12.5 12.4999 12C12.2999 11.7 11.8999 11.5 11.4999 11.5H11.0999V9.9H11.4999C11.8999 9.9 12.2999 9.8 12.4999 9.5C12.6999 9.1 12.7999 8.6 12.7999 8.2C12.7999 7.8 12.7999 7.5 12.5999 7.1C12.3999 6.9 12.1999 6.7 11.8999 6.7C11.5999 6.7 11.2999 6.8 11.1999 7.1C11.0999 7.5 10.9999 7.9 10.9999 8.3V8.8H8.79992V8.2C8.69992 7.3 8.99992 6.5 9.59992 5.9C10.1999 5.3 10.9999 5 11.8999 5C12.7999 5 13.5999 5.2 14.1999 5.8C14.7999 6.4 15.0999 7.2 14.9999 8.1C14.9999 8.7 14.8999 9.3 14.5999 9.8C14.3999 10.2 13.9999 10.5 13.4999 10.6C14.4999 11 14.9999 11.9 14.9999 13.3C15.0999 14.2 14.7999 15.1 14.2999 15.9C13.6999 16.6 12.7999 16.9 11.8999 16.9C10.9999 16.9 10.0999 16.6 9.49992 15.9Z" fill="white"/>
<path d="M20.9001 9.60059C20.6001 9.60059 20.4001 9.60059 20.1001 9.40059C19.9001 9.30059 19.8001 9.10059 19.7001 8.90059C19.6001 8.70059 19.6001 8.40059 19.6001 8.10059V6.60059C19.6001 6.30059 19.6001 6.10059 19.7001 5.80059C19.8001 5.60059 19.9001 5.40059 20.1001 5.30059C20.3001 5.20059 20.6001 5.10059 20.9001 5.10059C21.1001 5.10059 21.4001 5.10059 21.6001 5.30059C21.8001 5.40059 21.9001 5.60059 22.0001 5.70059C22.0001 6.00059 22.1001 6.20059 22.1001 6.40059V6.80059H21.3001V6.40059C21.3001 6.30059 21.3001 6.20059 21.3001 6.10059C21.3001 6.00059 21.3001 5.90059 21.2001 5.90059C21.0001 5.80059 20.8001 5.80059 20.6001 5.90059C20.5001 6.00059 20.5001 6.10059 20.5001 6.20059C20.5001 6.30059 20.5001 6.40059 20.5001 6.60059V8.50059C20.5001 8.60059 20.5001 8.80059 20.5001 8.90059C20.5001 9.00059 20.6001 9.10059 20.6001 9.10059C20.7001 9.00059 20.8001 9.00059 20.9001 9.00059C21.0001 9.00059 21.1001 9.00059 21.2001 8.90059C21.3001 8.80059 21.3001 8.70059 21.3001 8.60059C21.3001 8.50059 21.3001 8.40059 21.3001 8.20059V7.90059H22.0001V8.30059C22.0001 8.50059 22.0001 8.80059 21.9001 9.00059C21.8001 9.20059 21.7001 9.40059 21.5001 9.50059C21.4001 9.60059 21.1001 9.60059 20.9001 9.60059Z" fill="white"/>
<path d="M22.5 9.6002V5.2002H23.3V9.1002H24.4V9.7002L22.5 9.6002Z" fill="white"/>
<path d="M24.6001 9.6002V5.2002H25.4001V9.6002H24.6001Z" fill="white"/>
<path d="M25.8999 9.6002L25.9999 5.2002H26.7999L27.3999 8.2002L28.0999 5.2002H28.8999L28.9999 9.6002H28.3999L28.2999 6.6002L27.6999 9.6002H27.1999L26.5999 6.5002L26.4999 9.6002H25.8999Z" fill="white"/>
<path d="M29.2998 9.6002L30.1998 5.2002H30.9998L31.8998 9.6002H31.0998L30.8998 8.6002H30.0998L29.8998 9.6002H29.2998ZM30.2998 8.0002H30.8998L30.5998 6.2002L30.2998 8.0002Z" fill="white"/>
<path d="M32.4998 9.6002V5.8002H31.7998V5.2002H33.9998V5.8002H33.2998V9.6002H32.4998Z" fill="white"/>
<path d="M34.2002 9.6002V5.2002H36.1002V5.8002H35.0002V7.0002H35.8002V7.6002H35.0002V9.0002H36.1002V9.6002H34.2002Z" fill="white"/>
<path d="M19.3999 16.7008L20.2999 12.3008H21.1999L22.0999 16.7008H21.3999L21.1999 15.7008H20.3999L20.1999 16.7008H19.3999ZM20.3999 15.2008H20.9999L20.6999 13.4008L20.3999 15.2008Z" fill="white"/>
<path d="M23.5002 16.8002C23.2002 16.8002 23.0002 16.8002 22.7002 16.6002C22.5002 16.5002 22.4002 16.3002 22.3002 16.1002C22.2002 15.9002 22.2002 15.6002 22.2002 15.3002V13.7002C22.2002 13.4002 22.2002 13.2002 22.3002 12.9002C22.4002 12.7002 22.5002 12.5002 22.7002 12.4002C22.9002 12.3002 23.2002 12.2002 23.5002 12.2002C23.7002 12.2002 24.0002 12.2002 24.2002 12.4002C24.4002 12.5002 24.5002 12.7002 24.6002 12.8002C24.7002 13.0002 24.7002 13.2002 24.7002 13.5002V13.9002H23.9002V13.5002C23.9002 13.4002 23.9002 13.3002 23.9002 13.2002C23.9002 13.1002 23.9002 13.0002 23.8002 13.0002C23.7002 12.9002 23.6002 12.9002 23.5002 12.9002C23.4002 12.9002 23.3002 12.9002 23.2002 13.0002C23.1002 13.1002 23.1002 13.2002 23.1002 13.3002C23.1002 13.4002 23.1002 13.5002 23.1002 13.7002V15.6002C23.1002 15.7002 23.1002 15.9002 23.1002 16.0002C23.1002 16.1002 23.2002 16.2002 23.2002 16.2002C23.3002 16.3002 23.4002 16.3002 23.5002 16.3002C23.6002 16.3002 23.7002 16.3002 23.8002 16.2002C23.9002 16.1002 23.9002 16.0002 23.9002 15.9002C23.9002 15.8002 23.9002 15.7002 23.9002 15.6002V15.1002H24.7002V15.5002C24.7002 15.7002 24.7002 16.0002 24.6002 16.2002C24.5002 16.4002 24.4002 16.6002 24.2002 16.7002C24.0002 16.7002 23.8002 16.8002 23.5002 16.8002Z" fill="white"/>
<path d="M25.5999 16.7008V12.9008H24.8999V12.3008H27.0999V12.9008H26.3999V16.7008H25.5999Z" fill="white"/>
<path d="M27.2998 16.7008V12.3008H28.0998V16.7008H27.2998Z" fill="white"/>
<path d="M29.9002 16.8002C29.6002 16.8002 29.4002 16.8002 29.2002 16.6002C29.0002 16.5002 28.9002 16.3002 28.8002 16.1002C28.7002 15.9002 28.7002 15.6002 28.7002 15.3002V13.7002C28.7002 13.4002 28.7002 13.2002 28.8002 12.9002C28.9002 12.7002 29.0002 12.5002 29.2002 12.4002C29.4002 12.3002 29.7002 12.2002 29.9002 12.2002C30.2002 12.2002 30.4002 12.2002 30.7002 12.4002C30.9002 12.5002 31.0002 12.7002 31.1002 12.9002C31.2002 13.1002 31.2002 13.4002 31.2002 13.7002V15.3002C31.2002 15.6002 31.2002 15.8002 31.1002 16.1002C31.0002 16.3002 30.9002 16.5002 30.7002 16.6002C30.4002 16.7002 30.1002 16.8002 29.9002 16.8002ZM29.9002 16.2002C30.0002 16.2002 30.1002 16.2002 30.2002 16.1002C30.3002 16.0002 30.3002 16.0002 30.3002 15.9002C30.3002 15.8002 30.3002 15.7002 30.3002 15.6002V13.6002C30.3002 13.5002 30.3002 13.4002 30.3002 13.3002C30.3002 13.2002 30.2002 13.1002 30.2002 13.1002C30.1002 13.0002 30.0002 13.0002 29.9002 13.0002C29.8002 13.0002 29.7002 13.0002 29.6002 13.1002C29.5002 13.2002 29.5002 13.2002 29.5002 13.3002C29.5002 13.4002 29.5002 13.5002 29.5002 13.6002V15.6002C29.5002 15.7002 29.5002 15.8002 29.5002 15.9002C29.5002 16.0002 29.6002 16.1002 29.6002 16.1002C29.6002 16.2002 29.8002 16.2002 29.9002 16.2002Z" fill="white"/>
<path d="M31.6001 16.7008V12.3008H32.2001L33.3001 14.8008V12.3008H34.0001V16.7008H33.5001L32.4001 14.1008V16.7008H31.6001Z" fill="white"/>
<path d="M53.4002 37.6007C44.2002 25.4007 26.6002 22.8007 14.2002 31.9007C12.0002 33.5007 10.1002 35.4007 8.4002 37.6007L8.2002 37.8007L8.4002 38.1007C17.6002 50.3007 35.2002 52.9007 47.6002 43.8007C49.8002 42.2007 51.8002 40.3007 53.4002 38.1007C53.5002 38.0007 53.6002 37.9007 53.6002 37.7007C53.6002 37.7007 53.5002 37.6007 53.4002 37.6007ZM23.4002 32.1007C23.5002 31.9007 23.9002 31.4007 24.0002 31.4007C24.1002 31.3007 24.3002 31.2007 24.5002 31.2007C24.6002 31.2007 24.8002 31.2007 24.9002 31.4007C24.9002 31.6007 24.9002 31.8007 24.8002 32.0007C24.5002 32.3007 24.2002 32.4007 23.8002 32.4007C23.4002 32.3007 23.4002 32.2007 23.4002 32.1007ZM22.9002 33.0007C23.1002 32.8007 23.4002 32.7007 23.6002 32.7007C23.8002 32.7007 24.2002 32.8007 24.2002 32.9007C24.2002 33.1007 23.6002 33.3007 23.5002 33.4007C23.2002 33.7007 22.7002 34.3007 22.4002 34.4007C22.3002 34.4007 22.2002 34.4007 22.2002 34.4007C22.4002 34.0007 22.6002 33.5007 22.9002 33.0007ZM27.9002 43.3007C27.8002 43.7007 27.6002 44.2007 27.3002 44.5007C27.0002 44.8007 26.5002 45.0007 26.1002 45.0007C25.7002 45.0007 25.6002 43.8007 25.6002 43.3007C25.6002 43.1007 25.3002 43.7007 25.2002 42.5007C25.1002 41.7007 24.6002 42.6007 24.6002 42.1007C24.6002 41.6007 24.3002 41.7007 24.0002 41.4007C23.7002 41.1007 23.4002 41.4007 23.0002 41.6007C22.6002 41.8007 22.8002 41.9007 22.3002 41.7007C21.8002 40.6007 21.6002 39.3007 21.6002 38.1007C21.6002 37.8007 21.6002 37.5007 21.6002 37.1007C21.6002 37.1007 21.6002 37.0007 21.7002 37.0007C22.2002 36.4007 22.2002 36.3007 22.2002 36.3007L22.8002 36.1007C23.3002 36.2007 23.8002 36.3007 24.4002 36.5007C25.0002 36.7007 25.8002 37.2007 26.4002 37.0007C26.8002 36.9007 27.0002 36.7007 27.0002 36.4007C27.0002 36.1007 26.7002 35.9007 26.3002 36.2007C26.2002 36.3007 25.9002 35.6007 25.7002 35.7007C25.5002 35.7007 26.0002 36.5007 25.8002 36.5007C25.6002 36.5007 25.2002 35.7007 25.2002 35.6007C25.1002 35.5007 24.8002 35.2007 24.6002 35.4007C24.0002 35.9007 23.1002 35.9007 23.0002 36.0007C22.4002 36.4007 22.3002 35.9007 22.3002 35.5007C22.3002 35.4007 22.3002 35.4007 22.4002 35.3007C22.7002 35.1007 23.1002 35.1007 23.5002 35.2007C23.7002 35.4007 23.9002 35.2007 24.0002 35.1007C24.1002 35.0007 24.1002 34.8007 24.0002 34.7007C23.9002 34.6007 24.1002 34.5007 24.2002 34.4007C24.4002 34.3007 24.7002 34.1007 24.9002 34.0007C25.4002 33.9007 25.9002 33.9007 26.3002 34.0007C26.6002 34.2007 27.0002 34.1007 27.3002 33.8007C27.5002 33.6007 27.7002 33.4007 28.0002 33.2007C28.1002 33.1007 27.7002 32.7007 27.3002 33.2007C26.9002 33.7007 26.7002 33.7007 26.5002 33.7007C26.3002 33.7007 25.2002 33.4007 25.1002 33.1007C25.0002 32.8007 25.4002 32.5007 25.8002 32.3007C26.4002 32.2007 27.0002 32.1007 27.6002 32.1007C28.2002 32.0007 28.9002 31.7007 29.3002 31.9007C29.7002 32.1007 27.8002 32.6007 28.4002 32.9007C28.6002 33.0007 29.6002 32.3007 30.0002 32.2007C30.8002 31.8007 29.2002 31.6007 29.4002 30.8007C29.6002 30.0007 27.4002 30.2007 26.3002 30.3007C27.8002 29.4007 29.5002 28.8007 31.3002 28.8007C35.7002 28.8007 39.5002 31.8007 40.5002 35.9007C40.5002 36.0007 40.5002 36.2007 40.5002 36.3007C40.4002 36.6007 40.0002 36.8007 39.7002 36.6007C39.6002 36.5007 39.5002 36.5007 39.4002 36.3007C39.3002 36.2007 38.9002 35.8007 38.9002 36.4007C38.9002 37.0007 39.5002 37.1007 38.9002 37.5007C38.6002 37.7007 38.3002 37.8007 37.9002 37.9007C37.6002 38.2007 37.4002 38.6007 37.4002 39.0007C37.5002 39.4007 38.3002 40.3007 37.7002 40.3007C37.1002 40.0007 36.6002 39.6007 36.2002 39.0007C36.0002 38.5007 35.8002 38.0007 35.6002 37.6007C35.5002 37.3007 35.2002 37.1007 34.9002 37.2007C34.8002 37.2007 34.7002 37.3007 34.6002 37.3007C34.3002 37.5007 34.7002 37.7007 34.5002 38.3007C34.3002 38.9007 34.1002 39.2007 33.7002 38.8007C32.8002 37.8007 31.4002 38.3007 31.2002 37.1007C31.1002 36.5007 30.5002 36.5007 30.1002 36.1007C29.6002 35.7007 29.4002 35.6007 29.3002 35.8007C29.2002 36.1007 30.7002 37.2007 30.9002 37.5007C31.1002 38.0007 30.4002 38.4007 30.0002 38.5007C29.6002 38.6007 29.4002 38.2007 28.9002 37.8007C28.5002 37.3007 28.3002 37.0007 28.2002 37.4007C28.2002 38.0007 28.5002 38.6007 29.1002 38.9007C29.5002 39.1007 29.9002 39.2007 29.8002 39.6007C29.7002 40.0007 29.8002 39.8007 29.4002 40.2007C29.0002 40.4007 28.8002 40.9007 28.9002 41.3007C28.9002 41.9007 28.8002 41.9007 28.7002 42.4007C28.6002 42.9007 28.2002 42.6007 27.9002 43.3007ZM38.1002 39.6007C38.4002 39.6007 38.9002 40.0007 38.7002 40.2007C38.4002 40.3007 38.1002 40.3007 37.8002 40.1007C37.6002 39.9007 38.0002 39.6007 38.1002 39.6007ZM37.7002 39.3007C37.6002 39.3007 37.5002 39.2007 37.4002 38.9007C37.3002 38.8007 37.4002 38.7007 37.5002 38.6007C37.6002 38.6007 37.7002 38.6007 37.7002 38.6007C37.9002 38.7007 38.2002 39.0007 38.2002 39.1007C38.2002 39.3007 37.8002 39.3007 37.7002 39.3007ZM33.5002 39.3007C33.2002 39.4007 32.9002 39.4007 32.6002 39.2007C32.4002 39.0007 32.8002 38.7007 32.9002 38.7007C33.2002 38.7007 33.7002 39.1007 33.5002 39.3007ZM29.7002 41.2007C29.6002 41.4007 29.2002 43.0007 29.0002 42.8007C28.8002 42.6007 29.1002 41.0007 29.2002 40.9007C29.5002 40.2007 30.3002 40.2007 29.7002 41.2007ZM30.9002 47.2007C30.0002 47.2007 29.1002 47.1007 28.2002 46.8007C28.1002 46.7007 28.0002 46.5007 28.1002 46.3007C28.5002 45.6007 29.2002 45.2007 30.0002 45.2007C31.5002 45.1007 33.5002 46.2007 33.9002 46.0007C34.2002 45.8007 34.9002 45.0007 35.9002 45.0007C36.2002 45.0007 36.5002 45.1007 36.8002 45.2007C35.1002 46.6007 33.1002 47.3007 30.9002 47.2007ZM37.7002 44.6007C37.6002 44.6007 37.5002 44.5007 37.4002 44.5007C36.9002 44.2007 36.9002 44.7007 36.7002 44.6007C36.4002 44.5007 37.0002 43.9007 36.2002 44.4007C35.4002 44.9007 35.6002 44.3007 35.3002 43.5007C35.1002 42.7007 35.5002 41.8007 36.3002 41.5007C36.9002 41.3007 37.4002 41.2007 38.0002 41.1007C39.1002 40.8007 39.4002 40.1007 39.6002 40.6007L39.7002 40.8007C39.8002 41.0007 39.8002 41.2007 39.8002 41.4007C39.3002 42.5007 38.6002 43.7007 37.7002 44.6007ZM40.3002 39.9007C40.0002 39.8007 39.0002 38.4007 39.8002 37.4007C39.9002 37.2007 39.5002 36.8007 39.6002 36.8007C40.0002 36.8007 40.4002 37.1007 40.4002 37.5007C40.4002 37.7007 40.4002 37.9007 40.4002 38.0007C40.4002 38.6007 40.4002 39.3007 40.3002 39.9007Z" fill="white"/>
</g>
</g>
</g>
<defs>
<clipPath id="clip0_3749_17019">
<rect width="60" height="60" fill="white"/>
</clipPath>
<clipPath id="clip1_3749_17019">
<rect width="60" height="60" fill="white"/>
</clipPath>
<clipPath id="clip2_3749_17019">
<rect width="60" height="60" fill="white"/>
</clipPath>
</defs>
</svg>
