<svg width="60" height="60" viewBox="0 0 60 60" fill="none" xmlns="http://www.w3.org/2000/svg">
<g clip-path="url(#clip0_3748_15205)">
<g clip-path="url(#clip1_3748_15205)">
<path d="M60 0H0V60H60V0Z" fill="#2E9A48"/>
<path d="M5.49992 15.9C4.99992 15.2 4.69992 14.3 4.79992 13.3V12.9H6.99992V13.3C6.99992 13.7 6.99992 14.2 7.19992 14.6C7.29992 14.8 7.59992 15 7.89992 15C8.19992 15 8.49992 14.9 8.59992 14.6C8.69992 14.2 8.79992 13.8 8.79992 13.3C8.79992 12.8 8.69992 12.4 8.49992 11.9C8.29992 11.6 7.89992 11.4 7.49992 11.4H7.09992V9.9H7.39992C7.79992 9.9 8.09992 9.8 8.39992 9.5C8.59992 9.1 8.69992 8.7 8.69992 8.3C8.69992 7.9 8.69992 7.6 8.49992 7.2C8.39992 6.9 8.09992 6.8 7.79992 6.8C7.49992 6.8 7.19992 6.9 7.09992 7.2C6.99992 7.5 6.99992 7.9 6.99992 8.3V8.8H4.79992V8.1C4.69992 7.3 4.99992 6.5 5.59992 5.8C6.19992 5.3 6.99992 5 7.79992 5C8.69992 5 9.49992 5.2 10.0999 5.8C10.6999 6.4 10.9999 7.2 10.8999 8.1C10.8999 8.7 10.7999 9.3 10.4999 9.8C10.2999 10.2 9.89992 10.5 9.49992 10.6C10.3999 11 10.8999 11.9 10.8999 13.3C10.9999 14.2 10.6999 15.1 10.1999 15.9C9.59992 16.6 8.79992 16.9 7.89992 16.9C6.99992 16.9 6.09992 16.6 5.49992 15.9Z" fill="white"/>
<path d="M16.0002 9.19961C15.8002 8.89961 15.7002 8.49961 15.7002 8.09961V6.59961C15.7002 6.19961 15.8002 5.79961 16.0002 5.49961C16.2002 5.19961 16.6002 5.09961 17.0002 5.09961C17.3002 5.09961 17.7002 5.19961 17.9002 5.39961C18.1002 5.69961 18.2002 5.99961 18.2002 6.39961V6.59961H17.4002V6.39961C17.4002 6.29961 17.4002 6.09961 17.4002 5.99961C17.4002 5.89961 17.3002 5.79961 17.3002 5.79961C17.2002 5.69961 17.1002 5.69961 17.0002 5.69961C16.8002 5.69961 16.6002 5.79961 16.6002 5.99961C16.6002 6.09961 16.6002 6.29961 16.6002 6.39961V8.19961C16.6002 8.39961 16.6002 8.59961 16.7002 8.79961C16.8002 8.89961 16.9002 8.99961 17.1002 8.99961C17.3002 8.99961 17.4002 8.89961 17.5002 8.79961C17.6002 8.59961 17.6002 8.39961 17.6002 8.19961V7.79961H17.1002V7.29961H18.3002V9.49961H17.7002V9.09961C17.6002 9.39961 17.3002 9.59961 17.0002 9.59961C16.6002 9.59961 16.2002 9.49961 16.0002 9.19961Z" fill="white"/>
<path d="M19.0002 9.2C18.8002 8.9 18.7002 8.5 18.7002 8.1V6.5C18.7002 6.1 18.8002 5.8 19.0002 5.5C19.6002 5 20.4002 5 21.0002 5.5C21.2002 5.8 21.3002 6.2 21.3002 6.5V8.1C21.3002 8.5 21.2002 8.9 21.0002 9.2C20.8002 9.5 20.4002 9.6 20.0002 9.6C19.6002 9.6 19.3002 9.5 19.0002 9.2ZM20.4002 8.8C20.5002 8.6 20.5002 8.5 20.5002 8.3V6.3C20.5002 6.1 20.5002 6 20.4002 5.8C20.2002 5.6 19.9002 5.6 19.7002 5.8C19.6002 6 19.6002 6.1 19.6002 6.3V8.3C19.6002 8.5 19.6002 8.6 19.7002 8.8C19.7002 8.9 19.9002 9 20.0002 9C20.1002 9 20.3002 8.9 20.4002 8.8Z" fill="white"/>
<path d="M22.0002 9.2C21.8002 8.9 21.7002 8.5 21.7002 8.1V6.5C21.7002 6.1 21.8002 5.8 22.0002 5.5C22.6002 5 23.4002 5 24.0002 5.5C24.2002 5.8 24.3002 6.2 24.3002 6.5V8.1C24.3002 8.5 24.2002 8.9 24.0002 9.2C23.8002 9.5 23.4002 9.6 23.0002 9.6C22.6002 9.6 22.3002 9.5 22.0002 9.2ZM23.4002 8.8C23.5002 8.6 23.5002 8.5 23.5002 8.3V6.3C23.5002 6.1 23.5002 6 23.4002 5.8C23.2002 5.6 22.9002 5.6 22.7002 5.8C22.6002 6 22.6002 6.1 22.6002 6.3V8.3C22.6002 8.5 22.6002 8.6 22.7002 8.8C22.7002 8.9 22.9002 9 23.0002 9C23.1002 9 23.3002 8.9 23.4002 8.8Z" fill="white"/>
<path d="M24.8002 5.2002H25.8002C26.1002 5.2002 26.4002 5.2002 26.6002 5.3002C26.8002 5.4002 26.9002 5.5002 27.0002 5.7002C27.1002 5.9002 27.1002 6.2002 27.1002 6.5002V8.1002C27.1002 8.4002 27.1002 8.6002 27.0002 8.9002C26.9002 9.1002 26.8002 9.3002 26.6002 9.4002C26.3002 9.5002 26.1002 9.6002 25.8002 9.5002H24.7002L24.8002 5.2002ZM25.9002 9.0002C26.0002 9.0002 26.2002 9.0002 26.3002 8.9002C26.4002 8.8002 26.4002 8.7002 26.5002 8.6002C26.5002 8.4002 26.5002 8.3002 26.5002 8.1002V6.5002C26.5002 6.4002 26.5002 6.2002 26.5002 6.1002C26.5002 6.0002 26.4002 5.9002 26.3002 5.9002C26.2002 5.8002 26.0002 5.8002 25.9002 5.8002H25.7002V9.0002H25.9002Z" fill="white"/>
<path d="M29.1001 5.2002H29.9001V7.0002H30.8001V5.2002H31.6001V9.6002H30.8001V7.6002H29.9001V9.5002H29.1001V5.2002Z" fill="white"/>
<path d="M32.2002 5.2002H34.0002V5.8002H33.0002V7.0002H33.8002V7.6002H33.0002V9.0002H34.0002V9.5002H32.2002V5.2002Z" fill="white"/>
<path d="M35.1998 5.2002H35.9998L36.8998 9.6002H36.1998L35.9998 8.6002H35.1998L34.9998 9.6002H34.2998L35.1998 5.2002ZM35.8998 8.1002L35.5998 6.3002L35.2998 8.1002H35.8998Z" fill="white"/>
<path d="M37.2998 5.2002H38.0998V9.0002H39.1998V9.5002H37.2998V5.2002Z" fill="white"/>
<path d="M39.9002 5.8002H39.2002V5.2002H41.4002V5.8002H40.7002V9.6002H39.9002V5.8002Z" fill="white"/>
<path d="M41.7002 5.2002H42.5002V7.0002H43.4002V5.2002H44.2002V9.6002H43.4002V7.6002H42.5002V9.5002H41.7002V5.2002Z" fill="white"/>
<path d="M16.5001 12.2998H17.4001L18.3001 16.6998H17.6001L17.4001 15.6998H16.6001L16.4001 16.6998H15.6001L16.5001 12.2998ZM17.2001 15.1998L16.9001 13.3998L16.6001 15.1998H17.2001Z" fill="white"/>
<path d="M18.6001 12.2998H19.2001L20.3001 14.7998V12.2998H21.0001V16.6998H20.5001L19.4001 14.0998V16.6998H18.8001V12.2998H18.6001Z" fill="white"/>
<path d="M21.5 12.2998H22.5C22.8 12.2998 23.1 12.2998 23.3 12.3998C23.5 12.4998 23.6 12.5998 23.7 12.7998C23.8 12.9998 23.8 13.2998 23.8 13.5998V15.1998C23.8 15.4998 23.8 15.6998 23.7 15.9998C23.6 16.1998 23.5 16.3998 23.3 16.4998C23 16.5998 22.8 16.6998 22.5 16.6998H21.5V12.2998ZM22.6 16.1998C22.7 16.1998 22.9 16.1998 23 16.0998C23.1 15.9998 23.1 15.9998 23.2 15.7998C23.2 15.5998 23.2 15.4998 23.2 15.2998V13.5998C23.2 13.4998 23.2 13.2998 23.2 13.1998C23.2 13.0998 23.1 12.9998 23 12.9998C22.9 12.8998 22.8 12.8998 22.6 12.8998H22.4V16.1998H22.6Z" fill="white"/>
<path d="M25.6001 12.2998H26.3001L26.7001 15.0998L27.2001 12.2998H27.7001L28.2001 15.0998L28.6001 12.2998H29.3001L28.7001 16.6998H28.1001L27.6001 13.7998L27.1001 16.6998H26.4001L25.6001 12.2998Z" fill="white"/>
<path d="M29.6001 12.2998H31.4001V12.8998H30.4001V14.1998H31.2001V14.7998H30.4001V16.2998H31.5001V16.7998H29.7001L29.6001 12.2998Z" fill="white"/>
<path d="M31.8999 12.2998H32.6999V16.1998H33.7999V16.6998H31.8999V12.2998Z" fill="white"/>
<path d="M34.1001 12.2998H34.9001V16.1998H36.0001V16.6998H34.1001V12.2998Z" fill="white"/>
<path d="M36.3999 14.7002H37.6999V15.2002H36.3999V14.7002Z" fill="white"/>
<path d="M38.2998 12.2998H39.3998C39.6998 12.2998 40.0998 12.3998 40.3998 12.5998C40.5998 12.7998 40.7998 13.0998 40.6998 13.4998C40.6998 13.9998 40.4998 14.3998 40.0998 14.4998C40.5998 14.5998 40.8998 14.9998 40.8998 15.5998C40.8998 15.8998 40.7998 16.2998 40.5998 16.5998C40.2998 16.7998 39.9998 16.9998 39.5998 16.8998H38.2998V12.2998ZM39.2998 14.0998C39.4998 14.0998 39.5998 14.0998 39.7998 13.8998C39.8998 13.7998 39.8998 13.5998 39.8998 13.3998C39.8998 13.1998 39.8998 13.0998 39.6998 12.8998C39.4998 12.7998 39.2998 12.7998 39.0998 12.7998H38.8998V13.9998L39.2998 14.0998ZM39.2998 16.0998C39.4998 16.0998 39.6998 16.0998 39.7998 15.8998C39.8998 15.6998 39.8998 15.4998 39.8998 15.2998C39.8998 15.0998 39.8998 14.8998 39.6998 14.6998C39.5998 14.5998 39.3998 14.4998 39.1998 14.4998H38.9998V15.9998H39.2998V16.0998Z" fill="white"/>
<path d="M41.2002 12.2998H43.0002V12.8998H42.0002V14.1998H42.8002V14.7998H42.0002V16.2998H43.1002V16.7998H41.3002L41.2002 12.2998Z" fill="white"/>
<path d="M43.5 12.2998H44.3V16.6998H43.5V12.2998Z" fill="white"/>
<path d="M45 12.2998H45.6L46.7 14.7998V12.2998H47.4V16.6998H46.9L45.8 14.0998V16.6998H45V12.2998Z" fill="white"/>
<path d="M48.0998 16.3005C47.8998 16.0005 47.7998 15.6005 47.7998 15.2005V13.7005C47.7998 13.3005 47.8998 12.9005 48.0998 12.6005C48.5998 12.1005 49.4998 12.1005 49.9998 12.5005C50.1998 12.8005 50.2998 13.1005 50.2998 13.5005V13.7005H49.4998V13.5005C49.4998 13.4005 49.4998 13.2005 49.4998 13.1005C49.4998 13.0005 49.3998 12.9005 49.3998 12.9005C49.2998 12.8005 49.1998 12.8005 49.0998 12.8005C48.9998 12.8005 48.8998 12.8005 48.7998 12.9005C48.6998 13.0005 48.6998 13.1005 48.6998 13.1005C48.6998 13.2005 48.6998 13.4005 48.6998 13.5005V15.3005C48.6998 15.5005 48.6998 15.7005 48.7998 15.9005C48.8998 16.0005 48.9998 16.1005 49.1998 16.1005C49.3998 16.1005 49.4998 16.0005 49.5998 15.9005C49.6998 15.7005 49.6998 15.5005 49.6998 15.3005V15.0005H49.1998V14.5005H50.3998V16.7005H49.8998L49.7998 16.3005C49.6998 16.6005 49.3998 16.8005 49.0998 16.8005C48.6998 16.8005 48.2998 16.7005 48.0998 16.3005Z" fill="white"/>
<path d="M50.1999 37.5004C50.2999 35.9004 49.1999 34.6004 47.5999 34.4004C47.4999 34.4004 47.4999 34.4004 47.3999 34.4004C46.4999 34.6004 45.5999 35.1004 44.9999 35.9004C44.4999 35.3004 43.4999 34.4004 42.6999 34.4004C41.0999 34.5004 39.7999 35.8004 39.8999 37.4004C39.8999 37.4004 39.8999 37.4004 39.8999 37.5004C39.8999 38.3004 40.1999 39.1004 40.7999 39.7004L44.9999 43.9004L49.1999 39.7004C49.8999 39.0004 50.2999 38.3004 50.1999 37.5004Z" fill="white"/>
<path d="M32.2998 50.8C31.8998 50.8 31.5998 50.5 31.5998 50.2L29.4998 37.7L26.2998 43.7C26.0998 44 25.6998 44.2 25.3998 44C25.1998 43.9 25.0998 43.7 25.0998 43.5L23.6998 33.8L20.9998 39.5C20.8998 39.7 20.5998 39.9 20.3998 39.9H10.5998C10.1998 39.9 9.8998 39.7 9.7998 39.3C9.7998 38.9 9.9998 38.6 10.3998 38.5C10.4998 38.5 10.4998 38.5 10.5998 38.5H19.9998L23.2998 31C23.3998 30.7 23.6998 30.6 23.9998 30.6C24.2998 30.6 24.5998 30.9 24.5998 31.2L25.9998 41.1L29.1998 35.2C29.2998 34.9 29.5998 34.8 29.8998 34.8C30.1998 34.9 30.3998 35.1 30.4998 35.4L32.4998 47L39.6998 23C39.7998 22.7 39.9998 22.5 40.2998 22.5C40.5998 22.5 40.8998 22.6 40.9998 22.9L44.7998 30.8C44.9998 31.1 44.8998 31.6 44.4998 31.7C44.1998 31.9 43.6998 31.7 43.5998 31.4L40.5998 25.1L32.9998 50.3C32.7998 50.6 32.5998 50.8 32.2998 50.8Z" fill="white"/>
</g>
</g>
<defs>
<clipPath id="clip0_3748_15205">
<rect width="60" height="60" fill="white"/>
</clipPath>
<clipPath id="clip1_3748_15205">
<rect width="60" height="60" fill="white"/>
</clipPath>
</defs>
</svg>
