<svg width="60" height="60" viewBox="0 0 60 60" fill="none" xmlns="http://www.w3.org/2000/svg">
<g clip-path="url(#clip0_3748_15171)">
<g clip-path="url(#clip1_3748_15171)">
<path d="M60.1 -0.0996094H0V60.0004H60.1V-0.0996094Z" fill="#D1A029"/>
<path d="M4.7998 15.1005L7.5998 10.8005L7.7998 10.5005C8.0998 10.1005 8.3998 9.60046 8.5998 9.10046C8.6998 8.80046 8.7998 8.40046 8.7998 8.00046C8.7998 7.70046 8.6998 7.40046 8.5998 7.20046C8.4998 7.00046 8.1998 6.90046 7.9998 6.90046C7.6998 6.80046 7.3998 7.00046 7.1998 7.30046C6.9998 7.70046 6.8998 8.10046 6.9998 8.50046V9.00046H4.7998V8.50046C4.7998 7.60046 4.9998 6.70046 5.5998 5.90046C6.1998 5.20046 7.0998 4.90046 7.9998 4.90046C9.4998 4.70046 10.7998 5.80046 10.9998 7.30046C10.9998 7.50046 10.9998 7.70046 10.9998 7.90046C10.9998 8.30046 10.8998 8.70046 10.7998 9.10046C10.6998 9.50046 10.4998 9.80046 10.2998 10.1005C10.0998 10.4005 9.7998 10.8005 9.4998 11.4005L7.2998 14.7005H10.6998V16.4005H4.8998L4.7998 15.1005Z" fill="white"/>
<path d="M15.7002 9.0002L16.9002 5.7002H15.8002V5.2002H17.7002V5.6002L16.4002 9.0002H17.6002V9.5002H15.7002V9.0002Z" fill="white"/>
<path d="M18.1001 5.2002H19.9001V5.8002H18.8001V7.0002H19.6001V7.6002H18.8001V9.0002H19.9001V9.5002H18.1001V5.2002Z" fill="white"/>
<path d="M20.3999 5.2002H21.4999C21.8999 5.2002 22.1999 5.3002 22.4999 5.5002C22.7999 5.7002 22.8999 6.1002 22.7999 6.4002C22.7999 6.6002 22.7999 6.9002 22.6999 7.1002C22.5999 7.3002 22.4999 7.4002 22.2999 7.5002L22.8999 9.7002H22.0999L21.5999 7.7002H21.1999V9.7002H20.3999V5.2002ZM21.3999 7.0002C21.5999 7.0002 21.7999 7.0002 21.8999 6.8002C21.9999 6.7002 21.9999 6.5002 21.9999 6.4002C21.9999 6.2002 21.9999 6.0002 21.8999 5.9002C21.7999 5.8002 21.5999 5.7002 21.3999 5.7002H21.0999V7.0002H21.3999Z" fill="white"/>
<path d="M23.5998 9.2C23.3998 8.9 23.2998 8.5 23.2998 8.1V6.5C23.2998 6.1 23.3998 5.8 23.5998 5.5C24.0998 5 24.9998 5 25.4998 5.5C25.6998 5.8 25.7998 6.2 25.7998 6.5V8.1C25.7998 8.5 25.6998 8.9 25.4998 9.2C25.1998 9.5 24.8998 9.6 24.4998 9.6C24.1998 9.6 23.7998 9.5 23.5998 9.2ZM24.8998 8.8C24.9998 8.7 24.9998 8.5 24.9998 8.3V6.3C24.9998 6.1 24.9998 6 24.8998 5.8C24.7998 5.7 24.6998 5.6 24.4998 5.6C24.3998 5.6 24.1998 5.6 24.0998 5.8C23.9998 5.9 23.9998 6.1 23.9998 6.3V8.3C23.9998 8.5 23.9998 8.6 24.0998 8.8C24.2998 9 24.5998 9 24.8998 8.8Z" fill="white"/>
<path d="M15.7998 12.3008H16.5998V14.1008H17.4998V12.3008H18.2998V16.7008H17.4998V14.8008H16.5998V16.7008H15.7998V12.3008Z" fill="white"/>
<path d="M19.3999 16.6008C19.1999 16.5008 19.0999 16.3008 18.9999 16.1008C18.8999 15.8008 18.8999 15.6008 18.8999 15.3008V12.3008H19.6999V15.4008C19.6999 15.6008 19.6999 15.8008 19.7999 16.0008C19.8999 16.2008 20.1999 16.3008 20.3999 16.2008C20.4999 16.2008 20.4999 16.1008 20.5999 16.0008C20.6999 15.8008 20.6999 15.6008 20.6999 15.4008V12.3008H21.4999V15.3008C21.4999 15.6008 21.4999 15.8008 21.3999 16.1008C21.2999 16.3008 21.1999 16.5008 20.9999 16.6008C20.3999 16.8008 19.8999 16.8008 19.3999 16.6008Z" fill="white"/>
<path d="M22 12.3008H22.6L23.7 14.8008V12.3008H24.4V16.7008H23.8L22.7 14.1008V16.7008H22V12.3008Z" fill="white"/>
<path d="M25.0998 16.4008C24.8998 16.1008 24.7998 15.7008 24.7998 15.3008V13.8008C24.7998 13.4008 24.8998 13.0008 25.0998 12.7008C25.2998 12.4008 25.6998 12.3008 26.0998 12.3008C26.4998 12.3008 26.7998 12.4008 27.0998 12.6008C27.2998 12.9008 27.3998 13.2008 27.3998 13.6008V13.8008H26.5998V13.6008C26.5998 13.5008 26.5998 13.3008 26.5998 13.2008C26.5998 13.1008 26.4998 13.0008 26.4998 13.0008C26.3998 12.9008 26.2998 12.9008 26.1998 12.9008C26.0998 12.9008 25.9998 12.9008 25.8998 13.0008C25.7998 13.1008 25.7998 13.2008 25.7998 13.3008C25.7998 13.4008 25.7998 13.6008 25.7998 13.7008V15.5008C25.7998 15.7008 25.7998 15.9008 25.8998 16.1008C26.0998 16.3008 26.2998 16.3008 26.5998 16.2008L26.6998 16.1008C26.7998 15.9008 26.7998 15.7008 26.7998 15.5008V15.0008H26.2998V14.5008H27.4998V16.7008H26.9998L26.8998 16.3008C26.7998 16.6008 26.4998 16.8008 26.1998 16.8008C25.6998 16.8008 25.2998 16.7008 25.0998 16.4008Z" fill="white"/>
<path d="M27.8999 12.3008H29.6999V12.9008H28.6999V14.2008H29.4999V14.8008H28.6999V16.2008H29.6999V16.8008H27.8999V12.3008Z" fill="white"/>
<path d="M30.2002 12.3008H31.3002C31.7002 12.3008 32.0002 12.4008 32.3002 12.6008C32.5002 12.8008 32.7002 13.2008 32.6002 13.5008C32.6002 13.7008 32.6002 14.0008 32.5002 14.2008C32.4002 14.4008 32.3002 14.5008 32.1002 14.6008L32.7002 16.8008H31.9002L31.4002 14.8008H31.0002V16.8008H30.2002V12.3008ZM31.2002 14.2008C31.4002 14.2008 31.5002 14.2008 31.7002 14.0008C31.8002 13.9008 31.9002 13.7008 31.8002 13.5008C31.8002 13.3008 31.8002 13.1008 31.7002 13.0008C31.6002 12.9008 31.4002 12.8008 31.2002 12.8008H31.0002V14.1008H31.2002V14.2008Z" fill="white"/>
<path d="M23.8999 51.1006V52.0006C23.8999 52.2006 24.0999 52.4006 24.2999 52.4006H34.2999C34.4999 52.4006 34.6999 52.2006 34.6999 52.0006V51.0006C40.1999 49.3006 44.2999 44.7006 45.3999 39.1006V39.0006C45.3999 38.8006 45.1999 38.6006 44.9999 38.6006H13.2999C13.0999 38.6006 12.8999 38.8006 12.8999 39.0006V39.2006C13.9999 44.9006 18.2999 49.5006 23.8999 51.1006Z" fill="white"/>
<path d="M34.6999 25.0004C34.5999 25.2004 31.4999 29.6004 34.7999 33.2004C35.9999 34.2004 36.3999 35.8004 35.7999 37.3004H37.8999C38.3999 35.5004 37.7999 33.5004 36.4999 32.2004C34.0999 29.6004 36.4999 26.0004 36.5999 26.0004C36.7999 25.6004 36.7999 25.2004 36.3999 24.9004C36.3999 24.9004 36.2999 24.8004 36.1999 24.8004C35.5999 24.5004 34.9999 24.6004 34.6999 25.0004Z" fill="white"/>
<path d="M29.4 37.3002H31.5C32 35.5002 31.4 33.5002 30 32.2002C27.6 29.6002 30 26.0002 30.1 26.0002C30.3 25.6002 30.3 25.2002 29.9 24.9002C29.9 24.9002 29.8 24.8002 29.7 24.8002C29.2 24.6002 28.7 24.7002 28.3 25.1002C28.2 25.3002 25.1 29.7002 28.4 33.3002C29.6 34.2002 30 35.8002 29.4 37.3002Z" fill="white"/>
<path d="M22.0998 25.0004C21.9998 25.2004 18.8998 29.6004 22.1998 33.2004C23.3998 34.2004 23.7998 35.8004 23.1998 37.3004H25.2998C25.7998 35.5004 25.1998 33.5004 23.7998 32.2004C21.3998 29.6004 23.7998 26.0004 23.8998 26.0004C24.0998 25.6004 24.0998 25.2004 23.6998 24.9004C23.6998 24.9004 23.5998 24.8004 23.4998 24.8004C22.9998 24.5004 22.3998 24.6004 22.0998 25.0004Z" fill="white"/>
</g>
</g>
<defs>
<clipPath id="clip0_3748_15171">
<rect width="60" height="60" fill="white"/>
</clipPath>
<clipPath id="clip1_3748_15171">
<rect width="60" height="60" fill="white"/>
</clipPath>
</defs>
</svg>
