<svg width="60" height="60" viewBox="0 0 60 60" fill="none" xmlns="http://www.w3.org/2000/svg">
<g clip-path="url(#clip0_3748_15917)">
<g clip-path="url(#clip1_3748_15917)">
<g clip-path="url(#clip2_3748_15917)">
<path d="M61 0H0V60H61V0Z" fill="#CD8C2B"/>
<path d="M5.2001 7.5002C5.1001 7.5002 4.8001 7.6002 4.3001 7.8002C3.8001 8.0002 3.7001 8.0002 3.6001 8.1002V6.5002C4.0001 6.3002 4.4001 6.1002 4.7001 5.9002C5.1001 5.7002 5.4001 5.5002 5.7001 5.2002H7.4001V16.6002H5.2001V7.5002Z" fill="white"/>
<path d="M8.7002 15.1005L11.5002 10.8005L11.7002 10.5005C12.0002 10.1005 12.3002 9.60046 12.5002 9.10046C12.7002 8.70046 12.8002 8.30046 12.8002 7.90046C12.8002 7.60046 12.7002 7.30046 12.6002 7.10046C12.5002 6.90046 12.2002 6.80046 12.0002 6.80046C11.7002 6.80046 11.3002 6.90046 11.2002 7.30046C11.0002 7.70046 11.0002 8.10046 11.0002 8.60046V9.10046H8.7002V8.60046C8.7002 7.70046 9.0002 6.80046 9.5002 6.00046C10.1002 5.30046 11.0002 5.00046 11.9002 5.00046C13.4002 4.90046 14.8002 6.00046 15.0002 7.40046C15.0002 7.60046 15.0002 7.80046 15.0002 8.00046C15.0002 8.40046 14.9002 8.80046 14.8002 9.20046C14.7002 9.60046 14.5002 9.90046 14.3002 10.2005C14.1002 10.5005 13.8002 10.9005 13.5002 11.5005L11.3002 14.8005H14.8002V16.5005H8.7002V15.1005Z" fill="white"/>
<path d="M19.3999 9.6002V5.2002H20.4999C20.7999 5.2002 20.9999 5.2002 21.2999 5.3002C21.4999 5.4002 21.6999 5.5002 21.7999 5.7002C21.8999 5.9002 21.9999 6.1002 21.9999 6.4002C21.9999 6.6002 21.9999 6.7002 21.9999 6.9002C21.9999 7.0002 21.8999 7.2002 21.7999 7.3002C21.6999 7.4002 21.5999 7.5002 21.4999 7.5002L22.0999 9.7002H21.2999L20.7999 7.7002H20.3999V9.7002H19.3999V9.6002ZM20.1999 7.1002H20.4999C20.5999 7.1002 20.7999 7.1002 20.8999 7.0002C20.8999 7.0002 20.9999 6.9002 20.9999 6.8002C20.9999 6.7002 21.0999 6.5002 21.0999 6.4002C21.0999 6.2002 21.0999 6.1002 20.9999 5.9002C20.8999 5.8002 20.6999 5.7002 20.4999 5.7002H20.1999V7.1002Z" fill="white"/>
<path d="M22.2998 9.6002V5.2002H24.1998V5.7002H23.0998V7.0002H23.8998V7.6002H23.0998V9.0002H24.1998V9.6002H22.2998Z" fill="white"/>
<path d="M25.5998 9.59961C25.3998 9.59961 25.0998 9.59961 24.8998 9.39961C24.6998 9.29961 24.5998 9.09961 24.4998 8.99961C24.3998 8.79961 24.3998 8.49961 24.2998 8.29961L24.9998 8.19961C24.9998 8.39961 24.9998 8.49961 25.0998 8.69961C25.0998 8.79961 25.1998 8.89961 25.2998 8.99961C25.3998 8.99961 25.4998 8.99961 25.5998 8.99961C25.6998 8.99961 25.7998 8.99961 25.8998 8.89961C25.9998 8.79961 25.9998 8.69961 25.9998 8.59961C25.9998 8.39961 25.9998 8.29961 25.8998 8.09961C25.7998 7.99961 25.6998 7.79961 25.4998 7.69961L24.8998 7.19961C24.6998 7.09961 24.5998 6.89961 24.4998 6.79961C24.3998 6.59961 24.3998 6.39961 24.3998 6.19961C24.3998 5.89961 24.4998 5.59961 24.6998 5.39961C24.8998 5.19961 25.1998 5.09961 25.4998 5.09961C25.6998 5.09961 25.8998 5.09961 25.9998 5.19961C26.0998 5.29961 26.1998 5.39961 26.2998 5.49961C26.3998 5.59961 26.3998 5.69961 26.4998 5.89961C26.4998 5.99961 26.5998 6.19961 26.5998 6.39961H25.9998C25.9998 6.29961 25.9998 6.19961 25.9998 5.99961C25.9998 5.89961 25.8998 5.79961 25.8998 5.69961C25.6998 5.59961 25.4998 5.59961 25.3998 5.69961C25.2998 5.79961 25.2998 5.89961 25.2998 5.99961C25.2998 6.09961 25.2998 6.29961 25.3998 6.39961C25.4998 6.49961 25.5998 6.59961 25.6998 6.69961L26.2998 7.19961C26.4998 7.39961 26.5998 7.49961 26.7998 7.69961C26.8998 7.89961 26.9998 8.19961 26.9998 8.39961C26.9998 8.59961 26.9998 8.79961 26.8998 8.99961C26.7998 9.19961 26.6998 9.29961 26.4998 9.39961C25.9998 9.59961 25.7998 9.59961 25.5998 9.59961Z" fill="white"/>
<path d="M27 9.6002V5.2002H28.3C28.5 5.2002 28.8 5.2002 29 5.3002C29.2 5.4002 29.3 5.5002 29.4 5.7002C29.5 5.9002 29.5 6.1002 29.5 6.4002C29.5 6.6002 29.5 6.9002 29.4 7.1002C29.3 7.3002 29.2 7.4002 29 7.5002C28.8 7.6002 28.6 7.6002 28.4 7.6002H28V9.5002L27 9.6002ZM27.8 7.1002H28.1C28.2 7.1002 28.3 7.1002 28.4 7.0002C28.5 7.0002 28.5 6.9002 28.6 6.8002C28.6 6.7002 28.6 6.6002 28.6 6.4002C28.6 6.3002 28.6 6.1002 28.6 6.0002C28.6 5.9002 28.5 5.8002 28.4 5.8002C28.3 5.7002 28.2 5.7002 28 5.7002H27.7L27.8 7.1002Z" fill="white"/>
<path d="M30.9001 9.6C30.6001 9.6 30.4001 9.6 30.1001 9.4C29.9001 9.3 29.8001 9.1 29.7001 8.9C29.6001 8.7 29.6001 8.4 29.6001 8.1V6.5C29.6001 6.2 29.6001 6 29.7001 5.7C29.8001 5.5 29.9001 5.3 30.1001 5.2C30.3001 5.1 30.6001 5 30.9001 5C31.2001 5 31.4001 5 31.7001 5.2C31.9001 5.3 32.0001 5.5 32.1001 5.7C32.2001 5.9 32.2001 6.2 32.2001 6.5V8.1C32.2001 8.4 32.2001 8.6 32.1001 8.9C32.0001 9.1 31.9001 9.3 31.7001 9.4C31.5001 9.6 31.2001 9.6 30.9001 9.6ZM30.9001 9C31.0001 9 31.1001 9 31.2001 8.9C31.3001 8.8 31.3001 8.8 31.3001 8.7C31.3001 8.6 31.3001 8.5 31.3001 8.4V6.4C31.3001 6.3 31.3001 6.2 31.3001 6.1C31.3001 5.9 31.1001 5.8 30.9001 5.8C30.8001 5.8 30.7001 5.8 30.6001 5.9C30.5001 6 30.5001 6 30.5001 6.1C30.5001 6.2 30.5001 6.3 30.5001 6.4V8.4C30.5001 8.5 30.5001 8.6 30.5001 8.7C30.5001 8.8 30.6001 8.9 30.6001 8.9C30.7001 9 30.8001 9 30.9001 9Z" fill="white"/>
<path d="M32.6001 9.6002V5.2002H33.2001L34.3001 7.7002V5.2002H35.0001V9.6002H34.5001L33.4001 7.0002V9.6002H32.6001Z" fill="white"/>
<path d="M36.5998 9.59961C36.3998 9.59961 36.0998 9.59961 35.8998 9.39961C35.6998 9.29961 35.5998 9.09961 35.4998 8.99961C35.3998 8.79961 35.3998 8.49961 35.2998 8.29961L35.9998 8.19961C35.9998 8.39961 35.9998 8.49961 36.0998 8.69961C36.0998 8.79961 36.1998 8.89961 36.2998 8.99961C36.3998 8.99961 36.4998 8.99961 36.5998 8.99961C36.6998 8.99961 36.7998 8.99961 36.8998 8.89961C36.9998 8.79961 36.9998 8.69961 36.9998 8.59961C36.9998 8.39961 36.9998 8.29961 36.8998 8.09961C36.7998 7.99961 36.6998 7.79961 36.4998 7.69961L35.8998 7.19961C35.6998 7.09961 35.5998 6.89961 35.4998 6.79961C35.3998 6.59961 35.3998 6.39961 35.3998 6.19961C35.3998 5.89961 35.4998 5.59961 35.6998 5.39961C35.8998 5.19961 36.1998 5.09961 36.4998 5.09961C36.6998 5.09961 36.8998 5.09961 36.9998 5.19961C37.0998 5.29961 37.1998 5.39961 37.2998 5.49961C37.3998 5.59961 37.3998 5.69961 37.4998 5.89961C37.4998 5.99961 37.5998 6.19961 37.5998 6.39961L36.8998 6.49961C36.8998 6.39961 36.8998 6.29961 36.8998 6.09961C36.8998 5.99961 36.7998 5.89961 36.7998 5.79961C36.5998 5.69961 36.3998 5.69961 36.2998 5.79961C36.1998 5.89961 36.1998 5.99961 36.1998 6.09961C36.1998 6.19961 36.1998 6.39961 36.2998 6.49961C36.3998 6.59961 36.4998 6.69961 36.5998 6.79961L37.1998 7.29961C37.3998 7.49961 37.4998 7.59961 37.6998 7.79961C37.7998 7.99961 37.8998 8.29961 37.8998 8.49961C37.8998 8.69961 37.8998 8.89961 37.7998 9.09961C37.6998 9.29961 37.5998 9.39961 37.3998 9.49961C36.9998 9.59961 36.7998 9.59961 36.5998 9.59961Z" fill="white"/>
<path d="M38 9.6002V5.2002H38.8V9.6002H38Z" fill="white"/>
<path d="M39.3999 9.6002V5.2002H40.4999C40.6999 5.2002 40.8999 5.2002 40.9999 5.2002C41.0999 5.2002 41.2999 5.3002 41.3999 5.4002C41.4999 5.5002 41.5999 5.6002 41.6999 5.7002C41.7999 5.9002 41.7999 6.1002 41.7999 6.3002C41.7999 6.5002 41.7999 6.6002 41.6999 6.8002C41.6999 6.9002 41.5999 7.0002 41.4999 7.1002C41.3999 7.2002 41.2999 7.2002 41.0999 7.2002C41.2999 7.2002 41.3999 7.3002 41.4999 7.4002C41.5999 7.5002 41.6999 7.6002 41.7999 7.8002C41.8999 8.0002 41.8999 8.2002 41.8999 8.3002C41.8999 8.5002 41.8999 8.7002 41.7999 8.9002C41.6999 9.0002 41.6999 9.2002 41.5999 9.3002C41.4999 9.4002 41.3999 9.5002 41.1999 9.5002C40.9999 9.6002 40.7999 9.6002 40.5999 9.6002H39.3999ZM40.1999 7.0002H40.4999C40.5999 7.0002 40.7999 7.0002 40.8999 6.9002C40.9999 6.9002 41.0999 6.8002 41.0999 6.7002C41.0999 6.6002 41.1999 6.5002 41.0999 6.3002C41.0999 6.2002 41.0999 6.1002 40.9999 5.9002C40.8999 5.8002 40.8999 5.8002 40.7999 5.7002C40.6999 5.7002 40.4999 5.7002 40.3999 5.7002H40.1999V7.0002ZM40.1999 9.0002H40.4999C40.6999 9.0002 40.8999 9.0002 40.9999 8.8002C41.0999 8.6002 41.0999 8.4002 41.0999 8.3002C41.0999 8.2002 41.0999 8.0002 40.9999 7.9002C40.9999 7.8002 40.8999 7.7002 40.7999 7.7002C40.6999 7.6002 40.4999 7.6002 40.3999 7.6002H40.0999L40.1999 9.0002Z" fill="white"/>
<path d="M42.2002 9.6002V5.2002H43.0002V9.1002H44.1002V9.6002H42.2002Z" fill="white"/>
<path d="M44.2998 9.6002V5.2002H46.1998V5.7002H45.0998V7.0002H45.9998V7.6002H45.1998V9.0002H46.2998V9.6002H44.2998Z" fill="white"/>
<path d="M20.5998 16.8C20.2998 16.8 20.0998 16.7 19.7998 16.6C19.5998 16.5 19.4998 16.3 19.3998 16.1C19.2998 15.9 19.2998 15.6 19.2998 15.3V13.7C19.2998 13.4 19.2998 13.2 19.3998 12.9C19.4998 12.7 19.5998 12.5 19.7998 12.4C20.2998 12.2 20.7998 12.2 21.2998 12.4C21.4998 12.5 21.5998 12.7 21.6998 12.8C21.7998 13 21.7998 13.2 21.7998 13.5V13.9H20.9998V13.5C20.9998 13.4 20.9998 13.3 20.9998 13.2C20.9998 13.1 20.8998 13 20.8998 13C20.6998 12.9 20.4998 12.9 20.2998 13C20.1998 13.1 20.1998 13.2 20.1998 13.3C20.1998 13.4 20.1998 13.5 20.1998 13.7V15.6C20.1998 15.7 20.1998 15.9 20.1998 16C20.1998 16.1 20.2998 16.2 20.2998 16.2C20.3998 16.3 20.4998 16.3 20.5998 16.3C20.6998 16.3 20.7998 16.3 20.8998 16.2C20.9998 16.1 20.9998 16 20.9998 15.9C20.9998 15.8 20.9998 15.7 20.9998 15.6V15.2H21.7998V15.5C21.7998 15.7 21.7998 16 21.6998 16.2C21.5998 16.4 21.4998 16.6 21.2998 16.7C21.0998 16.8 20.7998 16.8 20.5998 16.8Z" fill="white"/>
<path d="M23.4001 16.8002C23.1001 16.8002 22.9001 16.8002 22.6001 16.6002C22.4001 16.5002 22.3001 16.3002 22.2001 16.1002C22.1001 15.9002 22.1001 15.6002 22.1001 15.3002V13.7002C22.1001 13.4002 22.1001 13.2002 22.2001 12.9002C22.3001 12.7002 22.4001 12.5002 22.6001 12.4002C22.8001 12.3002 23.1001 12.2002 23.4001 12.2002C23.7001 12.2002 23.9001 12.2002 24.2001 12.4002C24.4001 12.5002 24.5001 12.7002 24.6001 12.9002C24.7001 13.1002 24.7001 13.4002 24.7001 13.7002V15.4002C24.7001 15.7002 24.7001 15.9002 24.6001 16.2002C24.5001 16.4002 24.4001 16.6002 24.2001 16.7002C23.9001 16.8002 23.7001 16.8002 23.4001 16.8002ZM23.4001 16.2002C23.5001 16.2002 23.6001 16.2002 23.7001 16.1002C23.8001 16.0002 23.8001 16.0002 23.8001 15.9002C23.8001 15.8002 23.8001 15.7002 23.8001 15.6002V13.6002C23.8001 13.5002 23.8001 13.4002 23.8001 13.3002C23.8001 13.2002 23.7001 13.1002 23.7001 13.1002C23.6001 13.0002 23.5001 13.0002 23.4001 13.0002C23.3001 13.0002 23.2001 13.0002 23.1001 13.1002C23.1001 13.0002 23.0001 13.1002 23.0001 13.2002C23.0001 13.3002 23.0001 13.4002 23.0001 13.5002V15.5002C23.0001 15.6002 23.0001 15.7002 23.0001 15.8002C23.0001 16.1002 23.2001 16.2002 23.4001 16.2002Z" fill="white"/>
<path d="M25.1001 16.6998V12.2998H25.7001L26.8001 14.7998V12.2998H27.5001V16.6998H27.0001L25.9001 14.0998V16.6998H25.1001Z" fill="white"/>
<path d="M29.0998 16.7996C28.8998 16.7996 28.5998 16.7996 28.3998 16.5996C28.1998 16.4996 28.0998 16.2996 27.9998 16.0996C27.8998 15.8996 27.7998 15.5996 27.7998 15.3996L28.4998 15.2996C28.4998 15.3996 28.4998 15.5996 28.5998 15.6996C28.5998 15.7996 28.6998 15.8996 28.7998 15.9996C28.8998 16.0996 28.9998 16.0996 29.0998 16.0996C29.1998 16.0996 29.2998 16.0996 29.3998 15.9996C29.4998 15.8996 29.4998 15.7996 29.4998 15.6996C29.4998 15.4996 29.4998 15.3996 29.3998 15.1996C29.2998 15.0996 29.1998 14.8996 28.9998 14.7996L28.3998 14.2996C28.1998 14.1996 28.0998 13.9996 27.9998 13.7996C27.8998 13.5996 27.8998 13.3996 27.8998 13.1996C27.8998 12.8996 27.9998 12.5996 28.1998 12.3996C28.3998 12.1996 28.6998 12.0996 28.9998 12.0996C29.1998 12.0996 29.3998 12.0996 29.4998 12.1996C29.5998 12.2996 29.7998 12.2996 29.7998 12.4996C29.8998 12.5996 29.9998 12.6996 29.9998 12.8996C29.9998 12.9996 30.0998 13.1996 30.0998 13.3996L29.3998 13.4996C29.3998 13.3996 29.3998 13.2996 29.3998 13.0996C29.3998 12.9996 29.2998 12.8996 29.2998 12.7996C29.1998 12.6996 29.0998 12.6996 28.9998 12.6996C28.8998 12.6996 28.7998 12.6996 28.6998 12.7996C28.5998 12.8996 28.5998 12.9996 28.5998 13.0996C28.5998 13.1996 28.5998 13.3996 28.6998 13.4996C28.7998 13.5996 28.8998 13.6996 28.9998 13.7996L29.5998 14.2996C29.7998 14.4996 29.8998 14.5996 30.0998 14.7996C30.1998 14.9996 30.2998 15.2996 30.2998 15.4996C30.2998 15.6996 30.2998 15.8996 30.1998 16.0996C30.0998 16.2996 29.9998 16.3996 29.7998 16.4996C29.4998 16.6996 29.2998 16.7996 29.0998 16.7996Z" fill="white"/>
<path d="M31.6999 16.7998C31.3999 16.7998 31.1999 16.6998 30.8999 16.5998C30.6999 16.4998 30.5999 16.2998 30.4999 16.0998C30.3999 15.7998 30.3999 15.5998 30.3999 15.2998V12.2998H31.1999V15.3998C31.1999 15.4998 31.1999 15.6998 31.1999 15.7998C31.1999 15.8998 31.2999 15.9998 31.2999 16.0998C31.3999 16.1998 31.4999 16.1998 31.5999 16.1998C31.6999 16.1998 31.7999 16.1998 31.8999 16.0998C31.9999 15.9998 31.9999 15.8998 31.9999 15.7998C31.9999 15.6998 31.9999 15.4998 31.9999 15.3998V12.2998H32.7999V15.2998C32.7999 15.5998 32.7999 15.7998 32.6999 16.0998C32.5999 16.2998 32.4999 16.4998 32.2999 16.5998C32.1999 16.6998 31.9999 16.7998 31.6999 16.7998Z" fill="white"/>
<path d="M33.5 16.6998L33.6 12.2998H34.4L35 15.2998L35.7 12.2998H36.4L36.5 16.6998H35.9L35.8 13.6998L35.2 16.6998H34.7L34.1 13.6998L34 16.6998H33.5Z" fill="white"/>
<path d="M37 16.6998V12.2998H38.3C38.5 12.2998 38.8 12.2998 39 12.3998C39.2 12.4998 39.3 12.6998 39.4 12.7998C39.5 12.9998 39.5 13.1998 39.5 13.4998C39.5 13.6998 39.5 13.9998 39.4 14.1998C39.3 14.3998 39.2 14.4998 39 14.5998C38.8 14.6998 38.6 14.6998 38.4 14.6998H38V16.5998L37 16.6998ZM37.8 14.1998H38.1C38.2 14.1998 38.3 14.1998 38.4 14.0998C38.5 14.0998 38.5 13.9998 38.6 13.8998C38.6 13.7998 38.6 13.6998 38.6 13.4998C38.6 13.3998 38.6 13.1998 38.6 13.0998C38.6 12.9998 38.5 12.8998 38.4 12.8998C38.3 12.7998 38.2 12.7998 38 12.7998H37.7L37.8 14.1998Z" fill="white"/>
<path d="M40.2 16.6998V12.8998H39.5V12.2998H41.7V12.8998H41V16.6998H40.2Z" fill="white"/>
<path d="M41.8999 16.6998V12.2998H42.6999V16.6998H41.8999Z" fill="white"/>
<path d="M44.4998 16.8002C44.1998 16.8002 43.9998 16.8002 43.7998 16.6002C43.5998 16.5002 43.4998 16.3002 43.3998 16.1002C43.2998 15.9002 43.2998 15.6002 43.2998 15.3002V13.7002C43.2998 13.4002 43.2998 13.2002 43.3998 12.9002C43.4998 12.7002 43.5998 12.5002 43.7998 12.4002C43.9998 12.3002 44.2998 12.2002 44.4998 12.2002C44.7998 12.2002 44.9998 12.2002 45.2998 12.4002C45.4998 12.5002 45.5998 12.7002 45.6998 12.9002C45.7998 13.1002 45.7998 13.4002 45.7998 13.7002V15.4002C45.7998 15.7002 45.7998 15.9002 45.6998 16.2002C45.5998 16.4002 45.4998 16.6002 45.2998 16.7002C44.9998 16.8002 44.6998 16.8002 44.4998 16.8002ZM44.4998 16.2002C44.6998 16.2002 44.8998 16.1002 44.8998 15.9002C44.8998 15.8002 44.8998 15.7002 44.8998 15.6002V13.6002C44.8998 13.5002 44.8998 13.4002 44.8998 13.3002C44.8998 13.2002 44.7998 13.1002 44.7998 13.1002C44.6998 13.0002 44.5998 13.0002 44.4998 13.0002C44.3998 13.0002 44.2998 13.0002 44.1998 13.1002C44.0998 13.2002 44.0998 13.2002 44.0998 13.3002C44.0998 13.4002 44.0998 13.5002 44.0998 13.6002V15.6002C44.0998 15.7002 44.0998 15.8002 44.0998 15.9002C44.0998 16.0002 44.1998 16.1002 44.1998 16.1002C44.2998 16.2002 44.3998 16.2002 44.4998 16.2002Z" fill="white"/>
<path d="M46.2002 16.6998V12.2998H46.8002L47.9002 14.7998V12.2998H48.6002V16.6998H48.0002L46.9002 14.0998V16.6998H46.2002Z" fill="white"/>
<path d="M19.2002 23.9L20.1002 19.5H21.0002L21.9002 23.9H21.2002L21.0002 22.9H20.2002L20.0002 23.9H19.2002ZM20.2002 22.4H20.8002L20.5002 20.6L20.2002 22.4Z" fill="white"/>
<path d="M22.1001 23.9V19.5H22.7001L23.8001 22V19.5H24.5001V23.9H24.0001L22.9001 21.3V23.9H22.1001Z" fill="white"/>
<path d="M24.8999 23.9V19.5H25.9999C26.2999 19.5 26.5999 19.5 26.7999 19.6C26.9999 19.7 27.1999 19.9 27.1999 20.1C27.2999 20.3 27.2999 20.6 27.2999 20.9V22.5C27.2999 22.8 27.2999 23 27.1999 23.3C27.0999 23.5 26.9999 23.7 26.7999 23.8C26.4999 23.9 26.2999 24 25.9999 24H24.8999V23.9ZM25.6999 23.3H25.9999C26.0999 23.3 26.2999 23.3 26.3999 23.2C26.4999 23.1 26.4999 23 26.4999 22.9C26.4999 22.7 26.4999 22.6 26.4999 22.4V20.7C26.4999 20.6 26.4999 20.4 26.4999 20.3C26.4999 20.2 26.3999 20.1 26.2999 20.1C26.1999 20 25.9999 20 25.8999 20H25.6999V23.3Z" fill="white"/>
<path d="M29 23.9V19.5H30.3C30.5 19.5 30.8 19.5 31 19.6C31.2 19.7 31.3 19.8 31.4 20C31.5 20.2 31.5 20.4 31.5 20.7C31.5 20.9 31.5 21.2 31.4 21.4C31.3 21.6 31.2 21.7 31 21.8C30.8 21.9 30.6 21.9 30.4 21.9H30V23.8L29 23.9ZM29.8 21.4H30.1C30.2 21.4 30.3 21.4 30.4 21.3C30.5 21.3 30.6 21.2 30.6 21.1C30.6 21 30.6 20.9 30.6 20.7C30.6 20.6 30.6 20.4 30.6 20.3C30.6 20.2 30.5 20.1 30.4 20.1C30.3 20 30.2 20 30 20H29.7L29.8 21.4Z" fill="white"/>
<path d="M31.7002 23.9V19.5H32.8002C33.1002 19.5 33.3002 19.5 33.6002 19.6C33.8002 19.7 34.0002 19.8 34.1002 20C34.2002 20.2 34.3002 20.5 34.3002 20.7C34.3002 20.9 34.3002 21 34.3002 21.2C34.3002 21.3 34.2002 21.5 34.1002 21.6C34.0002 21.7 33.9002 21.8 33.8002 21.8L34.4002 24H33.6002L33.1002 22H32.7002V24H31.7002V23.9ZM32.5002 21.4H32.7002C32.8002 21.4 33.0002 21.4 33.1002 21.3C33.2002 21.3 33.3002 21.2 33.3002 21.1C33.3002 21 33.4002 20.9 33.4002 20.7C33.4002 20.5 33.4002 20.4 33.3002 20.2C33.1002 20.1 33.0002 20 32.8002 20H32.5002V21.4Z" fill="white"/>
<path d="M35.8001 23.8998C35.5001 23.8998 35.3001 23.8998 35.1001 23.6998C34.9001 23.5998 34.8001 23.3998 34.7001 23.1998C34.6001 22.9998 34.6001 22.6998 34.6001 22.3998V20.7998C34.6001 20.4998 34.6001 20.2998 34.7001 19.9998C34.8001 19.7998 34.9001 19.5998 35.1001 19.4998C35.3001 19.3998 35.6001 19.2998 35.8001 19.2998C36.1001 19.2998 36.3001 19.2998 36.6001 19.4998C36.8001 19.5998 36.9001 19.7998 37.0001 19.9998C37.1001 20.1998 37.1001 20.4998 37.1001 20.7998V22.3998C37.1001 22.6998 37.1001 22.8998 37.0001 23.1998C36.9001 23.3998 36.8001 23.5998 36.6001 23.6998C36.3001 23.8998 36.0001 23.8998 35.8001 23.8998ZM35.8001 23.2998C36.0001 23.2998 36.2001 23.1998 36.2001 22.9998C36.2001 22.8998 36.2001 22.7998 36.2001 22.6998V20.6998C36.2001 20.5998 36.2001 20.4998 36.2001 20.3998C36.2001 20.2998 36.1001 20.1998 36.1001 20.1998C36.0001 19.9998 35.9001 19.9998 35.8001 19.9998C35.7001 19.9998 35.6001 19.9998 35.5001 20.0998C35.4001 20.1998 35.4001 20.1998 35.4001 20.2998C35.4001 20.3998 35.4001 20.4998 35.4001 20.5998V22.5998C35.4001 22.6998 35.4001 22.7998 35.4001 22.8998C35.4001 22.9998 35.5001 23.0998 35.5001 23.0998C35.6001 23.2998 35.7001 23.2998 35.8001 23.2998Z" fill="white"/>
<path d="M37.5 23.9V19.5H38.6C38.9 19.5 39.2 19.5 39.4 19.6C39.6 19.7 39.8 19.9 39.8 20.1C39.9 20.3 39.9 20.6 39.9 20.9V22.5C39.9 22.8 39.9 23 39.8 23.3C39.7 23.5 39.6 23.7 39.4 23.8C39.1 23.9 38.9 24 38.6 24H37.5V23.9ZM38.3 23.3H38.5C38.6 23.3 38.8 23.3 38.9 23.2C39 23.1 39 23 39 22.9C39 22.7 39 22.6 39 22.4V20.7C39 20.6 39 20.4 39 20.3C39 20.2 38.9 20.1 38.8 20.1C38.7 20 38.5 20 38.4 20H38.2L38.3 23.3Z" fill="white"/>
<path d="M41.5998 23.9004C41.2998 23.9004 41.0998 23.9004 40.7998 23.7004C40.5998 23.6004 40.4998 23.4004 40.3998 23.2004C40.2998 22.9004 40.2998 22.7004 40.2998 22.4004V19.4004H41.0998V22.5004C41.0998 22.6004 41.0998 22.8004 41.0998 22.9004C41.0998 23.0004 41.1998 23.1004 41.1998 23.2004C41.2998 23.3004 41.3998 23.3004 41.4998 23.3004C41.5998 23.3004 41.6998 23.3004 41.7998 23.2004C41.8998 23.1004 41.8998 23.0004 41.8998 22.9004C41.8998 22.8004 41.8998 22.6004 41.8998 22.5004V19.4004H42.6998V22.4004C42.6998 22.7004 42.6998 22.9004 42.5998 23.2004C42.4998 23.4004 42.3998 23.6004 42.1998 23.7004C42.0998 23.9004 41.8998 23.9004 41.5998 23.9004Z" fill="white"/>
<path d="M44.5002 23.8996C44.2002 23.8996 44.0002 23.7996 43.7002 23.6996C43.5002 23.5996 43.4002 23.3996 43.3002 23.1996C43.2002 22.9996 43.2002 22.6996 43.2002 22.3996V20.7996C43.2002 20.4996 43.2002 20.2996 43.3002 19.9996C43.4002 19.7996 43.5002 19.5996 43.7002 19.4996C44.2002 19.2996 44.7002 19.2996 45.2002 19.4996C45.4002 19.5996 45.5002 19.7996 45.6002 19.8996C45.7002 20.0996 45.7002 20.2996 45.7002 20.5996V20.9996H44.9002V20.5996C44.9002 20.4996 44.9002 20.3996 44.9002 20.2996C44.9002 20.1996 44.9002 20.0996 44.8002 20.0996C44.7002 19.9996 44.6002 19.9996 44.5002 19.9996C44.4002 19.9996 44.3002 19.9996 44.2002 20.0996C44.1002 20.1996 44.1002 20.2996 44.1002 20.3996C44.1002 20.4996 44.1002 20.5996 44.1002 20.7996V22.6996C44.1002 22.7996 44.1002 22.9996 44.1002 23.0996C44.1002 23.1996 44.2002 23.2996 44.2002 23.2996C44.3002 23.3996 44.4002 23.3996 44.5002 23.3996C44.6002 23.3996 44.7002 23.3996 44.8002 23.2996C44.9002 23.1996 44.9002 23.0996 44.9002 22.9996C44.9002 22.8996 44.9002 22.7996 44.9002 22.6996V22.2996H45.7002V22.5996C45.7002 22.7996 45.7002 23.0996 45.6002 23.2996C45.5002 23.4996 45.4002 23.6996 45.2002 23.7996C45.0002 23.8996 44.8002 23.9996 44.5002 23.8996Z" fill="white"/>
<path d="M46.5999 23.9V20.1H45.8999V19.5H48.0999V20.1H47.3999V23.9H46.5999Z" fill="white"/>
<path d="M48.2998 23.9V19.5H49.0998V23.9H48.2998Z" fill="white"/>
<path d="M50.9002 23.8998C50.6002 23.8998 50.4002 23.8998 50.2002 23.6998C50.0002 23.5998 49.9002 23.3998 49.8002 23.1998C49.7002 22.9998 49.7002 22.6998 49.7002 22.3998V20.7998C49.7002 20.4998 49.7002 20.2998 49.8002 19.9998C49.9002 19.7998 50.0002 19.5998 50.2002 19.4998C50.4002 19.3998 50.7002 19.2998 50.9002 19.2998C51.2002 19.2998 51.4002 19.2998 51.7002 19.4998C51.9002 19.5998 52.0002 19.7998 52.1002 19.9998C52.2002 20.1998 52.2002 20.4998 52.2002 20.7998V22.3998C52.2002 22.6998 52.2002 22.8998 52.1002 23.1998C52.0002 23.3998 51.9002 23.5998 51.7002 23.6998C51.4002 23.8998 51.1002 23.8998 50.9002 23.8998ZM50.9002 23.2998C51.1002 23.2998 51.3002 23.1998 51.3002 22.9998C51.3002 22.8998 51.3002 22.7998 51.3002 22.6998V20.6998C51.3002 20.5998 51.3002 20.4998 51.3002 20.3998C51.3002 20.2998 51.2002 20.1998 51.2002 20.1998C51.1002 19.9998 51.0002 19.9998 50.9002 19.9998C50.8002 19.9998 50.7002 19.9998 50.6002 20.0998C50.5002 20.1998 50.5002 20.1998 50.5002 20.2998C50.5002 20.3998 50.5002 20.4998 50.5002 20.5998V22.5998C50.5002 22.6998 50.5002 22.7998 50.5002 22.8998C50.5002 22.9998 50.6002 23.0998 50.6002 23.0998C50.7002 23.2998 50.8002 23.2998 50.9002 23.2998Z" fill="white"/>
<path d="M52.6001 23.9V19.5H53.1001L54.2001 22V19.5H54.9001V23.9H54.4001L53.3001 21.3V23.9H52.6001Z" fill="white"/>
<path d="M46.0001 31.1001C43.8001 29.5001 41.1001 28.8001 38.4001 29.3001H38.2001C36.7001 29.7001 34.3001 30.3001 31.5001 33.7001V33.8001V33.9001V34.0001L31.6001 34.1001C32.0001 34.7001 32.4001 35.4001 32.8001 36.1001C32.8001 36.2001 32.9001 36.2001 33.0001 36.2001C33.1001 36.2001 33.1001 36.2001 33.2001 36.1001C33.2001 36.1001 33.2001 36.1001 33.2001 36.0001C35.7001 32.6001 37.7001 32.1001 39.0001 31.8001H39.2001C41.0001 31.6001 42.9001 32.0001 44.4001 33.1001C45.9001 34.3001 46.6001 36.1001 46.6001 38.5001C46.6001 42.6001 44.6001 44.2001 42.8001 44.9001C41.1001 45.5001 39.2001 45.3001 37.6001 44.6001H37.5001C36.0001 44.0001 33.9001 42.7001 31.8001 38.6001C27.7001 30.5001 24.2001 29.7001 22.0001 29.2001H21.9001C19.3001 28.8001 16.6001 29.4001 14.4001 31.0001C12.9001 32.2001 11.2001 34.4001 11.2001 38.6001C11.1001 40.8001 11.7001 42.9001 13.1001 44.6001C15.3001 47.3001 18.9001 48.5001 22.4001 47.8001C23.7001 47.5001 25.0001 47.0001 26.0001 46.1001L27.3001 47.3001C27.4001 47.4001 27.5001 47.4001 27.6001 47.3001L27.7001 47.2001L28.6001 41.5001V41.4001C28.6001 41.3001 28.6001 41.3001 28.5001 41.2001C28.5001 41.2001 28.4001 41.1001 28.4001 41.2001H28.3001L22.8001 42.7001H22.7001C22.7001 42.7001 22.6001 42.7001 22.6001 42.8001C22.5001 42.9001 22.5001 43.0001 22.6001 43.1001L22.7001 43.2001L23.9001 44.3001C23.3001 44.7001 22.6001 45.0001 21.9001 45.2001C19.5001 45.8001 17.0001 45.0001 15.4001 43.1001C14.4001 41.9001 14.0001 40.3001 14.1001 38.8001C14.1001 36.3001 14.8001 34.5001 16.3001 33.4001C17.8001 32.3001 19.6001 31.9001 21.4001 32.1001H21.5001C23.4001 32.5001 25.9001 33.1001 29.5001 40.1001C31.3001 43.7001 33.6001 46.1001 36.5001 47.3001C37.9001 47.9001 39.4001 48.3001 40.9001 48.3001C41.9001 48.3001 43.0001 48.1001 44.0001 47.8001C45.7001 47.2001 49.6001 45.1001 49.6001 38.8001C49.6001 34.6001 47.8001 32.4001 46.3001 31.2001" fill="white"/>
</g>
</g>
</g>
<defs>
<clipPath id="clip0_3748_15917">
<rect width="60" height="60" fill="white"/>
</clipPath>
<clipPath id="clip1_3748_15917">
<rect width="60" height="60" fill="white"/>
</clipPath>
<clipPath id="clip2_3748_15917">
<rect width="60" height="60" fill="white"/>
</clipPath>
</defs>
</svg>
