<svg width="193" height="55" viewBox="0 0 193 55" fill="none" xmlns="http://www.w3.org/2000/svg">
<path d="M74.7288 39.8491V41.7806C75.7316 40.881 76.4828 40.3045 76.9823 40.0438C77.4782 39.7867 77.9407 39.6582 78.3626 39.6582C78.8214 39.6582 79.247 39.8124 79.6429 40.1172C80.0388 40.4257 80.235 40.657 80.235 40.8149C80.235 40.9287 80.198 41.0279 80.1202 41.1013C80.0462 41.1784 79.95 41.2152 79.8316 41.2152C79.7687 41.2152 79.7169 41.2041 79.6762 41.1821C79.6318 41.1601 79.5541 41.094 79.4357 40.9765C79.2211 40.7635 79.036 40.6166 78.8769 40.5395C78.7178 40.4587 78.5624 40.422 78.4107 40.422C78.0739 40.422 77.6669 40.5579 77.197 40.8222C76.7196 41.0903 75.8981 41.7403 74.7325 42.7794V46.9693H78.1442C78.333 46.9693 78.4662 47.0023 78.5476 47.0757C78.629 47.1455 78.666 47.2373 78.666 47.3512C78.666 47.465 78.6253 47.5531 78.5476 47.6266C78.4699 47.7 78.333 47.7367 78.1442 47.7367H72.0978C71.9128 47.7367 71.7833 47.7 71.7019 47.6302C71.6242 47.5605 71.5835 47.4723 71.5835 47.3622C71.5835 47.2593 71.6205 47.1712 71.6982 47.1015C71.7759 47.0317 71.9091 46.995 72.0978 46.995H73.9591V40.6203H72.5382C72.3532 40.6203 72.22 40.5836 72.1423 40.5101C72.0645 40.4367 72.0238 40.3412 72.0238 40.2274C72.0238 40.1172 72.0608 40.0254 72.1386 39.9556C72.2163 39.8822 72.3458 39.8455 72.5382 39.8455H74.7325L74.7288 39.8491Z" fill="white"/>
<path d="M91.0993 43.9767H83.2434C83.3803 44.9645 83.7947 45.7614 84.4978 46.3672C85.1972 46.9731 86.0631 47.2742 87.0992 47.2742C87.6727 47.2742 88.2759 47.1824 88.9049 46.9915C89.5377 46.8042 90.0484 46.5545 90.4443 46.2461C90.5627 46.1543 90.6626 46.1102 90.7477 46.1102C90.8476 46.1102 90.9327 46.1469 91.0068 46.224C91.0808 46.3011 91.1178 46.3893 91.1178 46.4921C91.1178 46.5949 91.0697 46.6941 90.9697 46.7932C90.6737 47.098 90.1557 47.3807 89.4082 47.6451C88.657 47.9095 87.8873 48.0417 87.0992 48.0417C85.7781 48.0417 84.6754 47.6121 83.791 46.7528C82.9067 45.8935 82.4663 44.8544 82.4663 43.6352C82.4663 42.5263 82.8807 41.5715 83.7096 40.7784C84.5385 39.9815 85.5635 39.585 86.7883 39.585C88.0132 39.585 89.0863 39.9926 89.9003 40.8078C90.7144 41.6229 91.1141 42.6842 91.0993 43.9804V43.9767ZM90.3222 43.2019C90.1705 42.3574 89.7671 41.6707 89.1159 41.1456C88.4646 40.6168 87.6875 40.3524 86.7883 40.3524C85.8891 40.3524 85.1158 40.6131 84.4682 41.1346C83.8206 41.656 83.4173 42.3463 83.2582 43.2019H90.3222Z" fill="white"/>
<path d="M100.798 41.2521V39.8493H102.604C102.789 39.8493 102.918 39.8861 103 39.9595C103.077 40.033 103.118 40.1284 103.118 40.2423C103.118 40.3524 103.077 40.4442 103 40.514C102.922 40.5874 102.789 40.6241 102.604 40.6241H101.568V48.2657C101.568 48.7761 101.457 49.2314 101.238 49.6317C101.09 49.8998 100.846 50.1752 100.502 50.4616C100.161 50.748 99.8469 50.95 99.5657 51.0711C99.2844 51.1923 98.907 51.2547 98.437 51.2547H96.2538C96.0688 51.2547 95.9393 51.2217 95.8579 51.1483C95.7802 51.0785 95.7395 50.9867 95.7395 50.8728C95.7395 50.759 95.7802 50.6635 95.8579 50.5901C95.9356 50.5167 96.0688 50.4799 96.2538 50.4799L98.4629 50.4873C98.9144 50.4873 99.3251 50.3735 99.6878 50.1421C100.05 49.9108 100.354 49.5729 100.591 49.1323C100.724 48.8753 100.794 48.5521 100.794 48.1592V45.8642C99.969 46.9878 98.9033 47.5496 97.6008 47.5496C96.5425 47.5496 95.6285 47.1604 94.8625 46.3783C94.0928 45.5998 93.7117 44.6597 93.7117 43.5618C93.7117 42.4638 94.0965 41.5238 94.8625 40.749C95.6285 39.9705 96.5425 39.585 97.6008 39.585C98.9033 39.585 99.969 40.1431 100.794 41.2594L100.798 41.2521ZM100.798 43.5581C100.798 42.6585 100.487 41.8984 99.8654 41.2814C99.2437 40.6645 98.5036 40.3524 97.6415 40.3524C96.7793 40.3524 96.0392 40.6645 95.4212 41.2851C94.8033 41.9057 94.4961 42.6658 94.4961 43.5581C94.4961 44.4504 94.8033 45.2142 95.4212 45.8385C96.0392 46.459 96.7793 46.7712 97.6415 46.7712C98.5036 46.7712 99.2437 46.459 99.8654 45.8385C100.487 45.2142 100.798 44.4541 100.798 43.5581Z" fill="white"/>
<path d="M109.893 39.8493V46.9694H112.92C113.109 46.9694 113.246 47.0024 113.324 47.0758C113.405 47.1456 113.442 47.2374 113.442 47.3513C113.442 47.4651 113.401 47.5532 113.324 47.6267C113.246 47.7001 113.109 47.7368 112.92 47.7368H106.093C105.908 47.7368 105.779 47.7001 105.697 47.6267C105.62 47.5532 105.579 47.4614 105.579 47.3513C105.579 47.2374 105.62 47.1456 105.697 47.0758C105.779 47.0061 105.908 46.9694 106.093 46.9694H109.12V40.6204H106.874C106.689 40.6204 106.556 40.5837 106.474 40.5102C106.393 40.4368 106.349 40.345 106.349 40.2385C106.349 40.121 106.389 40.0292 106.467 39.9557C106.548 39.8823 106.682 39.8456 106.87 39.8456H109.89L109.893 39.8493ZM109.868 35.9238V37.8994H108.732V35.9238H109.868Z" fill="white"/>
<path d="M123.307 40.3527C123.307 40.1764 123.344 40.0479 123.418 39.9708C123.492 39.8937 123.585 39.8533 123.692 39.8533C123.807 39.8533 123.903 39.8937 123.977 39.9708C124.051 40.0516 124.088 40.1838 124.088 40.3711V41.682C124.088 41.8656 124.051 41.9941 123.977 42.0749C123.903 42.152 123.81 42.1924 123.692 42.1924C123.588 42.1924 123.5 42.1593 123.429 42.0932C123.359 42.0271 123.318 41.917 123.307 41.7664C123.27 41.4029 123.081 41.1018 122.737 40.8631C122.234 40.5216 121.572 40.3527 120.747 40.3527C119.921 40.3527 119.215 40.5253 118.737 40.8705C118.375 41.1312 118.197 41.4249 118.197 41.7444C118.197 42.1079 118.412 42.4127 118.841 42.6551C119.133 42.824 119.692 42.9562 120.51 43.048C121.579 43.1618 122.323 43.294 122.741 43.4409C123.333 43.6539 123.777 43.9476 124.066 44.3259C124.358 44.7004 124.502 45.108 124.502 45.545C124.502 46.1949 124.188 46.7714 123.555 47.2782C122.926 47.7849 122.001 48.0383 120.784 48.0383C119.566 48.0383 118.571 47.7298 117.79 47.1166C117.79 47.3222 117.779 47.4581 117.753 47.5169C117.727 47.5793 117.683 47.6307 117.62 47.6711C117.557 47.7115 117.483 47.7335 117.405 47.7335C117.294 47.7335 117.202 47.6931 117.131 47.616C117.057 47.5352 117.02 47.4067 117.02 47.2231V45.6478C117.02 45.4642 117.057 45.3357 117.128 45.2549C117.198 45.1778 117.29 45.1374 117.409 45.1374C117.52 45.1374 117.612 45.1741 117.69 45.2512C117.768 45.3283 117.805 45.4311 117.805 45.556C117.805 45.8351 117.875 46.0701 118.016 46.2574C118.23 46.5474 118.571 46.7898 119.037 46.9808C119.503 47.1717 120.08 47.2672 120.758 47.2672C121.76 47.2672 122.508 47.0836 122.996 46.7127C123.485 46.3418 123.729 45.9526 123.729 45.5376C123.729 45.0639 123.481 44.6857 122.985 44.3993C122.482 44.1129 121.753 43.9219 120.795 43.8265C119.84 43.731 119.152 43.6025 118.737 43.4446C118.323 43.2867 117.997 43.048 117.764 42.7322C117.531 42.4164 117.416 42.0786 117.416 41.7114C117.416 41.0541 117.742 40.5363 118.389 40.1507C119.037 39.7652 119.81 39.5742 120.713 39.5742C121.779 39.5742 122.641 39.8313 123.311 40.349L123.307 40.3527Z" fill="white"/>
<path d="M130.456 39.8488H134.641C134.826 39.8488 134.96 39.8855 135.037 39.959C135.119 40.0324 135.156 40.1279 135.156 40.2417C135.156 40.3519 135.115 40.4437 135.037 40.5134C134.96 40.5869 134.826 40.6236 134.641 40.6236H130.456V45.7131C130.456 46.1574 130.634 46.5246 130.993 46.822C131.352 47.1195 131.873 47.27 132.565 47.27C133.087 47.27 133.65 47.1929 134.253 47.0387C134.856 46.8845 135.33 46.7082 135.666 46.5136C135.788 46.4328 135.888 46.3961 135.97 46.3961C136.07 46.3961 136.155 46.4328 136.229 46.5099C136.303 46.587 136.34 46.6751 136.34 46.778C136.34 46.8698 136.299 46.9542 136.221 47.0313C136.025 47.2333 135.548 47.45 134.793 47.6813C134.038 47.9163 133.313 48.0338 132.625 48.0338C131.725 48.0338 131.008 47.8245 130.478 47.4059C129.946 46.9873 129.679 46.4218 129.679 45.7131V40.6236H128.258C128.073 40.6236 127.944 40.5869 127.866 40.5134C127.785 40.44 127.748 40.3445 127.748 40.2307C127.748 40.1205 127.788 40.0287 127.866 39.959C127.944 39.8855 128.077 39.8488 128.258 39.8488H129.679V37.5905C129.679 37.4069 129.716 37.2784 129.786 37.1976C129.86 37.1168 129.953 37.0801 130.064 37.0801C130.179 37.0801 130.275 37.1205 130.349 37.1976C130.423 37.2784 130.46 37.4069 130.46 37.5905V39.8488H130.456Z" fill="white"/>
<path d="M142.394 39.8491V41.7806C143.396 40.881 144.148 40.3045 144.647 40.0438C145.147 39.7867 145.606 39.6582 146.027 39.6582C146.486 39.6582 146.912 39.8124 147.308 40.1172C147.704 40.4257 147.9 40.657 147.9 40.8149C147.9 40.9287 147.859 41.0279 147.785 41.1013C147.707 41.1784 147.611 41.2152 147.496 41.2152C147.434 41.2152 147.385 41.2041 147.341 41.1821C147.297 41.1601 147.219 41.094 147.101 40.9765C146.886 40.7635 146.701 40.6166 146.542 40.5395C146.383 40.4587 146.227 40.422 146.072 40.422C145.735 40.422 145.332 40.5579 144.854 40.8222C144.381 41.0903 143.559 41.7403 142.39 42.7794V46.9693H145.802C145.99 46.9693 146.127 47.0023 146.205 47.0757C146.283 47.1455 146.323 47.2373 146.323 47.3512C146.323 47.465 146.283 47.5531 146.205 47.6266C146.124 47.7 145.99 47.7367 145.802 47.7367H139.755C139.57 47.7367 139.441 47.7 139.359 47.6302C139.282 47.5605 139.241 47.4723 139.241 47.3622C139.241 47.2593 139.278 47.1712 139.356 47.1015C139.43 47.0317 139.567 46.995 139.755 46.995H141.62V40.6203H140.196C140.014 40.6203 139.881 40.5836 139.8 40.5101C139.722 40.4367 139.681 40.3412 139.681 40.2274C139.681 40.1172 139.718 40.0254 139.796 39.9556C139.874 39.8822 140.007 39.8455 140.196 39.8455H142.39L142.394 39.8491Z" fill="white"/>
<path d="M154.642 47.7364L151.064 40.6237H150.834C150.649 40.6237 150.516 40.587 150.438 40.5135C150.361 40.4401 150.32 40.3483 150.32 40.2418C150.32 40.161 150.338 40.0912 150.379 40.0288C150.42 39.9664 150.472 39.9186 150.534 39.8929C150.597 39.8636 150.697 39.8525 150.834 39.8525H152.943C153.128 39.8525 153.258 39.8893 153.336 39.9627C153.417 40.0361 153.454 40.1316 153.454 40.2454C153.454 40.3556 153.417 40.4474 153.336 40.5172C153.258 40.5906 153.125 40.6273 152.943 40.6273H151.907L155.053 46.8992L158.153 40.6273H157.117C156.932 40.6273 156.803 40.5906 156.721 40.5172C156.644 40.4437 156.603 40.3483 156.603 40.2344C156.603 40.1243 156.644 40.0325 156.721 39.9627C156.799 39.8893 156.932 39.8525 157.117 39.8525H159.219C159.408 39.8525 159.545 39.8893 159.623 39.9627C159.7 40.0361 159.741 40.1316 159.741 40.2454C159.741 40.3226 159.715 40.396 159.667 40.4621C159.619 40.5282 159.563 40.5723 159.5 40.5943C159.438 40.6163 159.267 40.6273 158.986 40.6273L154.105 50.4905H155.308C155.493 50.4905 155.622 50.5235 155.7 50.5933C155.782 50.6631 155.819 50.7549 155.819 50.8724C155.819 50.9825 155.778 51.0707 155.7 51.1441C155.622 51.2175 155.489 51.2543 155.308 51.2543H150.867C150.682 51.2543 150.553 51.2212 150.472 51.1478C150.394 51.078 150.353 50.9862 150.353 50.8724C150.353 50.7585 150.394 50.6631 150.472 50.5933C150.553 50.5235 150.682 50.4905 150.867 50.4905H153.28L154.638 47.7401L154.642 47.7364Z" fill="white"/>
<path d="M165.71 45.541H166.039C166.383 45.541 166.675 45.6622 166.92 45.9009C167.164 46.1396 167.286 46.4297 167.286 46.7712C167.286 47.1127 167.16 47.4174 166.916 47.6561C166.668 47.8948 166.376 48.0123 166.039 48.0123H165.71C165.369 48.0123 165.073 47.8911 164.829 47.6524C164.585 47.4138 164.463 47.1237 164.463 46.7822C164.463 46.4407 164.588 46.1359 164.833 45.8972C165.081 45.6622 165.373 45.541 165.71 45.541Z" fill="white"/>
<path d="M181.318 43.9767H173.462C173.595 44.9645 174.013 45.7614 174.713 46.3672C175.412 46.9731 176.282 47.2742 177.314 47.2742C177.891 47.2742 178.491 47.1824 179.124 46.9915C179.753 46.8042 180.267 46.5545 180.663 46.2461C180.778 46.1543 180.881 46.1102 180.966 46.1102C181.066 46.1102 181.151 46.1469 181.222 46.224C181.296 46.3011 181.333 46.3893 181.333 46.4921C181.333 46.5949 181.285 46.6941 181.188 46.7932C180.896 47.098 180.371 47.3807 179.623 47.6451C178.872 47.9095 178.102 48.0417 177.314 48.0417C175.993 48.0417 174.89 47.6121 174.006 46.7528C173.122 45.8935 172.677 44.8544 172.677 43.6352C172.677 42.5263 173.092 41.5715 173.921 40.7784C174.75 39.9815 175.775 39.585 177 39.585C178.224 39.585 179.297 39.9926 180.112 40.8078C180.926 41.6229 181.325 42.6842 181.314 43.9804L181.318 43.9767ZM180.537 43.2019C180.385 42.3574 179.982 41.6707 179.331 41.1456C178.679 40.6168 177.902 40.3524 177.003 40.3524C176.104 40.3524 175.331 40.6131 174.683 41.1346C174.036 41.656 173.632 42.3463 173.469 43.2019H180.537Z" fill="white"/>
<path d="M191.065 47.7364V46.6165C190.01 47.5638 188.874 48.0375 187.649 48.0375C186.898 48.0375 186.325 47.8356 185.936 47.428C185.429 46.8919 185.174 46.2713 185.174 45.5626V40.6273H184.138C183.953 40.6273 183.823 40.5906 183.745 40.5172C183.668 40.4437 183.627 40.3483 183.627 40.2344C183.627 40.1243 183.668 40.0325 183.745 39.9627C183.823 39.8893 183.956 39.8525 184.138 39.8525H185.943V45.5626C185.943 46.062 186.103 46.4696 186.421 46.7927C186.739 47.1159 187.135 47.2738 187.612 47.2738C188.867 47.2738 190.014 46.7046 191.061 45.5626V40.6273H189.64C189.455 40.6273 189.326 40.5906 189.244 40.5172C189.163 40.4437 189.126 40.3483 189.126 40.2344C189.126 40.1243 189.166 40.0325 189.244 39.9627C189.322 39.8893 189.455 39.8525 189.64 39.8525H191.834V46.9726H192.486C192.671 46.9726 192.8 47.0057 192.882 47.0791C192.959 47.1489 193 47.2407 193 47.3545C193 47.4684 192.959 47.5565 192.882 47.6299C192.804 47.7034 192.671 47.7401 192.486 47.7401H191.065V47.7364Z" fill="white"/>
<path d="M77.8112 15.4077V19.2193H85.3489V24.452H77.8112V33.1731H71.5835V9.53613H86.9696V15.4077H77.8112Z" fill="#3FD0C9"/>
<path d="M101.912 30.3975H93.0456L91.8393 33.1442H84.9492L95.9763 9.29785H98.9662L110.008 33.1442H103.103L101.912 30.3975ZM99.9098 25.8258L97.4787 20.2442L95.0327 25.8258H99.9061H99.9098Z" fill="#3FD0C9"/>
<path d="M125.058 33.1443L118.711 22.9177V33.1443H112.41L112.38 9.5918H121.391C126.516 9.5918 130.179 13.0252 130.179 17.248C130.179 20.1857 128.395 22.6386 126.071 23.6888L132.432 33.1407H125.058V33.1443ZM118.682 19.936L121.261 19.9507C122.601 19.9653 123.822 19.029 123.822 17.5822C123.822 16.1354 122.586 15.2174 121.261 15.2174H118.682V19.936Z" fill="#3FD0C9"/>
<path d="M160.141 9.375V33.1479H153.839V23.8098L147.448 32.7513H147.404L140.999 23.8098V33.1479H134.697V9.375H137.228L147.415 23.226L157.606 9.375H160.137H160.141Z" fill="#3FD0C9"/>
<path d="M61.4225 33.9264C61.4225 44.8287 52.2493 53.9794 41.2888 53.9794C36.2304 53.906 31.5605 51.7689 27.738 48.0711L31.2941 43.2938C34.0287 46.0074 37.5847 47.8067 41.4109 47.8067C48.4786 47.8067 55.2281 41.6597 55.2281 33.9007C55.2281 26.1416 48.3787 20.068 41.385 20.068C37.3923 20.068 33.9584 22.0362 31.2682 24.6801L27.738 19.7816C31.1017 16.4914 35.383 13.9688 41.1926 13.9688C52.2493 13.9688 61.4225 22.9983 61.4225 33.9264Z" fill="white" stroke="white" stroke-width="2" stroke-miterlimit="10"/>
<path d="M61.4225 33.9264C61.4225 44.8287 52.2493 53.9794 41.2888 53.9794C36.2304 53.906 31.5605 51.7689 27.738 48.0711L31.2941 43.2938C34.0287 46.0074 37.5847 47.8067 41.4109 47.8067C48.4786 47.8067 55.2281 41.6597 55.2281 33.9007C55.2281 26.1416 48.3787 20.068 41.385 20.068C37.3923 20.068 33.9584 22.0362 31.2682 24.6801L27.738 19.7816C31.1017 16.4914 35.383 13.9688 41.1926 13.9688C52.2493 13.9688 61.4225 22.9983 61.4225 33.9264Z" fill="white"/>
<path d="M41.2887 55.0001H41.2739C36.0638 54.9267 31.1312 52.7822 27.0164 48.8017L26.3726 48.1774L31.1756 41.722L32.023 42.5629C34.7613 45.2802 38.0953 46.7784 41.4071 46.7784C48.2195 46.7784 54.1919 40.7599 54.1919 33.8968C54.1919 27.8379 48.93 21.0887 41.3812 21.0887C37.2479 21.0887 33.9953 23.4352 31.9934 25.4034L31.1312 26.2516L26.38 19.6603L27.009 19.0471C31.2126 14.938 35.8492 12.9404 41.1888 12.9404C46.8134 12.9404 52.1382 15.1363 56.179 19.1205C60.2235 23.1083 62.4511 28.3667 62.4511 33.9225C62.4511 45.3463 52.7562 55.0001 41.285 55.0001H41.2887ZM29.1108 47.9424C32.7002 51.1555 36.8927 52.885 41.2924 52.9511C51.6424 52.9474 60.3863 44.2337 60.3863 33.9225C60.3863 28.9139 58.377 24.1732 54.7248 20.5746C51.0725 16.976 46.2657 14.9894 41.1925 14.9894C36.6855 14.9894 32.7224 16.5978 29.0997 19.9063L31.4236 23.1304C34.4727 20.4498 37.8955 19.0434 41.3849 19.0434C45.0742 19.0434 48.8153 20.604 51.6461 23.3213C54.6212 26.1782 56.2567 29.9347 56.2567 33.9005C56.2567 41.8542 49.3185 48.8311 41.4071 48.8311C37.8918 48.8311 34.3913 47.4173 31.431 44.8285L29.1108 47.9461V47.9424Z" fill="white"/>
<path d="M31.1164 20.608C33.6882 18.8124 36.8076 17.5859 40.7115 17.5859C50.3843 17.5859 58.403 24.9998 58.403 33.9706C58.403 42.9415 50.3843 50.4324 40.7966 50.4324C36.371 50.3737 32.2895 48.6185 28.9443 45.5817" stroke="#3FD0C9" stroke-miterlimit="10" stroke-linecap="square"/>
<path d="M32.0081 20.6078C32.0081 21.0338 31.6566 21.3826 31.2273 21.3826C30.7981 21.3826 30.4465 21.0374 30.4465 20.6078C30.4465 20.1782 30.7944 19.833 31.2273 19.833C31.6603 19.833 32.0081 20.1782 32.0081 20.6078Z" fill="white"/>
<path d="M1.03223 21.0775C1.03223 10.1752 10.2054 1.02441 21.1659 1.02441C26.2243 1.09786 30.8942 3.23499 34.7167 6.93275L31.1569 11.7101C28.4223 8.99644 24.8663 7.19713 21.0401 7.19713C13.9761 7.19713 7.22294 13.3441 7.22294 21.1032C7.22294 28.8622 14.0723 34.9358 21.066 34.9358C25.0587 34.9358 28.4963 32.9676 31.1828 30.3237L34.7167 35.2222C31.353 38.5124 27.068 41.0351 21.2621 41.0351C10.2054 41.0351 1.03223 32.0055 1.03223 21.0775Z" fill="white"/>
<path d="M21.2623 42.0597C15.6377 42.0597 10.3129 39.8638 6.27212 35.8796C2.22762 31.8918 0 26.6371 0 21.0776C0 9.65383 9.69126 0 21.1661 0C26.391 0.0734411 31.3236 2.21792 35.4384 6.19842L36.0823 6.82267L31.2792 13.2781L30.4318 12.4372C27.6935 9.71992 24.3595 8.22172 21.044 8.22172C14.2316 8.22172 8.25922 14.2402 8.25922 21.1033C8.25922 27.1622 13.5174 33.9114 21.0699 33.9114C25.2032 33.9114 28.4558 31.565 30.4577 29.5967L31.3199 28.7485L36.0712 35.3398L35.4421 35.9531C31.2422 40.0621 26.6019 42.0597 21.2623 42.0597ZM21.1513 2.04901C10.8125 2.04901 2.0648 10.7628 2.0648 21.0776C2.0648 26.0863 4.0741 30.8269 7.72636 34.4255C11.3786 38.0241 16.1854 40.0107 21.2623 40.0107C25.7694 40.0107 29.7324 38.4023 33.3551 35.0938L31.0313 31.8697C27.9822 34.5503 24.5593 35.9567 21.0699 35.9567C17.3806 35.9567 13.6395 34.3961 10.8088 31.6788C7.83367 28.8219 6.19441 25.0654 6.19441 21.0996C6.19441 13.1459 13.1326 6.16905 21.044 6.16905C24.5556 6.16905 28.0599 7.58279 31.0202 10.1716L33.344 7.05401C29.7546 3.83729 25.5547 2.11143 21.1513 2.04533V2.04901Z" fill="white"/>
<path d="M31.8972 34.5287C31.8972 34.9547 31.5494 35.3035 31.1165 35.3035C30.6835 35.3035 30.3357 34.9583 30.3357 34.5287C30.3357 34.0991 30.6835 33.7539 31.1165 33.7539C31.5494 33.7539 31.8972 34.0991 31.8972 34.5287Z" fill="white"/>
<path d="M31.1165 20.6074V34.5906" stroke="white" stroke-width="0.84" stroke-miterlimit="10" stroke-linecap="round"/>
<path d="M31.1165 26.1631V28.9392" stroke="white" stroke-width="0.84" stroke-miterlimit="10" stroke-linecap="square"/>
<path d="M30.4753 34.2365C28.0197 35.8931 25.0687 37 21.4182 37C11.8949 37 4 29.5506 4 20.5369C4 11.5231 11.8948 4 21.3308 4C25.6844 4.05903 29.7065 5.82267 33 8.87399" stroke="#3FD0C9" stroke-miterlimit="10" stroke-linecap="square"/>
<line x1="31.5" y1="20" x2="31.5" y2="34" stroke="#3FD0C9"/>
<circle cx="31.5" cy="20.5" r="1.5" fill="#3FD0C9"/>
<circle cx="31.5" cy="33.5" r="1.5" fill="#3FD0C9"/>
</svg>
