<svg width="20" height="20" viewBox="0 0 20 20" fill="none" xmlns="http://www.w3.org/2000/svg">
<path d="M18.0156 5H3.125C2.77969 5 2.5 4.72031 2.5 4.375C2.5 4.02969 2.77969 3.75 3.125 3.75H18.125C18.4703 3.75 18.75 3.47031 18.75 3.125C18.75 2.08945 17.9105 1.25 16.875 1.25H2.5C1.11914 1.25 0 2.36914 0 3.75V16.25C0 17.6309 1.11914 18.75 2.5 18.75H18.0156C19.1102 18.75 20 17.909 20 16.875V6.875C20 5.84102 19.1102 5 18.0156 5ZM16.25 13.125C15.5598 13.125 15 12.5652 15 11.875C15 11.1848 15.5598 10.625 16.25 10.625C16.9402 10.625 17.5 11.1848 17.5 11.875C17.5 12.5652 16.9402 13.125 16.25 13.125Z" fill="#02353C"/>
</svg>
