<svg width="20" height="20" viewBox="0 0 20 20" fill="none" xmlns="http://www.w3.org/2000/svg">
<path d="M12 11.667H8C7.44781 11.667 7 12.1148 7 12.667V16.667C7 17.2192 7.44781 17.667 8 17.667H12C12.5522 17.667 13 17.2192 13 16.667V12.667C13 12.1148 12.5522 11.667 12 11.667ZM6 2.66699C6 2.1148 5.55219 1.66699 5 1.66699H1C0.447812 1.66699 0 2.1148 0 2.66699V6.66699C0 7.21918 0.447812 7.66699 1 7.66699H3.99125L6.2775 11.6682C6.62438 11.0726 7.2625 10.667 8 10.667H8.00875L6 7.15168V5.66699H13V3.66699H6V2.66699ZM19 1.66699H15C14.4478 1.66699 14 2.1148 14 2.66699V6.66699C14 7.21918 14.4478 7.66699 15 7.66699H19C19.5522 7.66699 20 7.21918 20 6.66699V2.66699C20 2.1148 19.5522 1.66699 19 1.66699Z" fill="blue"/>
</svg>
