<svg width="20" height="20" viewBox="0 0 20 20" fill="none" xmlns="http://www.w3.org/2000/svg">
<g clip-path="url(#clip0_5423_10209)">
<path d="M16.9492 3.82422L13.6719 0.546875C13.3203 0.195313 12.8438 -0.00390625 12.3477 -0.00390625H4.375C3.33984 9.31323e-10 2.5 0.839844 2.5 1.875V18.125C2.5 19.1602 3.33984 20 4.375 20H15.625C16.6602 20 17.5 19.1602 17.5 18.125V5.15234C17.5 4.65625 17.3008 4.17578 16.9492 3.82422ZM15.4727 5H12.5V2.02734L15.4727 5ZM4.375 18.125V1.875H10.625V5.9375C10.625 6.45703 11.043 6.875 11.5625 6.875H15.625V18.125H4.375Z" fill="#02353C"/>
</g>
<defs>
<clipPath id="clip0_5423_10209">
<rect width="20" height="20" fill="white"/>
</clipPath>
</defs>
</svg>
