<svg width="60" height="60" viewBox="0 0 60 60" fill="none" xmlns="http://www.w3.org/2000/svg">
<g clip-path="url(#clip0_3750_17506)">
<g clip-path="url(#clip1_3750_17506)">
<path d="M61 0H0V60H61V0Z" fill="#00568B"/>
<path d="M5.3001 7.5002C5.0001 7.6002 4.6001 7.7002 4.3001 7.8002C3.9001 8.0002 3.7001 8.1002 3.6001 8.1002V6.5002C4.0001 6.3002 4.4001 6.2002 4.8001 5.9002C5.2001 5.7002 5.5001 5.5002 5.8001 5.2002H7.5001V16.6002H5.3001V7.5002Z" fill="white"/>
<path d="M9.49982 15.8002C8.89982 15.0002 8.59982 14.0002 8.69982 13.1002V9.00022C8.59982 8.00022 8.89982 7.00021 9.39982 6.10021C9.99982 5.40021 10.8998 5.00021 11.7998 5.10021C12.5998 5.00021 13.3998 5.30022 13.9998 5.80022C14.4998 6.40022 14.7998 7.20022 14.6998 8.00022V8.20021H12.5998C12.5998 7.80021 12.5998 7.40021 12.3998 7.10021C12.2998 6.90021 11.9998 6.70022 11.6998 6.80022C11.4998 6.80022 11.2998 6.90021 11.0998 7.00021C10.8998 7.20021 10.7998 7.40021 10.7998 7.70021C10.6998 8.20021 10.6998 8.60022 10.6998 9.10022V10.3002C10.7998 10.1002 11.0998 9.90022 11.2998 9.80022C11.5998 9.70022 11.8998 9.60022 12.2998 9.60022C12.9998 9.50022 13.7998 9.90022 14.1998 10.5002C14.5998 11.2002 14.7998 12.1002 14.7998 12.9002C14.8998 13.9002 14.5998 14.9002 14.0998 15.8002C13.4998 16.5002 12.5998 16.9002 11.6998 16.8002C10.8998 16.9002 9.99982 16.5002 9.49982 15.8002ZM12.4998 14.7002C12.5998 14.2002 12.6998 13.7002 12.6998 13.2002C12.6998 12.8002 12.6998 12.5002 12.6998 12.1002C12.6998 11.9002 12.5998 11.6002 12.4998 11.5002C12.2998 11.3002 12.0998 11.2002 11.7998 11.2002C11.5998 11.2002 11.3998 11.3002 11.2998 11.4002C11.1998 11.5002 10.9998 11.6002 10.8998 11.8002V13.6002C10.8998 14.7002 11.1998 15.2002 11.7998 15.2002C12.0998 15.2002 12.3998 15.0002 12.4998 14.7002Z" fill="white"/>
<path d="M19.5 9.6002V5.2002H20.8C21 5.2002 21.2 5.2002 21.4 5.3002C21.6 5.4002 21.7 5.5002 21.8 5.7002C21.9 5.9002 21.9 6.1002 21.9 6.4002C21.9 6.6002 21.9 6.9002 21.8 7.1002C21.7 7.3002 21.6 7.4002 21.4 7.5002C21.2 7.6002 21 7.6002 20.8 7.6002H20.4V9.5002L19.5 9.6002ZM20.3 7.1002H20.6C20.7 7.1002 20.8 7.1002 20.9 7.0002C21 7.0002 21 6.9002 21.1 6.8002C21.1 6.7002 21.2 6.6002 21.1 6.4002C21.1 6.3002 21.1 6.1002 21.1 6.0002C21.1 5.9002 21 5.8002 21 5.8002C20.9 5.7002 20.8 5.7002 20.6 5.7002H20.3V7.1002Z" fill="white"/>
<path d="M22.2998 9.6002V5.2002H24.1998V5.8002H23.0998V7.0002H23.8998V7.6002H23.0998V9.0002H24.1998V9.6002H22.2998Z" fill="white"/>
<path d="M24.2998 9.6002L25.1998 5.2002H26.0998L26.9998 9.6002H26.2998L26.0998 8.6002H25.2998L25.0998 9.6002H24.2998ZM25.2998 8.1002H25.8998L25.5998 6.3002L25.2998 8.1002Z" fill="white"/>
<path d="M28.4001 9.69961C28.1001 9.69961 27.9001 9.59961 27.6001 9.49961C27.4001 9.39961 27.3001 9.19961 27.2001 8.99961C27.1001 8.79961 27.1001 8.49961 27.1001 8.19961V6.59961C27.1001 6.29961 27.1001 6.09961 27.2001 5.79961C27.3001 5.59961 27.4001 5.39961 27.6001 5.29961C27.8001 5.19961 28.1001 5.09961 28.4001 5.09961C28.6001 5.09961 28.9001 5.09961 29.1001 5.29961C29.3001 5.39961 29.4001 5.59961 29.5001 5.69961C29.6001 5.89961 29.6001 6.09961 29.6001 6.39961V6.79961H28.8001V6.39961C28.8001 6.29961 28.8001 6.19961 28.8001 6.09961C28.8001 5.99961 28.8001 5.89961 28.7001 5.89961C28.6001 5.79961 28.5001 5.79961 28.4001 5.79961C28.3001 5.79961 28.2001 5.79961 28.1001 5.89961C28.0001 5.99961 28.0001 6.09961 28.0001 6.19961C28.0001 6.29961 28.0001 6.39961 28.0001 6.59961V8.49961C28.0001 8.59961 28.0001 8.79961 28.0001 8.89961C28.0001 8.99961 28.1001 9.09961 28.1001 9.09961C28.2001 9.19961 28.3001 9.19961 28.4001 9.19961C28.5001 9.19961 28.6001 9.19961 28.7001 9.09961C28.8001 8.99961 28.8001 8.89961 28.8001 8.79961C28.8001 8.69961 28.8001 8.59961 28.8001 8.49961V7.99961H29.6001V8.29961C29.6001 8.49961 29.6001 8.79961 29.5001 8.99961C29.4001 9.19961 29.3001 9.39961 29.1001 9.49961C28.9001 9.59961 28.7001 9.69961 28.4001 9.69961Z" fill="white"/>
<path d="M30.1001 9.6002V5.2002H32.0001V5.8002H30.9001V7.0002H31.7001V7.6002H30.9001V9.0002H32.0001V9.6002H30.1001Z" fill="white"/>
<path d="M32.3002 10.3004L32.2002 10.0004C32.3002 10.0004 32.4002 9.90039 32.5002 9.80039C32.6002 9.70039 32.6002 9.60039 32.6002 9.50039H32.2002V8.90039H32.9002V9.60039C32.9002 9.80039 32.9002 10.0004 32.8002 10.1004C32.7002 10.2004 32.5002 10.3004 32.3002 10.3004Z" fill="white"/>
<path d="M34.2998 9.7002V9.1002H34.5998C34.6998 9.1002 34.6998 9.1002 34.7998 9.0002C34.7998 9.0002 34.8998 8.9002 34.8998 8.8002C34.8998 8.7002 34.8998 8.6002 34.8998 8.5002V5.2002H35.6998V8.6002C35.6998 8.8002 35.6998 9.0002 35.5998 9.2002C35.4998 9.4002 35.3998 9.5002 35.2998 9.6002C35.0998 9.7002 34.8998 9.7002 34.6998 9.7002H34.2998Z" fill="white"/>
<path d="M37.5002 9.7002C37.2002 9.7002 37.0002 9.7002 36.7002 9.5002C36.5002 9.4002 36.4002 9.2002 36.3002 9.0002C36.2002 8.7002 36.2002 8.5002 36.2002 8.2002V5.2002H37.0002V8.3002C37.0002 8.4002 37.0002 8.6002 37.0002 8.7002C37.0002 8.8002 37.1002 8.9002 37.1002 9.0002C37.2002 9.1002 37.3002 9.1002 37.4002 9.1002C37.5002 9.1002 37.6002 9.1002 37.7002 9.0002C37.8002 8.9002 37.8002 8.8002 37.8002 8.7002C37.8002 8.6002 37.8002 8.4002 37.8002 8.3002V5.3002H38.6002V8.3002C38.6002 8.6002 38.6002 8.8002 38.5002 9.1002C38.4002 9.3002 38.3002 9.5002 38.1002 9.6002C38.0002 9.6002 37.7002 9.7002 37.5002 9.7002Z" fill="white"/>
<path d="M40.4002 9.7002C40.2002 9.7002 39.9002 9.7002 39.7002 9.5002C39.5002 9.4002 39.4002 9.2002 39.3002 9.0002C39.2002 8.8002 39.2002 8.5002 39.2002 8.3002L39.9002 8.2002C39.9002 8.4002 39.9002 8.5002 40.0002 8.6002C40.0002 8.7002 40.1002 8.8002 40.2002 8.9002C40.1002 9.0002 40.2002 9.0002 40.4002 9.0002C40.5002 9.0002 40.6002 9.0002 40.7002 8.9002C40.8002 8.8002 40.8002 8.7002 40.8002 8.6002C40.8002 8.4002 40.8002 8.3002 40.7002 8.1002C40.5002 8.0002 40.4002 7.9002 40.2002 7.8002L39.6002 7.3002C39.5002 7.2002 39.4002 7.0002 39.3002 6.9002C39.2002 6.7002 39.2002 6.5002 39.2002 6.3002C39.2002 6.0002 39.3002 5.7002 39.5002 5.5002C39.7002 5.3002 40.0002 5.2002 40.3002 5.2002C40.5002 5.2002 40.7002 5.2002 40.8002 5.3002C40.9002 5.4002 41.0002 5.5002 41.1002 5.6002C41.2002 5.7002 41.2002 5.9002 41.3002 6.0002C41.3002 6.1002 41.4002 6.3002 41.4002 6.4002L40.7002 6.5002C40.7002 6.4002 40.7002 6.3002 40.7002 6.1002C40.7002 6.0002 40.6002 5.9002 40.6002 5.8002C40.5002 5.7002 40.4002 5.7002 40.3002 5.7002C40.2002 5.7002 40.1002 5.7002 40.0002 5.8002C39.9002 5.9002 39.9002 6.0002 39.9002 6.1002C39.9002 6.2002 39.9002 6.4002 40.0002 6.5002C40.1002 6.6002 40.2002 6.7002 40.3002 6.8002L40.9002 7.3002C41.1002 7.4002 41.2002 7.6002 41.4002 7.8002C41.4002 8.1002 41.5002 8.3002 41.5002 8.6002C41.5002 8.8002 41.5002 9.0002 41.4002 9.2002C41.3002 9.4002 41.2002 9.5002 41.0002 9.6002C40.8002 9.6002 40.6002 9.7002 40.4002 9.7002Z" fill="white"/>
<path d="M42.3001 9.6002V5.8002H41.6001V5.2002H43.8001V5.8002H43.1001V9.6002H42.3001Z" fill="white"/>
<path d="M44.1001 9.6002V5.2002H44.9001V9.6002H44.1001Z" fill="white"/>
<path d="M46.6999 9.69961C46.3999 9.69961 46.1999 9.59961 45.8999 9.49961C45.6999 9.39961 45.5999 9.19961 45.4999 8.99961C45.3999 8.79961 45.3999 8.49961 45.3999 8.19961V6.59961C45.3999 6.29961 45.3999 6.09961 45.4999 5.79961C45.5999 5.59961 45.6999 5.39961 45.8999 5.29961C46.0999 5.19961 46.3999 5.09961 46.6999 5.09961C46.8999 5.09961 47.1999 5.09961 47.3999 5.29961C47.5999 5.39961 47.6999 5.59961 47.7999 5.69961C47.8999 5.89961 47.8999 6.09961 47.8999 6.39961V6.79961H47.1999V6.39961C47.1999 6.29961 47.1999 6.19961 47.1999 6.09961C47.1999 5.99961 47.1999 5.89961 47.0999 5.89961C46.9999 5.79961 46.8999 5.79961 46.7999 5.79961C46.6999 5.79961 46.5999 5.79961 46.4999 5.89961C46.3999 5.99961 46.3999 6.09961 46.3999 6.19961C46.3999 6.29961 46.3999 6.39961 46.3999 6.59961V8.49961C46.3999 8.59961 46.3999 8.79961 46.3999 8.89961C46.3999 8.99961 46.4999 9.09961 46.4999 9.09961C46.5999 9.19961 46.6999 9.19961 46.7999 9.19961C46.8999 9.19961 46.9999 9.19961 47.0999 9.09961C47.1999 8.99961 47.1999 8.89961 47.1999 8.79961C47.1999 8.69961 47.1999 8.59961 47.1999 8.49961V7.99961H47.9999V8.29961C47.9999 8.49961 47.9999 8.79961 47.8999 8.99961C47.7999 9.19961 47.6999 9.39961 47.4999 9.49961C47.1999 9.59961 46.9999 9.69961 46.6999 9.69961Z" fill="white"/>
<path d="M48.3999 9.6002V5.2002H50.2999V5.8002H49.1999V7.0002H49.9999V7.6002H49.1999V9.0002H50.2999V9.6002H48.3999Z" fill="white"/>
<path d="M19.2998 16.6998L20.1998 12.2998H21.0998L21.9998 16.6998H21.2998L21.0998 15.6998H20.2998L20.0998 16.6998H19.2998ZM20.2998 15.1998H20.8998L20.5998 13.3998L20.2998 15.1998Z" fill="white"/>
<path d="M22.2002 16.6998V12.2998H22.8002L23.9002 14.7998V12.2998H24.6002V16.6998H24.1002L23.0002 14.0998V16.6998H22.2002Z" fill="white"/>
<path d="M25.1001 16.6998V12.2998H26.2001C26.5001 12.2998 26.8001 12.2998 27.0001 12.3998C27.2001 12.4998 27.4001 12.6998 27.4001 12.8998C27.5001 13.0998 27.5001 13.3998 27.5001 13.6998V15.2998C27.5001 15.5998 27.5001 15.7998 27.4001 16.0998C27.3001 16.2998 27.2001 16.4998 27.0001 16.5998C26.7001 16.6998 26.5001 16.7998 26.2001 16.7998H25.1001V16.6998ZM25.9001 16.1998H26.1001C26.2001 16.1998 26.4001 16.1998 26.5001 16.0998C26.6001 15.9998 26.6001 15.8998 26.6001 15.7998C26.6001 15.5998 26.6001 15.4998 26.6001 15.2998V13.5998C26.6001 13.4998 26.6001 13.2998 26.6001 13.1998C26.6001 13.0998 26.5001 12.9998 26.4001 12.9998C26.3001 12.8998 26.1001 12.8998 26.0001 12.8998H25.8001L25.9001 16.1998Z" fill="white"/>
<path d="M30.4002 16.8002C30.2002 16.8002 29.9002 16.8002 29.7002 16.6002C29.5002 16.5002 29.4002 16.3002 29.3002 16.1002C29.2002 15.9002 29.2002 15.6002 29.2002 15.4002L29.9002 15.3002C29.9002 15.4002 29.9002 15.6002 30.0002 15.7002C30.0002 15.8002 30.1002 15.9002 30.2002 16.0002C30.3002 16.1002 30.4002 16.1002 30.5002 16.1002C30.6002 16.1002 30.7002 16.1002 30.8002 16.0002C30.9002 15.9002 30.9002 15.8002 30.9002 15.7002C30.9002 15.5002 30.9002 15.4002 30.8002 15.2002C30.7002 15.1002 30.6002 14.9002 30.5002 14.8002L29.9002 14.3002C29.7002 14.2002 29.6002 14.0002 29.5002 13.9002C29.4002 13.7002 29.4002 13.5002 29.4002 13.3002C29.4002 13.0002 29.5002 12.7002 29.7002 12.5002C29.9002 12.3002 30.2002 12.2002 30.5002 12.2002C30.7002 12.2002 30.9002 12.2002 31.0002 12.3002C31.1002 12.4002 31.2002 12.5002 31.3002 12.6002C31.4002 12.7002 31.4002 12.9002 31.5002 13.0002C31.5002 13.1002 31.6002 13.3002 31.6002 13.4002L30.9002 13.5002C30.9002 13.4002 30.9002 13.3002 30.9002 13.1002C30.9002 13.0002 30.8002 12.9002 30.8002 12.8002C30.7002 12.7002 30.6002 12.7002 30.5002 12.7002C30.4002 12.7002 30.3002 12.7002 30.2002 12.8002C30.1002 12.9002 30.1002 13.0002 30.1002 13.1002C30.1002 13.2002 30.1002 13.4002 30.2002 13.5002C30.3002 13.6002 30.4002 13.7002 30.5002 13.8002L31.1002 14.3002C31.3002 14.5002 31.4002 14.6002 31.6002 14.8002C31.7002 15.0002 31.8002 15.3002 31.8002 15.5002C31.8002 15.7002 31.8002 15.9002 31.7002 16.1002C31.6002 16.3002 31.5002 16.4002 31.3002 16.5002C30.8002 16.8002 30.6002 16.8002 30.4002 16.8002Z" fill="white"/>
<path d="M32.3001 16.7004V13.0004H31.6001V12.4004H33.8001V13.0004H33.1001V16.8004H32.3001V16.7004Z" fill="white"/>
<path d="M34.1001 16.6998V12.2998H35.2001C35.5001 12.2998 35.7001 12.2998 36.0001 12.3998C36.2001 12.4998 36.4001 12.5998 36.5001 12.7998C36.6001 12.9998 36.7001 13.2998 36.7001 13.4998C36.7001 13.6998 36.7001 13.7998 36.7001 13.9998C36.7001 14.0998 36.6001 14.2998 36.5001 14.3998C36.4001 14.4998 36.3001 14.5998 36.2001 14.5998L36.8001 16.7998H36.0001L35.5001 14.7998H35.1001V16.7998H34.1001V16.6998ZM34.9001 14.1998H35.2001C35.3001 14.1998 35.5001 14.1998 35.6001 14.0998C35.7001 14.0998 35.8001 13.9998 35.8001 13.8998C35.8001 13.7998 35.9001 13.6998 35.9001 13.4998C35.9001 13.2998 35.9001 13.1998 35.8001 12.9998C35.7001 12.8998 35.5001 12.7998 35.3001 12.7998H35.0001L34.9001 14.1998Z" fill="white"/>
<path d="M38.3 16.8002C38 16.8002 37.8 16.8002 37.5 16.6002C37.3 16.5002 37.2 16.3002 37.1 16.1002C37 15.9002 37 15.6002 37 15.3002V13.7002C37 13.4002 37 13.2002 37.1 12.9002C37.2 12.7002 37.3 12.5002 37.5 12.4002C37.7 12.3002 38 12.2002 38.3 12.2002C38.6 12.2002 38.8 12.2002 39.1 12.4002C39.3 12.5002 39.4 12.7002 39.5 12.9002C39.6 13.1002 39.6 13.4002 39.6 13.7002V15.3002C39.6 15.6002 39.6 15.8002 39.5 16.1002C39.4 16.3002 39.3 16.5002 39.1 16.6002C38.9 16.7002 38.6 16.8002 38.3 16.8002ZM38.3 16.2002C38.4 16.2002 38.5 16.2002 38.6 16.1002C38.7 16.0002 38.7 16.0002 38.7 15.9002C38.7 15.8002 38.7 15.7002 38.7 15.6002V13.6002C38.7 13.5002 38.7 13.4002 38.7 13.3002C38.7 13.2002 38.6 13.1002 38.6 13.1002C38.5 13.0002 38.4 13.0002 38.3 13.0002C38.2 13.0002 38.1 13.0002 38 13.1002C37.9 13.2002 37.9 13.2002 37.9 13.3002C37.9 13.4002 37.9 13.5002 37.9 13.6002V15.6002C37.9 15.7002 37.9 15.8002 37.9 15.9002C37.9 16.0002 38 16.1002 38 16.1002C38.1 16.2002 38.2 16.2002 38.3 16.2002Z" fill="white"/>
<path d="M40.1001 16.6998V12.2998H40.7001L41.8001 14.7998V12.2998H42.5001V16.6998H42.0001L40.9001 14.0998V16.6998H40.1001Z" fill="white"/>
<path d="M44.0999 16.7998C43.8999 16.7998 43.5999 16.7998 43.3999 16.5998C43.1999 16.4998 43.0999 16.2998 42.9999 16.0998C42.8999 15.7998 42.8999 15.5998 42.8999 15.2998V13.7998C42.8999 13.4998 42.8999 13.2998 42.9999 12.9998C43.0999 12.7998 43.1999 12.5998 43.3999 12.4998C43.5999 12.3998 43.8999 12.2998 44.1999 12.2998C44.4999 12.2998 44.6999 12.2998 44.8999 12.4998C45.0999 12.5998 45.1999 12.6998 45.2999 12.8998C45.3999 13.0998 45.3999 13.3998 45.3999 13.5998V13.7998H44.5999V13.4998C44.5999 13.3998 44.5999 13.2998 44.5999 13.0998C44.5999 12.9998 44.4999 12.8998 44.4999 12.8998C44.3999 12.7998 44.2999 12.7998 44.1999 12.7998C44.0999 12.7998 43.9999 12.7998 43.8999 12.8998C43.7999 12.9998 43.7999 13.0998 43.7999 13.1998C43.7999 13.2998 43.7999 13.3998 43.7999 13.5998V15.3998C43.7999 15.4998 43.7999 15.6998 43.7999 15.7998C43.7999 15.8998 43.8999 15.9998 43.8999 16.0998C43.9999 16.1998 44.0999 16.1998 44.1999 16.1998C44.2999 16.1998 44.3999 16.1998 44.4999 16.0998C44.5999 15.9998 44.5999 15.8998 44.5999 15.7998C44.5999 15.6998 44.5999 15.4998 44.5999 15.3998V14.9998H44.1999V14.4998H45.3999V16.6998H44.8999L44.7999 16.2998C44.6999 16.3998 44.6999 16.5998 44.4999 16.6998C44.3999 16.7998 44.1999 16.7998 44.0999 16.7998Z" fill="white"/>
<path d="M19.5 23.9V19.5H20.3V23.9H19.5Z" fill="white"/>
<path d="M20.8999 23.9V19.5H21.4999L22.5999 22V19.5H23.2999V23.9H22.7999L21.6999 21.3V23.9H20.8999Z" fill="white"/>
<path d="M24.9001 23.9C24.7001 23.9 24.4001 23.9 24.2001 23.7C24.0001 23.6 23.9001 23.4 23.8001 23.3C23.7001 23.1 23.7001 22.8 23.6001 22.6L24.3001 22.5C24.3001 22.7 24.3001 22.8 24.4001 23C24.4001 23.1 24.5001 23.2 24.6001 23.3C24.7001 23.4 24.8001 23.4 24.9001 23.4C25.0001 23.4 25.1001 23.4 25.2001 23.3C25.3001 23.2 25.3001 23.1 25.3001 23C25.3001 22.8 25.3001 22.7 25.2001 22.5C25.1001 22.4 25.0001 22.2 24.8001 22.1L24.2001 21.6C24.1001 21.5 23.9001 21.3 23.8001 21.2C23.7001 21 23.7001 20.8 23.7001 20.6C23.7001 20.3 23.8001 20 24.0001 19.8C24.2001 19.6 24.5001 19.5 24.8001 19.5C25.0001 19.5 25.2001 19.5 25.3001 19.6C25.4001 19.7 25.5001 19.8 25.6001 19.9C25.7001 20 25.7001 20.1 25.8001 20.3C25.8001 20.4 25.9001 20.6 25.9001 20.7L25.2001 20.8C25.2001 20.7 25.2001 20.6 25.2001 20.4C25.2001 20.3 25.1001 20.2 25.1001 20.1C25.0001 20 24.9001 20 24.8001 20C24.7001 20 24.6001 20 24.5001 20.1C24.4001 20.2 24.4001 20.3 24.4001 20.4C24.4001 20.5 24.4001 20.7 24.5001 20.8C24.6001 20.9 24.7001 21 24.8001 21.1L25.4001 21.6C25.6001 21.7 25.7001 21.9 25.9001 22.1C26.0001 22.3 26.1001 22.6 26.1001 22.8C26.1001 23 26.1001 23.2 26.0001 23.4C25.9001 23.6 25.8001 23.7 25.6001 23.8C25.3001 23.9 25.1001 23.9 24.9001 23.9Z" fill="white"/>
<path d="M26.8001 23.9V20.1H26.1001V19.5H28.3001V20.1H27.6001V23.9H26.8001Z" fill="white"/>
<path d="M28.7002 23.9V19.5H29.5002V23.9H28.7002Z" fill="white"/>
<path d="M30.4998 23.9V20.1H29.7998V19.5H31.9998V20.1H31.2998V23.9H30.4998Z" fill="white"/>
<path d="M33.5002 23.9004C33.2002 23.9004 33.0002 23.9004 32.7002 23.7004C32.5002 23.6004 32.4002 23.4004 32.3002 23.2004C32.2002 22.9004 32.2002 22.7004 32.2002 22.4004V19.4004H33.0002V22.5004C33.0002 22.6004 33.0002 22.8004 33.0002 22.9004C33.0002 23.0004 33.1002 23.1004 33.1002 23.2004C33.2002 23.3004 33.3002 23.3004 33.4002 23.3004C33.5002 23.3004 33.6002 23.3004 33.7002 23.2004C33.8002 23.1004 33.8002 23.0004 33.8002 22.9004C33.8002 22.8004 33.8002 22.6004 33.8002 22.5004V19.4004H34.6002V22.4004C34.6002 22.7004 34.6002 22.9004 34.5002 23.2004C34.4002 23.4004 34.3002 23.6004 34.1002 23.7004C34.0002 23.9004 33.8002 23.9004 33.5002 23.9004Z" fill="white"/>
<path d="M35.7 23.9V20.1H35V19.5H37.2V20.1H36.5V23.9H35.7Z" fill="white"/>
<path d="M37.6001 23.9V19.5H38.4001V23.9H37.6001Z" fill="white"/>
<path d="M40.0999 23.8998C39.7999 23.8998 39.5999 23.8998 39.3999 23.6998C39.1999 23.5998 39.0999 23.3998 38.9999 23.1998C38.8999 22.9998 38.8999 22.6998 38.8999 22.3998V20.7998C38.8999 20.4998 38.8999 20.2998 38.9999 19.9998C39.0999 19.7998 39.1999 19.5998 39.3999 19.4998C39.5999 19.3998 39.8999 19.2998 40.0999 19.2998C40.3999 19.2998 40.5999 19.2998 40.8999 19.4998C41.0999 19.5998 41.1999 19.7998 41.2999 19.9998C41.3999 20.1998 41.3999 20.4998 41.3999 20.7998V22.3998C41.3999 22.6998 41.3999 22.8998 41.2999 23.1998C41.1999 23.3998 41.0999 23.5998 40.8999 23.6998C40.6999 23.8998 40.3999 23.9998 40.0999 23.8998ZM40.0999 23.3998C40.1999 23.3998 40.2999 23.3998 40.3999 23.2998C40.4999 23.1998 40.4999 23.1998 40.4999 23.0998C40.4999 22.9998 40.4999 22.8998 40.4999 22.7998V20.7998C40.4999 20.6998 40.4999 20.5998 40.4999 20.4998C40.4999 20.3998 40.3999 20.2998 40.3999 20.2998C40.2999 20.1998 40.1999 20.1998 40.0999 20.1998C39.9999 20.1998 39.8999 20.1998 39.7999 20.2998C39.6999 20.3998 39.6999 20.3998 39.6999 20.4998C39.6999 20.5998 39.6999 20.6998 39.6999 20.7998V22.7998C39.6999 22.8998 39.6999 22.9998 39.6999 23.0998C39.6999 23.1998 39.7999 23.2998 39.7999 23.2998C39.8999 23.2998 39.9999 23.3998 40.0999 23.3998Z" fill="white"/>
<path d="M41.8999 23.9V19.5H42.4999L43.5999 22V19.5H44.2999V23.9H43.7999L42.6999 21.3V23.9H41.8999Z" fill="white"/>
<path d="M45.9002 23.9C45.7002 23.9 45.4002 23.9 45.2002 23.7C45.0002 23.6 44.9002 23.4 44.8002 23.3C44.7002 23.1 44.7002 22.8 44.7002 22.6L45.4002 22.5C45.4002 22.7 45.4002 22.8 45.5002 23C45.5002 23.1 45.6002 23.2 45.7002 23.3C45.8002 23.4 45.9002 23.4 46.0002 23.4C46.1002 23.4 46.2002 23.4 46.3002 23.3C46.4002 23.2 46.4002 23.1 46.4002 23C46.4002 22.8 46.4002 22.7 46.3002 22.5C46.2002 22.4 46.1002 22.2 45.9002 22.1L45.3002 21.6C45.1002 21.5 45.0002 21.3 44.9002 21.2C44.8002 21 44.7002 20.8 44.8002 20.6C44.8002 20.3 44.9002 20 45.1002 19.8C45.3002 19.6 45.6002 19.5 45.9002 19.5C46.1002 19.5 46.3002 19.5 46.4002 19.6C46.5002 19.7 46.6002 19.7 46.7002 19.9C46.8002 20 46.8002 20.1 46.9002 20.3C46.9002 20.4 47.0002 20.6 47.0002 20.7L46.3002 20.8C46.3002 20.7 46.3002 20.6 46.3002 20.4C46.3002 20.3 46.2002 20.2 46.2002 20.1C46.1002 20 46.0002 20 45.9002 20C45.8002 20 45.7002 20 45.6002 20.1C45.5002 20.2 45.5002 20.3 45.5002 20.4C45.5002 20.5 45.5002 20.7 45.6002 20.8C45.7002 20.9 45.8002 21 45.9002 21.1L46.5002 21.6C46.7002 21.8 46.8002 21.9 47.0002 22.1C47.1002 22.3 47.2002 22.6 47.2002 22.8C47.2002 23 47.2002 23.2 47.1002 23.4C47.0002 23.6 46.9002 23.7 46.7002 23.8C46.3002 23.9 46.1002 23.9 45.9002 23.9Z" fill="white"/>
<path d="M40.5002 26.5996C40.2002 26.9996 40.0002 27.5996 40.1002 28.0996C40.3002 28.5996 40.7002 29.0996 41.2002 29.2996C41.5002 28.8996 41.7002 28.2996 41.6002 27.7996C41.4002 27.2996 41.0002 26.8996 40.5002 26.5996Z" fill="white"/>
<path d="M39.6002 31.1004C40.3002 30.4004 40.2002 29.3004 39.5002 28.7004C39.3002 28.6004 39.2002 28.4004 39.0002 28.4004C38.7002 28.8004 38.5002 29.4004 38.6002 29.9004C38.7002 30.4004 39.1002 30.8004 39.6002 31.1004Z" fill="white"/>
<path d="M42 30.2004C42.4 30.6004 42.8 30.8004 43.3 30.8004C43.8 30.7004 44.2 30.4004 44.5 30.0004C44.1 29.7004 43.7 29.5004 43.2 29.4004C42.8 29.5004 42.3 29.8004 42 30.2004Z" fill="white"/>
<path d="M43 26.9004C42.6 27.4004 42.5 27.9004 42.5 28.5004C43.1 28.5004 43.7 28.4004 44.1 28.0004C44.5 27.5004 44.6 27.0004 44.6 26.4004C44.1 26.4004 43.5 26.5004 43 26.9004Z" fill="white"/>
<path d="M41.8001 32.5002C42.3001 32.5002 42.8001 32.3002 43.2001 32.0002C42.9001 31.6002 42.5001 31.3002 42.0001 31.2002C41.5001 31.2002 41.0001 31.4002 40.6001 31.7002C40.8001 32.1002 41.3001 32.4002 41.8001 32.5002Z" fill="white"/>
<path d="M42.3998 43.7998H37.0998C36.6998 43.7998 36.2998 43.9998 36.2998 44.4998C36.2998 44.8998 36.5998 45.2998 36.9998 45.2998C37.0998 45.2998 37.0998 45.2998 37.1998 45.2998H42.4998C42.8998 45.2998 43.1998 44.8998 43.1998 44.4998C42.9998 44.0998 42.6998 43.8998 42.3998 43.7998Z" fill="white"/>
<path d="M42.3998 52H37.0998C36.6998 52 36.2998 52.2 36.2998 52.7C36.2998 53.1 36.5998 53.5 36.9998 53.5C37.0998 53.5 37.0998 53.5 37.1998 53.5H42.4998C42.8998 53.5 43.1998 53.1 43.1998 52.7C42.9998 52.3 42.6998 52 42.3998 52Z" fill="white"/>
<path d="M42.2002 45.7996H37.3002C37.1002 45.7996 36.9002 45.9996 36.9002 46.1996V47.6996L33.6002 47.9996L28.9002 47.8996V45.0996C29.5002 44.9996 30.2002 44.8996 30.8002 44.6996C35.3002 43.3996 36.3002 40.6996 36.2002 38.0996C36.1002 35.4996 36.9002 34.4996 38.2002 33.9996C38.5002 33.8996 38.8002 33.7996 39.2002 33.6996C39.2002 34.4996 39.4002 35.1996 39.6002 35.9996H39.9002C39.6002 35.2996 39.5002 34.4996 39.5002 33.6996C39.9002 33.6996 40.2002 33.6996 40.6002 33.6996C40.3002 33.4996 39.9002 33.2996 39.6002 32.9996C39.9002 31.8996 40.5002 30.9996 41.3002 30.1996C41.7002 29.7996 42.1002 29.2996 42.5002 28.7996L42.2002 28.5996C41.9002 29.0996 41.5002 29.4996 41.0002 29.8996C40.1002 30.5996 39.5002 31.5996 39.2002 32.5996C39.0002 32.3996 38.7002 32.0996 38.4002 31.7996C37.3002 30.5996 35.8002 31.4996 33.8002 33.2996C31.8002 35.0996 29.2002 35.1996 26.6002 32.6996C23.3002 29.2996 20.4002 29.3996 18.4002 29.5996C19.8002 30.1996 20.2002 31.3996 20.9002 34.5996C21.6002 37.8996 23.4002 39.3996 25.9002 39.6996C24.8002 39.8996 24.5002 39.9996 22.6002 41.2996C21.3002 41.9996 19.7002 42.1996 18.3002 41.7996C19.8002 42.2996 21.6002 43.7996 23.2002 44.3996C24.2002 44.6996 25.1002 44.8996 26.1002 44.9996V47.6996L17.2002 47.4996V49.3996L33.4002 48.9996L36.6002 49.3996V50.8996C36.6002 51.0996 36.8002 51.2996 37.0002 51.2996H41.9002C42.1002 51.2996 42.3002 51.0996 42.3002 50.8996V46.0996C42.7002 45.9996 42.5002 45.7996 42.2002 45.7996ZM27.1002 45.1996C27.5002 45.1996 27.8002 45.1996 28.2002 45.1996V47.8996H27.1002V45.1996Z" fill="white"/>
<path d="M16.9001 49.2998C16.9001 49.6998 16.6001 49.9998 16.3001 49.9998H15.9001C15.5001 49.9998 15.2001 49.6998 15.3001 49.2998V47.9998C15.3001 47.5998 15.6001 47.2998 15.9001 47.2998H16.3001C16.7001 47.2998 17.0001 47.5998 16.9001 47.9998V49.2998Z" fill="white"/>
</g>
</g>
<defs>
<clipPath id="clip0_3750_17506">
<rect width="60" height="60" fill="white"/>
</clipPath>
<clipPath id="clip1_3750_17506">
<rect width="60" height="60" fill="white"/>
</clipPath>
</defs>
</svg>
