<svg width="20" height="20" viewBox="0 0 20 20" fill="none" xmlns="http://www.w3.org/2000/svg">
<path d="M15.5 13.75H16.375C16.625 13.75 16.875 13.5 16.875 13.25V4.25C16.875 4 16.625 3.75 16.375 3.75H15.5C15.25 3.75 15 4 15 4.25V13.25C15 13.5 15.25 13.75 15.5 13.75ZM8 13.75H8.875C9.125 13.75 9.375 13.5 9.375 13.25V5.5C9.375 5.25 9.125 5 8.875 5H8C7.75 5 7.5 5.25 7.5 5.5V13.25C7.5 13.5 7.75 13.75 8 13.75ZM11.75 13.75H12.625C12.875 13.75 13.125 13.5 13.125 13.25V8C13.125 7.75 12.875 7.5 12.625 7.5H11.75C11.5 7.5 11.25 7.75 11.25 8V13.25C11.25 13.5 11.5 13.75 11.75 13.75ZM19.375 15.625H1.875V3.125C1.875 2.77969 1.59531 2.5 1.25 2.5H0.625C0.279687 2.5 0 2.77969 0 3.125V16.25C0 16.9402 0.559766 17.5 1.25 17.5H19.375C19.7203 17.5 20 17.2203 20 16.875V16.25C20 15.9047 19.7203 15.625 19.375 15.625ZM4.25 13.75H5.125C5.375 13.75 5.625 13.5 5.625 13.25V10.5C5.625 10.25 5.375 10 5.125 10H4.25C4 10 3.75 10.25 3.75 10.5V13.25C3.75 13.5 4 13.75 4.25 13.75Z" fill="#02353C"/>
</svg>
