<svg width="20" height="20" viewBox="0 0 20 20" fill="none" xmlns="http://www.w3.org/2000/svg">
<g clip-path="url(#clip0_5423_10233)">
<path d="M7.5 8.125C7.5 7.43477 6.94023 6.875 6.25 6.875H5.625C4.24414 6.875 3.125 7.99414 3.125 9.375V11.25C3.125 12.6309 4.24414 13.75 5.625 13.75H6.25C6.94023 13.75 7.5 13.1902 7.5 12.5V8.125ZM14.375 13.75C15.7559 13.75 16.875 12.6309 16.875 11.25V9.375C16.875 7.99414 15.7559 6.875 14.375 6.875H13.75C13.0598 6.875 12.5 7.43477 12.5 8.125V12.5C12.5 13.1902 13.0598 13.75 13.75 13.75H14.375ZM10 0C4.42109 0 0.178906 4.6418 0 10V10.625C0 10.9703 0.279687 11.25 0.625 11.25H1.25C1.59531 11.25 1.875 10.9703 1.875 10.625V10C1.875 5.51992 5.51992 1.875 10 1.875C14.4801 1.875 18.125 5.51992 18.125 10H18.1203C18.1234 10.0949 18.125 16.4734 18.125 16.4734C18.125 17.3855 17.3855 18.125 16.4734 18.125H12.5C12.5 17.0895 11.6605 16.25 10.625 16.25H9.375C8.33945 16.25 7.5 17.0895 7.5 18.125C7.5 19.1605 8.33945 20 9.375 20H16.4734C18.4211 20 20 18.4211 20 16.4734V10C19.8211 4.6418 15.5789 0 10 0Z" fill="#02353C"/>
</g>
<defs>
<clipPath id="clip0_5423_10233">
<rect width="20" height="20" fill="white"/>
</clipPath>
</defs>
</svg>
