<svg width="16" height="20" viewBox="0 0 16 20" fill="none" xmlns="http://www.w3.org/2000/svg">
<path d="M7.60547 10.0039C7.41016 9.37891 7.41406 8.17188 7.52734 8.17188C7.85547 8.17188 7.82422 9.61328 7.60547 10.0039ZM7.53906 11.8477C7.23828 12.6367 6.86328 13.5391 6.42969 14.2969C7.14453 14.0234 7.95312 13.625 8.88672 13.4414C8.39062 13.0664 7.91406 12.5273 7.53906 11.8477ZM3.86328 16.7227C3.86328 16.7539 4.37891 16.5117 5.22656 15.1523C4.96484 15.3984 4.08984 16.1094 3.86328 16.7227ZM10.1875 6.25H15.5V19.0625C15.5 19.582 15.082 20 14.5625 20H1.4375C0.917969 20 0.5 19.582 0.5 19.0625V0.9375C0.5 0.417969 0.917969 0 1.4375 0H9.25V5.3125C9.25 5.82812 9.67188 6.25 10.1875 6.25ZM9.875 12.9609C9.09375 12.4844 8.57422 11.8281 8.20703 10.8594C8.38281 10.1367 8.66016 9.03906 8.44922 8.35156C8.26562 7.20312 6.79297 7.31641 6.58203 8.08594C6.38672 8.80078 6.56641 9.80859 6.89844 11.0938C6.44531 12.1719 5.77734 13.6172 5.30469 14.4453C5.30078 14.4453 5.30078 14.4492 5.29688 14.4492C4.23828 14.9922 2.42188 16.1875 3.16797 17.1055C3.38672 17.375 3.79297 17.4961 4.00781 17.4961C4.70703 17.4961 5.40234 16.793 6.39453 15.082C7.40234 14.75 8.50781 14.3359 9.48047 14.1758C10.3281 14.6367 11.3203 14.9375 11.9805 14.9375C13.1211 14.9375 13.1992 13.6875 12.75 13.2422C12.207 12.7109 10.6289 12.8633 9.875 12.9609ZM15.2266 4.10156L11.3984 0.273438C11.2227 0.0976562 10.9844 0 10.7344 0H10.5V5H15.5V4.76172C15.5 4.51562 15.4023 4.27734 15.2266 4.10156ZM12.332 14.0742C12.4922 13.9687 12.2344 13.6094 10.6602 13.7227C12.1094 14.3398 12.332 14.0742 12.332 14.0742Z" fill="#3FD0C9"/>
</svg>
