<svg width="18" height="20" viewBox="0 0 18 20" fill="none" xmlns="http://www.w3.org/2000/svg">
<path d="M10.4062 15H7.59375C7.12617 15 6.75 14.582 6.75 14.0625V7.5H3.6668C3.04102 7.5 2.72812 6.66015 3.17109 6.16797L8.51836 0.222656C8.78203 -0.0703125 9.21445 -0.0703125 9.47813 0.222656L14.8289 6.16797C15.2719 6.66015 14.959 7.5 14.3332 7.5H11.25V14.0625C11.25 14.582 10.8738 15 10.4062 15ZM18 14.6875V19.0625C18 19.582 17.6238 20 17.1562 20H0.84375C0.376172 20 0 19.582 0 19.0625V14.6875C0 14.168 0.376172 13.75 0.84375 13.75H5.625V14.0625C5.625 15.2695 6.50742 16.25 7.59375 16.25H10.4062C11.4926 16.25 12.375 15.2695 12.375 14.0625V13.75H17.1562C17.6238 13.75 18 14.168 18 14.6875ZM13.6406 18.125C13.6406 17.6953 13.3242 17.3437 12.9375 17.3437C12.5508 17.3437 12.2344 17.6953 12.2344 18.125C12.2344 18.5547 12.5508 18.9062 12.9375 18.9062C13.3242 18.9062 13.6406 18.5547 13.6406 18.125ZM15.8906 18.125C15.8906 17.6953 15.5742 17.3437 15.1875 17.3437C14.8008 17.3437 14.4844 17.6953 14.4844 18.125C14.4844 18.5547 14.8008 18.9062 15.1875 18.9062C15.5742 18.9062 15.8906 18.5547 15.8906 18.125Z" fill="#666666"/>
</svg>
